<svg>
    <symbol id="icon-chevron-right"
            xmlns="http://www.w3.org/2000/svg"
            viewBox="0 0 320 512"
            fill="currentColor">
        <path d="M310.6 233.4c12.5 12.5 12.5 32.8 0 45.3l-192 192c-12.5 12.5-32.8 12.5-45.3 0s-12.5-32.8 0-45.3L242.7 256 73.4 86.6c-12.5-12.5-12.5-32.8 0-45.3s32.8-12.5 45.3 0l192 192z" />
    </symbol>
    <symbol id="icon-chevron-left"
            xmlns="http://www.w3.org/2000/svg"
            viewBox="0 0 320 512"
            fill="currentColor">
        <path d="M9.4 233.4c-12.5 12.5-12.5 32.8 0 45.3l192 192c12.5 12.5 32.8 12.5 45.3 0s12.5-32.8 0-45.3L77.3 256 246.6 86.6c12.5-12.5 12.5-32.8 0-45.3s-32.8-12.5-45.3 0l-192 192z" />
    </symbol>
    <symbol id="icon-close"
            xmlns="http://www.w3.org/2000/svg"
            viewBox="0 0 24 24"
            fill="none"
            stroke="currentColor"
            stroke-width="2"
            stroke-linecap="round"
            stroke-linejoin="round">
        <line x1="18"
              y1="6"
              x2="6"
              y2="18" />
        <line x1="6"
              y1="6"
              x2="18"
              y2="18" />
    </symbol>
    <symbol id="icon-search"
            xmlns="http://www.w3.org/2000/svg"
            viewBox="0 0 24 24"
            fill="none"
            stroke="currentColor"
            strokeWidth="2"
            strokeLinecap="round"
            strokeLinejoin="round">
        <circle cx="11"
                cy="11"
                r="8" />
        <line x1="21"
              y1="21"
              x2="16.65"
              y2="16.65" />
    </symbol>
    <symbol id="icon-menu"
            xmlns="http://www.w3.org/2000/svg"
            viewBox="0 0 24 24"
            fill="none"
            stroke="currentColor"
            strokeWidth="2"
            strokeLinecap="round"
            strokeLinejoin="round">
        <line x1="3"
              y1="12"
              x2="21"
              y2="12" />
        <line x1="3"
              y1="6"
              x2="21"
              y2="6" />
        <line x1="3"
              y1="18"
              x2="21"
              y2="18" />
    </symbol>
    <symbol id="icon-more-vertical"
            xmlns="http://www.w3.org/2000/svg"
            viewBox="0 0 24 24"
            fill="none"
            stroke="currentColor"
            strokeWidth="2"
            strokeLinecap="round"
            strokeLinejoin="round">
        <circle cx="12"
                cy="12"
                r="1" />
        <circle cx="12"
                cy="5"
                r="1" />
        <circle cx="12"
                cy="19"
                r="1" />
    </symbol>
    <symbol id="icon-sun"
            xmlns="http://www.w3.org/2000/svg"
            viewBox="0 0 24 24"
            fill="none"
            stroke="currentColor"
            stroke-width="2"
            stroke-linecap="round"
            stroke-linejoin="round">
        <circle cx="12"
                cy="12"
                r="5" />
        <line x1="12"
              y1="1"
              x2="12"
              y2="3" />
        <line x1="12"
              y1="21"
              x2="12"
              y2="23" />
        <line x1="4.22"
              y1="4.22"
              x2="5.64"
              y2="5.64" />
        <line x1="18.36"
              y1="18.36"
              x2="19.78"
              y2="19.78" />
        <line x1="1"
              y1="12"
              x2="3"
              y2="12" />
        <line x1="21"
              y1="12"
              x2="23"
              y2="12" />
        <line x1="4.22"
              y1="19.78"
              x2="5.64"
              y2="18.36" />
        <line x1="18.36"
              y1="5.64"
              x2="19.78"
              y2="4.22" />
    </symbol>
    <symbol id="icon-moon"
            xmlns="http://www.w3.org/2000/svg"
            viewBox="0 0 24 24"
            fill="none"
            stroke="currentColor"
            stroke-width="2"
            stroke-linecap="round"
            stroke-linejoin="round"
            class="feather feather-moon">
        <path d="M21 12.79A9 9 0 1 1 11.21 3 7 7 0 0 0 21 12.79z" />
    </symbol>
    <symbol id="icon-external-link"
            xmlns="http://www.w3.org/2000/svg"
            viewBox="0 0 24 24"
            fill="currentColor"
            role="presentation">
        <path d="M21.6 21.6H2.4V2.4h7.2V0H0v24h24v-9.6h-2.4v7.2zM14.4 0v2.4h4.8L7.195 14.49l2.4 2.4L21.6 4.8v4.8H24V0h-9.6z" />
    </symbol>
    <symbol id="icon-quote"
            xmlns="http://www.w3.org/2000/svg"
            viewBox="0 0 24 24"
            fill="currentColor">
        <path d="M9.983 3v7.391c0 5.704-3.731 9.57-8.983 10.609l-.995-2.151c2.432-.917 3.995-3.638 3.995-5.849h-4v-10h9.983zm14.017 0v7.391c0 5.704-3.748 9.571-9 10.609l-.996-2.151c2.433-.917 3.996-3.638 3.996-5.849h-3.983v-10h9.983z" />
    </symbol>
    <symbol id="icon-imdb"
            xmlns="http://www.w3.org/2000/svg"
            viewBox="0 0 64 32"
            version="1.1">
        <g fill="#F5C518">
            <rect x="0"
                  y="0"
                  width="100%"
                  height="100%"
                  rx="4" />
        </g>
        <g transform="translate(8.000000, 7.000000)"
           fill="#000000"
           fillRule="nonzero">
            <polygon points="0 18 5 18 5 0 0 0" />
            <path d="M15.6725178,0 L14.5534833,8.40846934 L13.8582008,3.83502426 C13.65661,2.37009263 13.4632474,1.09175121 13.278113,0 L7,0 L7,18 L11.2416347,18 L11.2580911,6.11380679 L13.0436094,18 L16.0633571,18 L17.7583653,5.8517865 L17.7707076,18 L22,18 L22,0 L15.6725178,0 Z" />
            <path d="M24,18 L24,0 L31.8045586,0 C33.5693522,0 35,1.41994415 35,3.17660424 L35,14.8233958 C35,16.5777858 33.5716617,18 31.8045586,18 L24,18 Z M29.8322479,3.2395236 C29.6339219,3.13233348 29.2545158,3.08072342 28.7026524,3.08072342 L28.7026524,14.8914865 C29.4312846,14.8914865 29.8796736,14.7604764 30.0478195,14.4865461 C30.2159654,14.2165858 30.3021941,13.486105 30.3021941,12.2871637 L30.3021941,5.3078959 C30.3021941,4.49404499 30.272014,3.97397442 30.2159654,3.74371416 C30.1599168,3.5134539 30.0348852,3.34671372 29.8322479,3.2395236 Z" />
            <path d="M44.4299079,4.50685823 L44.749518,4.50685823 C46.5447098,4.50685823 48,5.91267586 48,7.64486762 L48,14.8619906 C48,16.5950653 46.5451816,18 44.749518,18 L44.4299079,18 C43.3314617,18 42.3602746,17.4736618 41.7718697,16.6682739 L41.4838962,17.7687785 L37,17.7687785 L37,0 L41.7843263,0 L41.7843263,5.78053556 C42.4024982,5.01015739 43.3551514,4.50685823 44.4299079,4.50685823 Z M43.4055679,13.2842155 L43.4055679,9.01907814 C43.4055679,8.31433946 43.3603268,7.85185468 43.2660746,7.63896485 C43.1718224,7.42607505 42.7955881,7.2893916 42.5316822,7.2893916 C42.267776,7.2893916 41.8607934,7.40047379 41.7816216,7.58767002 L41.7816216,9.01907814 L41.7816216,13.4207851 L41.7816216,14.8074788 C41.8721037,15.0130276 42.2602358,15.1274059 42.5316822,15.1274059 C42.8031285,15.1274059 43.1982131,15.0166981 43.281155,14.8074788 C43.3640968,14.5982595 43.4055679,14.0880581 43.4055679,13.2842155 Z" />
        </g>
    </symbol>
    <symbol id="icon-imdb-star"
            xmlns="http://www.w3.org/2000/svg"
            viewBox="0 0 24 24"
            fill="currentColor"
            role="presentation">
        <path d="M12 17.27l4.15 2.51c.76.46 1.69-.22 1.49-1.08l-1.1-4.72 3.67-3.18c.67-.58.31-1.68-.57-1.75l-4.83-.41-1.89-4.46c-.34-.81-1.5-.81-1.84 0L9.19 8.63l-4.83.41c-.88.07-1.24 1.17-.57 1.75l3.67 3.18-1.1 4.72c-.2.86.73 1.54 1.49 1.08l4.15-2.5z" />
    </symbol>
    <symbol id="icon-save"
            xmlns="http://www.w3.org/2000/svg"
            viewBox="0 0 24 24"
            fill="none"
            stroke="currentColor"
            strokeWidth="2"
            strokeLinecap="round"
            strokeLinejoin="round">
        <path d="M19 21H5a2 2 0 0 1-2-2V5a2 2 0 0 1 2-2h11l5 5v11a2 2 0 0 1-2 2z" />
        <polyline points="17 21 17 13 7 13 7 21" />
        <polyline points="7 3 7 8 15 8" />
    </symbol>
    <symbol id="icon-download"
            xmlns="http://www.w3.org/2000/svg"
            viewBox="0 0 24 24"
            fill="none"
            stroke="currentColor"
            strokeWidth="2"
            strokeLinecap="round"
            strokeLinejoin="round">
        <path d="M21 15v4a2 2 0 0 1-2 2H5a2 2 0 0 1-2-2v-4" />
        <polyline points="7 10 12 15 17 10" />
        <line x1="12"
              y1="15"
              x2="12"
              y2="3" />
    </symbol>
    <symbol id="icon-file"
            xmlns="http://www.w3.org/2000/svg"
            viewBox="0 0 24 24"
            fill="none"
            stroke="currentColor"
            strokeWidth="2"
            strokeLinecap="round"
            strokeLinejoin="round">
        <path d="M13 2H6a2 2 0 0 0-2 2v16a2 2 0 0 0 2 2h12a2 2 0 0 0 2-2V9z" />
        <polyline points="13 2 13 9 20 9" />
    </symbol>
    <symbol id="icon-sheet-file"
            xmlns="http://www.w3.org/2000/svg"
            viewBox="0 0 24 24"
            fill="none"
            stroke="currentColor"
            strokeWidth="2"
            strokeLinecap="round"
            strokeLinejoin="round">
        <path d="M14 2H6a2 2 0 0 0-2 2v16a2 2 0 0 0 2 2h12a2 2 0 0 0 2-2V8z" />
        <polyline points="14 2 14 8 20 8" />
        <line x1="16"
              y1="13"
              x2="8"
              y2="13" />
        <line x1="16"
              y1="17"
              x2="8"
              y2="17" />
        <polyline points="10 9 9 9 8 9" />
    </symbol>
    <symbol id="icon-share"
            xmlns="http://www.w3.org/2000/svg"
            viewBox="0 0 24 24"
            fill="none"
            stroke="currentColor"
            strokeWidth="2"
            strokeLinecap="round"
            strokeLinejoin="round">
        <circle cx="18"
                cy="5"
                r="3" />
        <circle cx="6"
                cy="12"
                r="3" />
        <circle cx="18"
                cy="19"
                r="3" />
        <line x1="8.59"
              y1="13.51"
              x2="15.42"
              y2="17.49" />
        <line x1="15.41"
              y1="6.51"
              x2="8.59"
              y2="10.49" />
    </symbol>
    <symbol id="icon-print"
            xmlns="http://www.w3.org/2000/svg"
            viewBox="0 0 24 24"
            fill="none"
            stroke="currentColor"
            strokeWidth="2"
            strokeLinecap="round"
            strokeLinejoin="round">
        <polyline points="6 9 6 2 18 2 18 9" />
        <path d="M6 18H4a2 2 0 0 1-2-2v-5a2 2 0 0 1 2-2h16a2 2 0 0 1 2 2v5a2 2 0 0 1-2 2h-2" />
        <rect x="6"
              y="14"
              width="12"
              height="8" />
    </symbol>
    <symbol id="icon-midi"
            xmlns="http://www.w3.org/2000/svg"
            xmlns:xlink="http://www.w3.org/1999/xlink"
            fill="currentColor"
            version="1.1"
            xml:space="preserve"
            viewBox="31.36 0 485.57 548.29">
        <g>
            <path d="M486.201,196.116h-13.166V132.59c0-0.399-0.062-0.795-0.115-1.2c-0.021-2.522-0.825-5-2.552-6.96L364.657,3.677   c-0.033-0.034-0.064-0.044-0.085-0.075c-0.63-0.704-1.364-1.292-2.143-1.796c-0.229-0.157-0.461-0.286-0.702-0.419   c-0.672-0.365-1.387-0.672-2.121-0.893c-0.2-0.052-0.379-0.134-0.577-0.188C358.23,0.118,357.401,0,356.562,0H96.757   C84.894,0,75.256,9.649,75.256,21.502v174.613H62.092c-16.971,0-30.732,13.756-30.732,30.73v159.81   c0,16.966,13.761,30.736,30.732,30.736h13.164V526.79c0,11.854,9.638,21.501,21.501,21.501h354.776   c11.853,0,21.501-9.647,21.501-21.501V417.392h13.166c16.966,0,30.729-13.764,30.729-30.731V226.854   C516.93,209.872,503.167,196.116,486.201,196.116z M96.757,21.502h249.054v110.006c0,5.94,4.817,10.751,10.751,10.751h94.972   v53.861H96.757V21.502z M310.14,237.605v141.036h-32.016V237.605H310.14z M253.667,378.652h-31.184l-2.097-53.985   c-0.622-16.946-1.252-37.466-1.252-57.967h-0.622c-4.394,17.998-10.257,38.082-15.704,54.617l-17.147,55.029h-24.903   l-15.074-54.608c-4.602-16.526-9.413-36.632-12.756-55.038H132.5c-0.829,19.037-1.456,40.812-2.506,58.386l-2.509,53.566H97.978   l9-141.042h42.481l13.798,47.087c4.391,16.314,8.795,33.9,11.934,50.425h0.628c3.979-16.314,8.795-34.939,13.391-50.636   l15.066-46.876h41.643L253.667,378.652z M451.534,520.962H96.757v-103.57h354.776V520.962z M439.041,361.894   c-14.873,12.363-37.461,18.222-65.082,18.222c-16.531,0-28.254-1.046-36.206-2.095V239.484c11.733-1.879,26.998-2.919,43.114-2.919   c26.776,0,44.152,4.811,57.753,15.069c14.657,10.874,23.858,28.245,23.858,53.148C462.467,331.78,452.63,350.398,439.041,361.894z" />
            <path d="M384.214,261.051c-7.118,0-11.732,0.627-14.446,1.247v92.286c2.714,0.629,7.112,0.629,11.088,0.629   c28.87,0.199,47.706-15.696,47.706-49.392C428.783,276.528,411.623,261.051,384.214,261.051z" />
        </g>
    </symbol>
    <symbol id="icon-midi-text"
            xmlns="http://www.w3.org/2000/svg"
            viewBox="0 0 24 24">
        <path fill="currentColor"
              d="M20.15 8.26H22v7.48h-1.85M13 8.26h5.43c.57 0 .87.48.87 1.04v5.51c0 .69-.3.93-.92.93H13V11h1.87v2.91h2.63V9.95H13m-2.68-1.69h1.82v7.48h-1.82M2 8.26h6.55c.55 0 .86.48.86 1.04v6.44H7.59v-5.59H6.5v5.59H4.87v-5.59H3.83v5.59H2Z" />
    </symbol>
    <symbol id="icon-pdf"
            xmlns="http://www.w3.org/2000/svg"
            viewBox="0 0 512 512">
        <path fill="currentColor"
              d="M64 464h48v48H64c-35.3 0-64-28.7-64-64V64C0 28.7 28.7 0 64 0h165.5c17 0 33.3 6.7 45.3 18.7l90.5 90.5c12 12 18.7 28.3 18.7 45.3V304h-48V160h-80c-17.7 0-32-14.3-32-32V48H64c-8.8 0-16 7.2-16 16v384c0 8.8 7.2 16 16 16zm112-112h32c30.9 0 56 25.1 56 56s-25.1 56-56 56h-16v32c0 8.8-7.2 16-16 16s-16-7.2-16-16V368c0-8.8 7.2-16 16-16zm32 80c13.3 0 24-10.7 24-24s-10.7-24-24-24h-16v48h16zm96-80h32c26.5 0 48 21.5 48 48v64c0 26.5-21.5 48-48 48h-32c-8.8 0-16-7.2-16-16V368c0-8.8 7.2-16 16-16zm32 128c8.8 0 16-7.2 16-16v-64c0-8.8-7.2-16-16-16h-16v96h16zm80-112c0-8.8 7.2-16 16-16h48c8.8 0 16 7.2 16 16s-7.2 16-16 16h-32v32h32c8.8 0 16 7.2 16 16s-7.2 16-16 16h-32v48c0 8.8-7.2 16-16 16s-16-7.2-16-16V368z" />
    </symbol>
    <symbol id="icon-pdf-text"
            xmlns="http://www.w3.org/2000/svg"
            xmlns:xlink="http://www.w3.org/1999/xlink"
            version="1.1"
            x="0px"
            y="0px"
            enable-background="new 0 0 256 256"
            xml:space="preserve"
            viewBox="10 85.2 236 85.71">
        <g>
            <g>
                <path fill="currentColor"
                      d="M26.6,136.3V163c0,1.2-0.5,2.7-1.6,4.5c-1.1,1.8-3.2,2.7-6.3,2.8c-3.2,0-5.4-0.8-6.7-2.5c-1.3-1.7-2-3.3-2-4.8v-62.7c0-2.5,0.3-4.6,0.9-6.6c0.6-2,1.6-3.5,3-4.8c1.3-1.3,3.2-2.2,5.4-2.8s4.6-0.9,7-0.9h27.8c2,0,5,0.3,8.9,0.8c3.9,0.5,7.2,1.4,9.9,2.7c2.7,1.3,5.2,3.7,7.6,7c2.4,3.4,3.7,7.2,3.9,11.7c0.3,4.4,0,8.2-0.9,11.4c-1.3,5-3.5,8.7-6.3,11.3c-2.9,2.5-6.2,4.2-10,5.1c-3.8,0.8-8.2,1.3-13.2,1.3L26.6,136.3L26.6,136.3z M26.6,121.7h30.8c2.9,0,5-0.5,6.5-1.6c1.4-1.1,2.5-2.5,3-4.3c0.6-1.8,0.9-3.6,0.9-5.3c-0.1-2.6-0.7-4.7-1.8-6.4c-1.1-1.7-2.5-2.9-4.1-3.6c-1.6-0.6-3.2-1-4.7-1.1H32.4c-1.5,0-2.7,0.2-3.5,0.6s-1.4,0.8-1.8,1.3c-0.3,0.5-0.5,1.5-0.5,3V121.7L26.6,121.7z" />
                <path fill="currentColor"
                      d="M91.1,151.3v-48.6c0-3.2,0.4-5.8,1.1-7.9c0.7-2,2-3.7,3.7-5.1c1.8-1.3,3.8-2.2,6-2.5c2.2-0.3,4.6-0.4,7-0.4h13.5c3.5,0,7.2,0.3,11.3,0.9c4,0.6,8.4,1.9,13.1,3.9c4.7,2,8.7,4.8,12,8.6c3.3,3.8,5.8,8,7.3,12.7s2.3,9.4,2.3,14.2c0,4.8-0.7,9.6-2.1,14.5c-1.7,5.6-3.9,10-6.7,13.2c-2.8,3.3-6.1,6-10,8.4c-3.9,2.3-7.6,3.8-11,4.6c-3.5,0.7-6.6,1.2-9.3,1.5c-2.7,0.3-5,0.4-6.9,0.4h-16.1c-1.3,0-3.4-0.3-6.2-0.8c-2.8-0.5-4.9-1.5-6.2-3.1s-2.2-3.7-2.5-6.5C91.3,156.7,91.1,154,91.1,151.3z M118.5,100.6h-6.3c-0.7,0-1.4,0-2.1,0.1c-0.7,0-1.3,0.3-1.8,0.9c-0.5,0.6-0.8,1.3-0.8,2.3v48.7c0,1.2,0.2,2.2,0.7,3c0.5,0.8,1.5,1.2,3.2,1.1l5.9-0.1c5.6-0.1,9.4-0.2,11.4-0.4c2-0.2,4.6-0.9,7.6-2s5.9-3.1,8.5-5.8c2.6-2.7,4.5-5.8,5.5-9.3c1.1-3.5,1.5-7.5,1.4-12c-0.3-6.2-1.4-11-3.5-14.4c-2.1-3.5-4.6-6-7.5-7.6c-2.9-1.6-5.8-2.7-8.9-3.4C128.9,100.9,124.4,100.6,118.5,100.6z" />
                <path fill="currentColor"
                      d="M191.6,135.1v27.3c0,1.5-0.6,3.3-1.6,5.3c-1.1,2-3.3,3-6.5,3.2c-3.3,0.1-5.4-0.9-6.5-3c-1.1-2.1-1.6-4-1.6-5.6v-60.5c0-2.1,0.3-4.2,0.8-6.3c0.5-2.1,1.4-3.7,2.7-5s3-2.2,5.2-2.9c2.1-0.7,4.5-1,6.9-1h47.5c1.8,0,3.5,0.6,5.1,1.9c1.6,1.3,2.4,3,2.4,5.3c-0.1,3-1,4.9-2.8,5.9c-1.8,1-3.3,1.5-4.6,1.5H197c-2,0-3.3,0.2-3.9,0.7c-0.6,0.5-0.9,0.9-1.1,1.4c-0.2,0.5-0.3,1.5-0.3,3v13.9h46.2c1.6,0,3.3,0.5,5.1,1.6c1.8,1.1,2.7,2.9,2.7,5.5c0,2.6-0.8,4.5-2.6,5.8c-1.8,1.2-3.5,1.8-5.2,1.8L191.6,135.1L191.6,135.1z" />
            </g>
        </g>
    </symbol>
    <symbol id="icon-movie"
            xmlns="http://www.w3.org/2000/svg"
            width="24"
            height="24"
            viewBox="0 0 24 24"
            fill="none"
            stroke="currentColor"
            strokeWidth="2"
            strokeLinecap="round"
            strokeLinejoin="round">
        <rect x="2"
              y="2"
              width="20"
              height="20"
              rx="2.18"
              ry="2.18" />
        <line x1="7"
              y1="2"
              x2="7"
              y2="22" />
        <line x1="17"
              y1="2"
              x2="17"
              y2="22" />
        <line x1="2"
              y1="12"
              x2="22"
              y2="12" />
        <line x1="2"
              y1="7"
              x2="7"
              y2="7" />
        <line x1="2"
              y1="17"
              x2="7"
              y2="17" />
        <line x1="17"
              y1="17"
              x2="22"
              y2="17" />
        <line x1="17"
              y1="7"
              x2="22"
              y2="7" />
    </symbol>
    <symbol id="icon-headphones"
            xmlns="http://www.w3.org/2000/svg"
            viewBox="0 0 24 24"
            fill="none"
            stroke="currentColor"
            strokeWidth="2"
            strokeLinecap="round"
            strokeLinejoin="round">
        <path d="M3 18v-6a9 9 0 0 1 18 0v6" />
        <path d="M21 19a2 2 0 0 1-2 2h-1a2 2 0 0 1-2-2v-3a2 2 0 0 1 2-2h3zM3 19a2 2 0 0 0 2 2h1a2 2 0 0 0 2-2v-3a2 2 0 0 0-2-2H3z" />
    </symbol>
    <symbol id="icon-play"
            xmlns="http://www.w3.org/2000/svg"
            viewBox="0 0 24 24"
            fill="none"
            stroke="currentColor"
            strokeWidth="2"
            strokeLinecap="round"
            strokeLinejoin="round">
        <polygon points="5 3 19 12 5 21 5 3" />
    </symbol>
    <symbol id="icon-play-circle"
            xmlns="http://www.w3.org/2000/svg"
            viewBox="0 0 24 24"
            fill="none"
            stroke="currentColor"
            strokeWidth="2"
            strokeLinecap="round"
            strokeLinejoin="round">
        <circle cx="12"
                cy="12"
                r="10" />
        <polygon points="10 8 16 12 10 16 10 8" />
    </symbol>
    <symbol id="icon-pause"
            xmlns="http://www.w3.org/2000/svg"
            viewBox="0 0 24 24"
            fill="none"
            stroke="currentColor"
            strokeWidth="2"
            strokeLinecap="round"
            strokeLinejoin="round">
        <rect x="6"
              y="4"
              width="4"
              height="16" />
        <rect x="14"
              y="4"
              width="4"
              height="16" />
    </symbol>
    <symbol id="icon-pause-circle"
            xmlns="http://www.w3.org/2000/svg"
            viewBox="0 0 24 24"
            fill="none"
            stroke="currentColor"
            strokeWidth="2"
            strokeLinecap="round"
            strokeLinejoin="round">
        <circle cx="12"
                cy="12"
                r="10" />
        <line x1="10"
              y1="15"
              x2="10"
              y2="9" />
        <line x1="14"
              y1="15"
              x2="14"
              y2="9" />
    </symbol>
    <symbol id="icon-stop"
            xmlns="http://www.w3.org/2000/svg"
            viewBox="0 0 24 24"
            fill="currentColor"
            stroke="currentColor"
            strokeWidth="2"
            strokeLinecap="round"
            strokeLinejoin="round">
        <rect x="3"
              y="3"
              width="18"
              height="18"
              rx="2"
              ry="2" />
    </symbol>
    <symbol id="icon-stop-circle"
            xmlns="http://www.w3.org/2000/svg"
            viewBox="0 0 24 24"
            fill="none"
            stroke="currentColor"
            strokeWidth="2"
            strokeLinecap="round"
            strokeLinejoin="round">
        <circle cx="12"
                cy="12"
                r="10" />
        <rect x="9"
              y="9"
              width="6"
              height="6" />
    </symbol>
    <symbol id="icon-star"
            xmlns="http://www.w3.org/2000/svg"
            viewBox="0 0 24 24"
            fill="none"
            stroke="currentColor"
            strokeWidth="2"
            strokeLinecap="round"
            strokeLinejoin="round">
        <polygon points="12 2 15.09 8.26 22 9.27 17 14.14 18.18 21.02 12 17.77 5.82 21.02 7 14.14 2 9.27 8.91 8.26 12 2" />
    </symbol>
    <symbol id="icon-linkedin"
            xmlns="http://www.w3.org/2000/svg"
            viewBox="0 0 24 24"
            fill="none">
        <path fill-rule="evenodd"
              clipRule="evenodd"
              d="M5 3H19C20.1046 3 21 3.89543 21 5V19C21 20.1046 20.1046 21 19 21H5C3.89543 21 3 20.1046 3 19V5C3 3.89543 3.89543 3 5 3ZM8 18C8.27614 18 8.5 17.7761 8.5 17.5V10.5C8.5 10.2239 8.27614 10 8 10H6.5C6.22386 10 6 10.2239 6 10.5V17.5C6 17.7761 6.22386 18 6.5 18H8ZM7.25 9C6.42157 9 5.75 8.32843 5.75 7.5C5.75 6.67157 6.42157 6 7.25 6C8.07843 6 8.75 6.67157 8.75 7.5C8.75 8.32843 8.07843 9 7.25 9ZM17.5 18C17.7761 18 18 17.7761 18 17.5V12.9C18.0325 11.3108 16.8576 9.95452 15.28 9.76C14.177 9.65925 13.1083 10.1744 12.5 11.1V10.5C12.5 10.2239 12.2761 10 12 10H10.5C10.2239 10 10 10.2239 10 10.5V17.5C10 17.7761 10.2239 18 10.5 18H12C12.2761 18 12.5 17.7761 12.5 17.5V13.75C12.5 12.9216 13.1716 12.25 14 12.25C14.8284 12.25 15.5 12.9216 15.5 13.75V17.5C15.5 17.7761 15.7239 18 16 18H17.5Z"
              fill="CurrentColor" />
    </symbol>
    <symbol id="icon-github"
            xmlns="http://www.w3.org/2000/svg"
            viewBox="0 0 24 24"
            fill="currentColor">
        <path fillRule="evenodd"
              clipRule="evenodd"
              d="M12.026 2c-5.509 0-9.974 4.465-9.974 9.974 0 4.406 2.857 8.145 6.821 9.465.499.09.679-.217.679-.481 0-.237-.008-.865-.011-1.696-2.775.602-3.361-1.338-3.361-1.338-.452-1.152-1.107-1.459-1.107-1.459-.905-.619.069-.605.069-.605 1.002.07 1.527 1.028 1.527 1.028.89 1.524 2.336 1.084 2.902.829.091-.645.351-1.085.635-1.334-2.214-.251-4.542-1.107-4.542-4.93 0-1.087.389-1.979 1.024-2.675-.101-.253-.446-1.268.099-2.64 0 0 .837-.269 2.742 1.021a9.582 9.582 0 0 1 2.496-.336 9.554 9.554 0 0 1 2.496.336c1.906-1.291 2.742-1.021 2.742-1.021.545 1.372.203 2.387.099 2.64.64.696 1.024 1.587 1.024 2.675 0 3.833-2.33 4.675-4.552 4.922.355.308.675.916.675 1.846 0 1.334-.012 2.41-.012 2.737 0 .267.178.577.687.479C19.146 20.115 22 16.379 22 11.974 22 6.465 17.535 2 12.026 2z" />
    </symbol>
</svg>