<svg>
  <!-- Utility -->
  <symbol
    id="icon-close"
    xmlns="http://www.w3.org/2000/svg"
    viewBox="0 0 24 24"
    fill="none"
    stroke="currentColor"
    stroke-width="2"
    stroke-linecap="round"
    stroke-linejoin="round"
  >
    <line x1="18" y1="6" x2="6" y2="18" />
    <line x1="6" y1="6" x2="18" y2="18" />
  </symbol>
  <symbol
    id="icon-search"
    xmlns="http://www.w3.org/2000/svg"
    viewBox="0 0 24 24"
    fill="none"
    stroke="currentColor"
    strokeWidth="2"
    strokeLinecap="round"
    strokeLinejoin="round"
  >
    <circle cx="11" cy="11" r="8" />
    <line x1="21" y1="21" x2="16.65" y2="16.65" />
  </symbol>
  <symbol
    id="icon-info"
    xmlns="http://www.w3.org/2000/svg"
    viewBox="0 0 24 24"
    fill="currentColor"
  >
    <path
      d="M12 2C6.486 2 2 6.486 2 12s4.486 10 10 10 10-4.486 10-10S17.514 2 12 2zm0 18c-4.411 0-8-3.589-8-8s3.589-8 8-8 8 3.589 8 8-3.589 8-8 8z"
    />
    <path d="M11 11h2v6h-2zm0-4h2v2h-2z" />
  </symbol>
  <symbol
    id="icon-more"
    xmlns="http://www.w3.org/2000/svg"
    viewBox="0 0 24 24"
    fill="none"
    stroke="currentColor"
    stroke-width="2"
    stroke-linecap="round"
    stroke-linejoin="round"
  >
    <circle cx="12" cy="12" r="1"></circle>
    <circle cx="19" cy="12" r="1"></circle>
    <circle cx="5" cy="12" r="1"></circle>
  </symbol>
  <symbol
    id="icon-external-link"
    xmlns="http://www.w3.org/2000/svg"
    viewBox="0 0 24 24"
    fill="currentColor"
    role="presentation"
  >
    <path
      d="M21.6 21.6H2.4V2.4h7.2V0H0v24h24v-9.6h-2.4v7.2zM14.4 0v2.4h4.8L7.195 14.49l2.4 2.4L21.6 4.8v4.8H24V0h-9.6z"
    />
  </symbol>
  <symbol
    id="icon-chevron-up"
    xmlns="http://www.w3.org/2000/svg"
    viewBox="0 -960 960 960"
    fill="currentColor"
  >
    <path d="M480-528 296-344l-56-56 240-240 240 240-56 56-184-184Z" />
  </symbol>
  <symbol
    id="icon-chevron-right"
    xmlns="http://www.w3.org/2000/svg"
    viewBox="0 0 320 512"
    fill="currentColor"
  >
    <path
      d="M310.6 233.4c12.5 12.5 12.5 32.8 0 45.3l-192 192c-12.5 12.5-32.8 12.5-45.3 0s-12.5-32.8 0-45.3L242.7 256 73.4 86.6c-12.5-12.5-12.5-32.8 0-45.3s32.8-12.5 45.3 0l192 192z"
    />
  </symbol>
  <symbol
    id="icon-double-chevron-right"
    xmlns="http://www.w3.org/2000/svg"
    viewBox="0 0 24 24"
    fill="none"
    stroke="currentColor"
    stroke-width="2"
    stroke-linecap="round"
    stroke-linejoin="round"
  >
    <polyline points="13 17 18 12 13 7" />
    <polyline points="6 17 11 12 6 7" />
  </symbol>
  <symbol
    id="icon-chevron-down"
    xmlns="http://www.w3.org/2000/svg"
    viewBox="0 0 24 24"
    fill="none"
    stroke="currentColor"
    stroke-width="2"
    stroke-linecap="round"
    stroke-linejoin="round"
  >
    <polyline points="6 9 12 15 18 9" />
  </symbol>
  <symbol
    id="icon-chevron-left"
    xmlns="http://www.w3.org/2000/svg"
    viewBox="0 0 320 512"
    fill="currentColor"
  >
    <path
      d="M9.4 233.4c-12.5 12.5-12.5 32.8 0 45.3l192 192c12.5 12.5 32.8 12.5 45.3 0s12.5-32.8 0-45.3L77.3 256 246.6 86.6c12.5-12.5 12.5-32.8 0-45.3s-32.8-12.5-45.3 0l-192 192z"
    />
  </symbol>
  <symbol
    id="icon-double-chevron-left"
    xmlns="http://www.w3.org/2000/svg"
    viewBox="0 0 24 24"
    fill="none"
    stroke="currentColor"
    stroke-width="2"
    stroke-linecap="round"
    stroke-linejoin="round"
  >
    <polyline points="11 17 6 12 11 7" />
    <polyline points="18 17 13 12 18 7" />
  </symbol>
  <symbol
    id="icon-arrow-right-up"
    xmlns="http://www.w3.org/2000/svg"
    viewBox="0 0 24 24"
    fill="none"
    stroke="currentColor"
    stroke-width="2"
    stroke-linecap="round"
    stroke-linejoin="round"
  >
    <line x1="7" y1="17" x2="17" y2="7"></line>
    <polyline points="7 7 17 7 17 17"></polyline>
  </symbol>
  <symbol
    id="icon-quote"
    xmlns="http://www.w3.org/2000/svg"
    viewBox="0 0 24 24"
    fill="currentColor"
  >
    <path
      d="M9.983 3v7.391c0 5.704-3.731 9.57-8.983 10.609l-.995-2.151c2.432-.917 3.995-3.638 3.995-5.849h-4v-10h9.983zm14.017 0v7.391c0 5.704-3.748 9.571-9 10.609l-.996-2.151c2.433-.917 3.996-3.638 3.996-5.849h-3.983v-10h9.983z"
    />
  </symbol>

  <!-- Authentication -->
  <symbol
    id="icon-user"
    xmlns="http://www.w3.org/2000/svg"
    fill="currentColor"
    viewBox="0 0 24 24"
  >
    <path
      d="M12 2A10.13 10.13 0 0 0 2 12a10 10 0 0 0 4 7.92V20h.1a9.7 9.7 0 0 0 11.8 0h.1v-.08A10 10 0 0 0 22 12 10.13 10.13 0 0 0 12 2zM8.07 18.93A3 3 0 0 1 11 16.57h2a3 3 0 0 1 2.93 2.36 7.75 7.75 0 0 1-7.86 0zm9.54-1.29A5 5 0 0 0 13 14.57h-2a5 5 0 0 0-4.61 3.07A8 8 0 0 1 4 12a8.1 8.1 0 0 1 8-8 8.1 8.1 0 0 1 8 8 8 8 0 0 1-2.39 5.64z"
    />
    <path
      d="M12 6a3.91 3.91 0 0 0-4 4 3.91 3.91 0 0 0 4 4 3.91 3.91 0 0 0 4-4 3.91 3.91 0 0 0-4-4zm0 6a1.91 1.91 0 0 1-2-2 1.91 1.91 0 0 1 2-2 1.91 1.91 0 0 1 2 2 1.91 1.91 0 0 1-2 2z"
    />
  </symbol>
  <symbol
    id="icon-logout"
    xmlns="http://www.w3.org/2000/svg"
    viewBox="0 0 24 24"
    fill="none"
    stroke="currentColor"
    stroke-width="2"
    stroke-linecap="round"
    stroke-linejoin="round"
  >
    <path d="M9 21H5a2 2 0 0 1-2-2V5a2 2 0 0 1 2-2h4" />
    <polyline points="16 17 21 12 16 7" />
    <line x1="21" y1="12" x2="9" y2="12" />
  </symbol>
  <symbol
    id="icon-eye"
    xmlns="http://www.w3.org/2000/svg"
    fill="currentColor"
    viewBox="0 0 16 16"
  >
    <path
      d="M16 8s-3-5.5-8-5.5S0 8 0 8s3 5.5 8 5.5S16 8 16 8M1.173 8a13 13 0 0 1 1.66-2.043C4.12 4.668 5.88 3.5 8 3.5s3.879 1.168 5.168 2.457A13 13 0 0 1 14.828 8q-.086.13-.195.288c-.335.48-.83 1.12-1.465 1.755C11.879 11.332 10.119 12.5 8 12.5s-3.879-1.168-5.168-2.457A13 13 0 0 1 1.172 8z"
    />
    <path
      d="M8 5.5a2.5 2.5 0 1 0 0 5 2.5 2.5 0 0 0 0-5M4.5 8a3.5 3.5 0 1 1 7 0 3.5 3.5 0 0 1-7 0"
    />
  </symbol>
  <symbol
    id="icon-eye-slash"
    xmlns="http://www.w3.org/2000/svg"
    fill="currentColor"
    viewBox="0 0 16 16"
  >
    <path
      d="M13.359 11.238C15.06 9.72 16 8 16 8s-3-5.5-8-5.5a7 7 0 0 0-2.79.588l.77.771A6 6 0 0 1 8 3.5c2.12 0 3.879 1.168 5.168 2.457A13 13 0 0 1 14.828 8q-.086.13-.195.288c-.335.48-.83 1.12-1.465 1.755q-.247.248-.517.486z"
    />
    <path
      d="M11.297 9.176a3.5 3.5 0 0 0-4.474-4.474l.823.823a2.5 2.5 0 0 1 2.829 2.829zm-2.943 1.299.822.822a3.5 3.5 0 0 1-4.474-4.474l.823.823a2.5 2.5 0 0 0 2.829 2.829"
    />
    <path
      d="M3.35 5.47q-.27.24-.518.487A13 13 0 0 0 1.172 8l.195.288c.335.48.83 1.12 1.465 1.755C4.121 11.332 5.881 12.5 8 12.5c.716 0 1.39-.133 2.02-.36l.77.772A7 7 0 0 1 8 13.5C3 13.5 0 8 0 8s.939-1.721 2.641-3.238l.708.709zm10.296 8.884-12-12 .708-.708 12 12z"
    />
  </symbol>
  <symbol
    id="icon-add-image"
    xmlns="http://www.w3.org/2000/svg"
    viewBox="0 0 24 24"
    fill="none"
    stroke="currentColor"
    stroke-width="2"
    stroke-linecap="round"
    stroke-linejoin="round"
    class="feather feather-image"
  >
    <rect x="3" y="3" width="18" height="18" rx="2" ry="2" />
    <circle cx="8.5" cy="8.5" r="1.5" />
    <polyline points="21 15 16 10 5 21" />
  </symbol>

  <!-- Theme Toggle -->
  <symbol
    id="icon-sun"
    xmlns="http://www.w3.org/2000/svg"
    viewBox="0 0 24 24"
    fill="none"
    stroke="currentColor"
    stroke-width="2"
    stroke-linecap="round"
    stroke-linejoin="round"
  >
    <circle cx="12" cy="12" r="5" />
    <line x1="12" y1="1" x2="12" y2="3" />
    <line x1="12" y1="21" x2="12" y2="23" />
    <line x1="4.22" y1="4.22" x2="5.64" y2="5.64" />
    <line x1="18.36" y1="18.36" x2="19.78" y2="19.78" />
    <line x1="1" y1="12" x2="3" y2="12" />
    <line x1="21" y1="12" x2="23" y2="12" />
    <line x1="4.22" y1="19.78" x2="5.64" y2="18.36" />
    <line x1="18.36" y1="5.64" x2="19.78" y2="4.22" />
  </symbol>
  <symbol
    id="icon-moon"
    xmlns="http://www.w3.org/2000/svg"
    viewBox="0 0 24 24"
    fill="none"
    stroke="currentColor"
    stroke-width="2"
    stroke-linecap="round"
    stroke-linejoin="round"
    class="feather feather-moon"
  >
    <path d="M21 12.79A9 9 0 1 1 11.21 3 7 7 0 0 0 21 12.79z" />
  </symbol>

  <!-- Navigation -->
  <symbol
    id="icon-home"
    xmlns="http://www.w3.org/2000/svg"
    fill="none"
    viewBox="0 0 16 16"
  >
    <path
      d="M8.707 1.5a1 1 0 0 0-1.414 0L.646 8.146a.5.5 0 0 0 .708.708L2 8.207V13.5A1.5 1.5 0 0 0 3.5 15h9a1.5 1.5 0 0 0 1.5-1.5V8.207l.646.647a.5.5 0 0 0 .708-.708L13 5.793V2.5a.5.5 0 0 0-.5-.5h-1a.5.5 0 0 0-.5.5v1.293zM13 7.207V13.5a.5.5 0 0 1-.5.5h-9a.5.5 0 0 1-.5-.5V7.207l5-5z"
      stroke="currentColor"
      stroke-width="1"
      stroke-linecap="round"
      stroke-linejoin="round"
    />
  </symbol>
  <symbol
    id="icon-cinema"
    xmlns="http://www.w3.org/2000/svg"
    viewBox="0 0 24 24"
    fill="none"
  >
    <path
      d="M20 20H4C2.9 20 2 19.1 2 18V6C2 4.9 2.9 4 4 4H20C21.1 4 22 4.9 22 6V18C22 19.1 21.1 20 20 20Z"
      stroke="currentColor"
      stroke-width="2"
      stroke-miterlimit="10"
      stroke-linecap="round"
      stroke-linejoin="round"
    />
    <path
      d="M2 9H22"
      stroke="currentColor"
      stroke-width="2"
      stroke-miterlimit="10"
      stroke-linecap="round"
      stroke-linejoin="round"
    />
    <path
      d="M11 9L6 4"
      stroke="currentColor"
      stroke-width="2"
      stroke-miterlimit="10"
      stroke-linecap="round"
      stroke-linejoin="round"
    />
    <path
      d="M18 9L13 4"
      stroke="currentColor"
      stroke-width="2"
      stroke-miterlimit="10"
      stroke-linecap="round"
      stroke-linejoin="round"
    />
  </symbol>
  <symbol
    id="icon-tv"
    viewBox="0 0 24 24"
    fill="none"
    xmlns="http://www.w3.org/2000/svg"
  >
    <path
      d="M4 20H20C21.1 20 22 19.1 22 18V8C22 6.9 21.1 6 20 6H4C2.9 6 2 6.9 2 8V18C2 19.1 2.9 20 4 20Z"
      stroke="currentColor"
      stroke-width="2"
      stroke-miterlimit="10"
      stroke-linecap="round"
      stroke-linejoin="round"
    />
    <path
      d="M12 6L16 2"
      stroke="currentColor"
      stroke-width="2"
      stroke-miterlimit="10"
      stroke-linecap="round"
      stroke-linejoin="round"
    />
    <path
      d="M12 6L8 2"
      stroke="currentColor"
      stroke-width="2"
      stroke-miterlimit="10"
      stroke-linecap="round"
      stroke-linejoin="round"
    />
    <path
      d="M17 11H18"
      stroke="currentColor"
      stroke-width="2"
      stroke-miterlimit="10"
      stroke-linecap="round"
      stroke-linejoin="round"
    />
    <path
      d="M17 15H18"
      stroke="currentColor"
      stroke-width="2"
      stroke-miterlimit="10"
      stroke-linecap="round"
      stroke-linejoin="round"
    />
  </symbol>
  <symbol
    id="icon-video-games"
    xmlns="http://www.w3.org/2000/svg"
    viewBox="0 0 24 24"
    fill="none"
  >
    <path
      d="M7 15V11"
      stroke="currentColor"
      stroke-width="2"
      stroke-miterlimit="10"
      stroke-linecap="round"
      stroke-linejoin="round"
    />
    <path
      d="M5 13H9"
      stroke="currentColor"
      stroke-width="2"
      stroke-miterlimit="10"
      stroke-linecap="round"
      stroke-linejoin="round"
    />
    <path
      d="M17 15C18.1046 15 19 14.1046 19 13C19 11.8954 18.1046 11 17 11C15.8954 11 15 11.8954 15 13C15 14.1046 15.8954 15 17 15Z"
      stroke="currentColor"
      stroke-width="2"
      stroke-miterlimit="10"
      stroke-linecap="round"
      stroke-linejoin="round"
    />
    <path
      d="M12 6V2"
      stroke="currentColor"
      stroke-width="2"
      stroke-miterlimit="10"
      stroke-linecap="round"
      stroke-linejoin="round"
    />
    <path
      d="M23 8V15.17C23 15.7 22.79 16.21 22.41 16.58L19.58 19.41C19.21 19.79 18.7 20 18.17 20H5.83C5.3 20 4.79 19.79 4.42 19.41L1.59 16.58C1.21 16.21 1 15.7 1 15.17V8C1 6.9 1.9 6 3 6H21C22.1 6 23 6.9 23 8Z"
      stroke="currentColor"
      stroke-width="2"
      stroke-miterlimit="10"
      stroke-linecap="round"
      stroke-linejoin="round"
    />
  </symbol>
  <symbol
    id="icon-classical"
    xmlns="http://www.w3.org/2000/svg"
    fill="currentColor"
    viewBox="0 0 16 16"
  >
    <path
      d="M11 6.64a1 1 0 0 0-1.243-.97l-1 .25A1 1 0 0 0 8 6.89v4.306A2.572 2.572 0 0 0 7 11c-.5 0-.974.134-1.338.377-.36.24-.662.628-.662 1.123s.301.883.662 1.123c.364.243.839.377 1.338.377.5 0 .974-.134 1.338-.377.36-.24.662-.628.662-1.123V8.89l2-.5V6.64z"
    />
    <path
      d="M14 14V4.5L9.5 0H4a2 2 0 0 0-2 2v12a2 2 0 0 0 2 2h8a2 2 0 0 0 2-2M9.5 3A1.5 1.5 0 0 0 11 4.5h2V14a1 1 0 0 1-1 1H4a1 1 0 0 1-1-1V2a1 1 0 0 1 1-1h5.5z"
    />
  </symbol>

  <!-- Home Page -->
  <symbol
    id="icon-discover"
    viewBox="0 0 24 24"
    fill="none"
    xmlns="http://www.w3.org/2000/svg"
  >
    <path
      d="M12 3L14.0357 8.16153C14.2236 8.63799 14.3175 8.87622 14.4614 9.0771C14.5889 9.25516 14.7448 9.41106 14.9229 9.53859C15.1238 9.68245 15.362 9.77641 15.8385 9.96432L21 12L15.8385 14.0357C15.362 14.2236 15.1238 14.3175 14.9229 14.4614C14.7448 14.5889 14.5889 14.7448 14.4614 14.9229C14.3175 15.1238 14.2236 15.362 14.0357 15.8385L12 21L9.96432 15.8385C9.77641 15.362 9.68245 15.1238 9.53859 14.9229C9.41106 14.7448 9.25516 14.5889 9.0771 14.4614C8.87622 14.3175 8.63799 14.2236 8.16153 14.0357L3 12L8.16153 9.96432C8.63799 9.77641 8.87622 9.68245 9.0771 9.53859C9.25516 9.41106 9.41106 9.25516 9.53859 9.0771C9.68245 8.87622 9.77641 8.63799 9.96432 8.16153L12 3Z"
      stroke="currentColor"
      stroke-width="2"
      stroke-linecap="round"
      stroke-linejoin="round"
    />
  </symbol>
  <symbol
    id="icon-rocket"
    viewBox="0 0 512 512"
    version="1.1"
    xmlns="http://www.w3.org/2000/svg"
    xmlns:xlink="http://www.w3.org/1999/xlink"
  >
    <g stroke="none" stroke-width="1" fill="none" fill-rule="evenodd">
      <g fill="currentColor">
        <path
          d="M405.333333,1.42108547e-14 C396.316305,122.794806 364.316305,211.683695 309.333333,266.666667 C299.582265,276.417735 288.905446,285.33185 277.302879,293.409011 L277.302464,341.234872 L213.302464,405.234872 L174.248,336.891 L68.525,231.157 L7.10542736e-15,192 L64,128 L112.079613,128.000404 C120.083859,116.387258 128.94621,105.720457 138.666667,96 C193.649638,41.0170286 282.538527,9.01702859 405.333333,1.42108547e-14 Z M357.333333,47.9786667 L348.203556,49.3631108 C266.32942,62.2476147 206.763982,88.2424635 168.836556,126.169889 C146.004433,149.002012 128.637057,178.732412 116.876114,215.881246 L116.096,218.389333 L187.584,289.877333 L191.120585,288.76541 C224.531258,277.548675 251.975141,261.807487 273.818948,241.632769 L279.163444,236.496777 C317.09087,198.569351 343.085719,139.003914 355.970222,57.1297769 L357.333333,47.9786667 Z M75.9901363,269.368015 L30.7353023,314.622849 L0.565412939,284.452959 L45.8202469,239.198125 L75.9901363,269.368015 Z M121.24497,314.622849 L45.8202469,390.047572 L15.6503576,359.877683 L91.0750809,284.452959 L121.24497,314.622849 Z M136.329915,329.707793 L166.499804,359.877683 L121.24497,405.132517 L91.0750809,374.962627 L136.329915,329.707793 Z M245.333333,128 C263.006445,128 277.333333,142.326888 277.333333,160 C277.333333,177.673112 263.006445,192 245.333333,192 C227.660221,192 213.333333,177.673112 213.333333,160 C213.333333,142.326888 227.660221,128 245.333333,128 Z"
          id="Combined-Shape"
        ></path>
      </g>
    </g>
  </symbol>
  <symbol
    id="icon-accessibility"
    viewBox="0 0 24 24"
    fill="none"
    xmlns="http://www.w3.org/2000/svg"
  >
    <circle cx="12" cy="12" r="10" stroke="currentColor" stroke-width="1.5" />
    <path
      d="M14 7C14 8.10457 13.1046 9 12 9C10.8954 9 10 8.10457 10 7C10 5.89543 10.8954 5 12 5C13.1046 5 14 5.89543 14 7Z"
      stroke="currentColor"
      stroke-width="1.5"
    />
    <path
      d="M18 10C18 10 14.4627 11.5 12 11.5C9.53727 11.5 6 10 6 10"
      stroke="currentColor"
      stroke-width="1.5"
      stroke-linecap="round"
    />
    <path
      d="M12 12V13.4522M12 13.4522C12 14.0275 12.1654 14.5906 12.4765 15.0745L15 19M12 13.4522C12 14.0275 11.8346 14.5906 11.5235 15.0745L9 19"
      stroke="currentColor"
      stroke-width="1.5"
      stroke-linecap="round"
    />
  </symbol>
  <symbol
    id="icon-adventure"
    viewBox="0 0 24 24"
    fill="none"
    xmlns="http://www.w3.org/2000/svg"
  >
    <path
      fill-rule="evenodd"
      clip-rule="evenodd"
      d="M10.9965 4.00001C11.4368 3.99846 11.8263 4.28508 11.9558 4.70591L15.1231 14.9997L18.0715 7.62861C18.1964 7.31651 18.4697 7.08801 18.7989 7.02042C19.1282 6.95284 19.4694 7.0552 19.7071 7.29289L22.7071 10.2929C23.0976 10.6834 23.0976 11.3166 22.7071 11.7071C22.3166 12.0976 21.6834 12.0976 21.2929 11.7071L19.3652 9.77946L15.9285 18.3714C15.771 18.765 15.3826 19.0165 14.959 18.9992C14.5355 18.9818 14.1689 18.6992 14.0442 18.2941L11.0121 8.43973L8.95782 15.2873C8.84938 15.6488 8.54667 15.9185 8.17511 15.9845C7.80355 16.0506 7.42643 15.9019 7.2 15.6L5 12.6667L2.8 15.6C2.46863 16.0418 1.84183 16.1314 1.4 15.8C0.95817 15.4686 0.868627 14.8418 1.2 14.4L4.2 10.4C4.38885 10.1482 4.68524 10 5 10C5.31475 10 5.61114 10.1482 5.8 10.4L7.6114 12.8152L10.0422 4.71265C10.1687 4.29092 10.5562 4.00156 10.9965 4.00001Z"
      fill="currentColor"
    />
  </symbol>
  <symbol
    id="icon-piano"
    viewBox="0 0 24 24"
    fill="none"
    xmlns="http://www.w3.org/2000/svg"
  >
    <path
      fill-rule="evenodd"
      clip-rule="evenodd"
      d="M2 8.5C2 4.91015 4.91015 2 8.5 2C12.0899 2 15 4.91015 15 8.5V9.00818C15 9.32411 15.2442 9.58632 15.5593 9.60883L16.4275 9.67084C19.5673 9.89512 22 12.5078 22 15.6556V16V21C22 22.1046 21.1046 23 20 23H4C2.89543 23 2 22.1046 2 21V16V8.5ZM8.5 4C6.01472 4 4 6.01472 4 8.5V15H8H12H16H19.9464C19.6499 13.2048 18.1557 11.7994 16.285 11.6658L15.4168 11.6037C14.055 11.5065 13 10.3734 13 9.00818V8.5C13 6.01472 10.9853 4 8.5 4ZM20 17H17V19C17 19.5523 16.5523 20 16 20C15.4477 20 15 19.5523 15 19V17H13V19C13 19.5523 12.5523 20 12 20C11.4477 20 11 19.5523 11 19V17H9V19C9 19.5523 8.55228 20 8 20C7.44772 20 7 19.5523 7 19V17H4V21H20V17Z"
      fill="currentColor"
    />
  </symbol>

  <symbol
    id="icon-patience"
    viewBox="0 0 24 24"
    fill="none"
    xmlns="http://www.w3.org/2000/svg"
  >
    <path
      d="M14.5 4.5C14.5 5.88071 13.3807 7 12 7C10.6193 7 9.5 5.88071 9.5 4.5C9.5 3.11929 10.6193 2 12 2C13.3807 2 14.5 3.11929 14.5 4.5Z"
      stroke="currentColor"
      stroke-width="1.5"
    />
    <path
      d="M3 17L5.58887 15.6918C5.84084 15.5645 6 15.3043 6 15.0196C6 12.0802 8.1377 9.56573 11.0067 9.0825C11.6598 8.9725 12.3402 8.9725 12.9933 9.0825C15.8623 9.56573 18 12.0802 18 15.0196C18 15.3043 18.1592 15.5645 18.4111 15.6918L21 17"
      stroke="currentColor"
      stroke-width="1.5"
      stroke-linecap="round"
      stroke-linejoin="round"
    />
    <path
      d="M9.5 16L8.45827 17.389C8.42647 17.4314 8.41057 17.4526 8.39456 17.4728C8.13149 17.8053 7.76956 18.0456 7.36102 18.1591C7.33616 18.166 7.31042 18.1724 7.25902 18.1852L5.77423 18.5564C4.7315 18.8171 4 19.754 4 20.8288C4 21.4757 4.52435 22 5.17116 22H6.72727C7.32654 22 7.62617 22 7.917 21.9658C8.59721 21.8859 9.25375 21.667 9.84589 21.3229C10.0991 21.1757 10.3388 20.9959 10.8182 20.6364L11 20.5M11 20.5L13 19M11 20.5L13.5397 21.4524C14.1491 21.6809 14.4539 21.7952 14.7688 21.8688C14.9318 21.9069 15.0966 21.9368 15.2625 21.9583C15.5832 22 15.9087 22 16.5596 22H18.8288C19.4757 22 20 21.4757 20 20.8288C20 19.754 19.2685 18.8171 18.2258 18.5564L16.741 18.1852C16.6896 18.1724 16.6638 18.166 16.639 18.1591C16.2304 18.0456 15.8685 17.8053 15.6054 17.4728C15.5895 17.4526 15.5735 17.4313 15.5417 17.389L14.5 16"
      stroke="currentColor"
      stroke-width="1.5"
      stroke-linecap="round"
      stroke-linejoin="round"
    />
  </symbol>
  <symbol
    id="icon-slow"
    viewBox="0 0 28 28"
    fill="none"
    xmlns="http://www.w3.org/2000/svg"
  >
    <path
      d="M12.7201 5.00058C10.5554 5.00058 9.01215 5.65616 7.90342 6.76126C6.8225 7.83864 6.22656 9.27421 5.79786 10.6926L5.09996 13.0017H2.75244C2.33823 13.0017 2.00244 13.3375 2.00244 13.7517C2.00244 15.0958 2.76576 16.2357 3.87482 16.8523L3.286 18.2844C2.8733 19.2882 3.351 20.4379 4.35504 20.8518C4.59247 20.9497 4.84678 21 5.1036 21H7.29769C8.05963 21 8.75239 20.5594 9.07629 19.8701L9.78265 18.3668C11.7527 18.6396 13.7511 18.6428 15.7219 18.3764L16.4237 19.8701C16.7476 20.5594 17.4404 21 18.2023 21H20.3745C20.6317 21 20.8863 20.9495 21.124 20.8514C22.1278 20.437 22.6049 19.2871 22.1917 18.2835L21.6633 17H24C25.0127 17 26.0002 16.2165 26.0002 15.114V14C26.0002 12.2943 24.5196 11.0029 22.8184 11.0029H19.8693L19.7752 10.692C19.3422 9.26077 18.7117 7.82696 17.5966 6.75227C16.4579 5.65483 14.8869 5.00058 12.7201 5.00058ZM21.2299 15.5L20.3231 12.5029H22.8184C23.8033 12.5029 24.5002 13.2306 24.5002 14V15.114C24.5002 15.2491 24.3304 15.5 24 15.5H21.2299ZM20.1625 17.2947L20.8047 18.8546C20.9032 19.0939 20.789 19.3669 20.5516 19.4649C20.4954 19.4881 20.4353 19.5 20.3745 19.5H18.2023C18.0225 19.5 17.8583 19.3961 17.7813 19.2322L17.2556 18.1132C18.2376 17.9086 19.2089 17.6358 20.1625 17.2947ZM8.25116 18.0989L7.71869 19.2322C7.64168 19.3961 7.47745 19.5 7.29769 19.5H5.1036C5.04295 19.5 4.98286 19.4881 4.92673 19.465C4.68931 19.3671 4.57492 19.0942 4.67332 18.8548L5.30601 17.316C5.38045 17.325 5.45547 17.3319 5.531 17.3368C6.42437 17.6505 7.33303 17.9046 8.25116 18.0989ZM4.6466 14.5017L4.37549 15.3987C4.05269 15.1646 3.8034 14.8534 3.65535 14.5017H4.6466ZM7.23372 11.1266C7.64132 9.77797 8.1493 8.63403 8.96234 7.82366C9.74757 7.041 10.8883 6.50058 12.7201 6.50058C14.5569 6.50058 15.7359 7.04217 16.5557 7.8323C17.3991 8.64519 17.9354 9.79069 18.3395 11.1264L19.7665 15.843C15.2585 17.4842 10.3162 17.4842 5.80825 15.8429L7.23372 11.1266Z"
      fill="currentColor"
    />
  </symbol>

  <!-- Music Files -->
  <symbol
    id="icon-midi"
    xmlns="http://www.w3.org/2000/svg"
    xmlns:xlink="http://www.w3.org/1999/xlink"
    fill="currentColor"
    version="1.1"
    xml:space="preserve"
    viewBox="31.36 0 485.57 548.29"
  >
    <g>
      <path
        d="M486.201,196.116h-13.166V132.59c0-0.399-0.062-0.795-0.115-1.2c-0.021-2.522-0.825-5-2.552-6.96L364.657,3.677   c-0.033-0.034-0.064-0.044-0.085-0.075c-0.63-0.704-1.364-1.292-2.143-1.796c-0.229-0.157-0.461-0.286-0.702-0.419   c-0.672-0.365-1.387-0.672-2.121-0.893c-0.2-0.052-0.379-0.134-0.577-0.188C358.23,0.118,357.401,0,356.562,0H96.757   C84.894,0,75.256,9.649,75.256,21.502v174.613H62.092c-16.971,0-30.732,13.756-30.732,30.73v159.81   c0,16.966,13.761,30.736,30.732,30.736h13.164V526.79c0,11.854,9.638,21.501,21.501,21.501h354.776   c11.853,0,21.501-9.647,21.501-21.501V417.392h13.166c16.966,0,30.729-13.764,30.729-30.731V226.854   C516.93,209.872,503.167,196.116,486.201,196.116z M96.757,21.502h249.054v110.006c0,5.94,4.817,10.751,10.751,10.751h94.972   v53.861H96.757V21.502z M310.14,237.605v141.036h-32.016V237.605H310.14z M253.667,378.652h-31.184l-2.097-53.985   c-0.622-16.946-1.252-37.466-1.252-57.967h-0.622c-4.394,17.998-10.257,38.082-15.704,54.617l-17.147,55.029h-24.903   l-15.074-54.608c-4.602-16.526-9.413-36.632-12.756-55.038H132.5c-0.829,19.037-1.456,40.812-2.506,58.386l-2.509,53.566H97.978   l9-141.042h42.481l13.798,47.087c4.391,16.314,8.795,33.9,11.934,50.425h0.628c3.979-16.314,8.795-34.939,13.391-50.636   l15.066-46.876h41.643L253.667,378.652z M451.534,520.962H96.757v-103.57h354.776V520.962z M439.041,361.894   c-14.873,12.363-37.461,18.222-65.082,18.222c-16.531,0-28.254-1.046-36.206-2.095V239.484c11.733-1.879,26.998-2.919,43.114-2.919   c26.776,0,44.152,4.811,57.753,15.069c14.657,10.874,23.858,28.245,23.858,53.148C462.467,331.78,452.63,350.398,439.041,361.894z"
      />
      <path
        d="M384.214,261.051c-7.118,0-11.732,0.627-14.446,1.247v92.286c2.714,0.629,7.112,0.629,11.088,0.629   c28.87,0.199,47.706-15.696,47.706-49.392C428.783,276.528,411.623,261.051,384.214,261.051z"
      />
    </g>
  </symbol>
  <symbol
    id="icon-midi-text"
    xmlns="http://www.w3.org/2000/svg"
    viewBox="0 0 24 24"
  >
    <path
      fill="currentColor"
      d="M20.15 8.26H22v7.48h-1.85M13 8.26h5.43c.57 0 .87.48.87 1.04v5.51c0 .69-.3.93-.92.93H13V11h1.87v2.91h2.63V9.95H13m-2.68-1.69h1.82v7.48h-1.82M2 8.26h6.55c.55 0 .86.48.86 1.04v6.44H7.59v-5.59H6.5v5.59H4.87v-5.59H3.83v5.59H2Z"
    />
  </symbol>
  <symbol
    id="icon-pdf"
    xmlns="http://www.w3.org/2000/svg"
    viewBox="0 0 512 512"
  >
    <path
      fill="currentColor"
      d="M64 464h48v48H64c-35.3 0-64-28.7-64-64V64C0 28.7 28.7 0 64 0h165.5c17 0 33.3 6.7 45.3 18.7l90.5 90.5c12 12 18.7 28.3 18.7 45.3V304h-48V160h-80c-17.7 0-32-14.3-32-32V48H64c-8.8 0-16 7.2-16 16v384c0 8.8 7.2 16 16 16zm112-112h32c30.9 0 56 25.1 56 56s-25.1 56-56 56h-16v32c0 8.8-7.2 16-16 16s-16-7.2-16-16V368c0-8.8 7.2-16 16-16zm32 80c13.3 0 24-10.7 24-24s-10.7-24-24-24h-16v48h16zm96-80h32c26.5 0 48 21.5 48 48v64c0 26.5-21.5 48-48 48h-32c-8.8 0-16-7.2-16-16V368c0-8.8 7.2-16 16-16zm32 128c8.8 0 16-7.2 16-16v-64c0-8.8-7.2-16-16-16h-16v96h16zm80-112c0-8.8 7.2-16 16-16h48c8.8 0 16 7.2 16 16s-7.2 16-16 16h-32v32h32c8.8 0 16 7.2 16 16s-7.2 16-16 16h-32v48c0 8.8-7.2 16-16 16s-16-7.2-16-16V368z"
    />
  </symbol>
  <symbol
    id="icon-pdf-text"
    xmlns="http://www.w3.org/2000/svg"
    xmlns:xlink="http://www.w3.org/1999/xlink"
    version="1.1"
    x="0px"
    y="0px"
    enable-background="new 0 0 256 256"
    xml:space="preserve"
    viewBox="10 85.2 236 85.71"
  >
    <g>
      <g>
        <path
          fill="currentColor"
          d="M26.6,136.3V163c0,1.2-0.5,2.7-1.6,4.5c-1.1,1.8-3.2,2.7-6.3,2.8c-3.2,0-5.4-0.8-6.7-2.5c-1.3-1.7-2-3.3-2-4.8v-62.7c0-2.5,0.3-4.6,0.9-6.6c0.6-2,1.6-3.5,3-4.8c1.3-1.3,3.2-2.2,5.4-2.8s4.6-0.9,7-0.9h27.8c2,0,5,0.3,8.9,0.8c3.9,0.5,7.2,1.4,9.9,2.7c2.7,1.3,5.2,3.7,7.6,7c2.4,3.4,3.7,7.2,3.9,11.7c0.3,4.4,0,8.2-0.9,11.4c-1.3,5-3.5,8.7-6.3,11.3c-2.9,2.5-6.2,4.2-10,5.1c-3.8,0.8-8.2,1.3-13.2,1.3L26.6,136.3L26.6,136.3z M26.6,121.7h30.8c2.9,0,5-0.5,6.5-1.6c1.4-1.1,2.5-2.5,3-4.3c0.6-1.8,0.9-3.6,0.9-5.3c-0.1-2.6-0.7-4.7-1.8-6.4c-1.1-1.7-2.5-2.9-4.1-3.6c-1.6-0.6-3.2-1-4.7-1.1H32.4c-1.5,0-2.7,0.2-3.5,0.6s-1.4,0.8-1.8,1.3c-0.3,0.5-0.5,1.5-0.5,3V121.7L26.6,121.7z"
        />
        <path
          fill="currentColor"
          d="M91.1,151.3v-48.6c0-3.2,0.4-5.8,1.1-7.9c0.7-2,2-3.7,3.7-5.1c1.8-1.3,3.8-2.2,6-2.5c2.2-0.3,4.6-0.4,7-0.4h13.5c3.5,0,7.2,0.3,11.3,0.9c4,0.6,8.4,1.9,13.1,3.9c4.7,2,8.7,4.8,12,8.6c3.3,3.8,5.8,8,7.3,12.7s2.3,9.4,2.3,14.2c0,4.8-0.7,9.6-2.1,14.5c-1.7,5.6-3.9,10-6.7,13.2c-2.8,3.3-6.1,6-10,8.4c-3.9,2.3-7.6,3.8-11,4.6c-3.5,0.7-6.6,1.2-9.3,1.5c-2.7,0.3-5,0.4-6.9,0.4h-16.1c-1.3,0-3.4-0.3-6.2-0.8c-2.8-0.5-4.9-1.5-6.2-3.1s-2.2-3.7-2.5-6.5C91.3,156.7,91.1,154,91.1,151.3z M118.5,100.6h-6.3c-0.7,0-1.4,0-2.1,0.1c-0.7,0-1.3,0.3-1.8,0.9c-0.5,0.6-0.8,1.3-0.8,2.3v48.7c0,1.2,0.2,2.2,0.7,3c0.5,0.8,1.5,1.2,3.2,1.1l5.9-0.1c5.6-0.1,9.4-0.2,11.4-0.4c2-0.2,4.6-0.9,7.6-2s5.9-3.1,8.5-5.8c2.6-2.7,4.5-5.8,5.5-9.3c1.1-3.5,1.5-7.5,1.4-12c-0.3-6.2-1.4-11-3.5-14.4c-2.1-3.5-4.6-6-7.5-7.6c-2.9-1.6-5.8-2.7-8.9-3.4C128.9,100.9,124.4,100.6,118.5,100.6z"
        />
        <path
          fill="currentColor"
          d="M191.6,135.1v27.3c0,1.5-0.6,3.3-1.6,5.3c-1.1,2-3.3,3-6.5,3.2c-3.3,0.1-5.4-0.9-6.5-3c-1.1-2.1-1.6-4-1.6-5.6v-60.5c0-2.1,0.3-4.2,0.8-6.3c0.5-2.1,1.4-3.7,2.7-5s3-2.2,5.2-2.9c2.1-0.7,4.5-1,6.9-1h47.5c1.8,0,3.5,0.6,5.1,1.9c1.6,1.3,2.4,3,2.4,5.3c-0.1,3-1,4.9-2.8,5.9c-1.8,1-3.3,1.5-4.6,1.5H197c-2,0-3.3,0.2-3.9,0.7c-0.6,0.5-0.9,0.9-1.1,1.4c-0.2,0.5-0.3,1.5-0.3,3v13.9h46.2c1.6,0,3.3,0.5,5.1,1.6c1.8,1.1,2.7,2.9,2.7,5.5c0,2.6-0.8,4.5-2.6,5.8c-1.8,1.2-3.5,1.8-5.2,1.8L191.6,135.1L191.6,135.1z"
        />
      </g>
    </g>
  </symbol>

  <!-- Audio Player -->
  <symbol
    id="icon-play"
    fill="currentColor"
    xmlns="http://www.w3.org/2000/svg"
    viewBox="0 0 24 24"
  >
    <path d="M7 6v12l10-6z" />
  </symbol>
  <symbol
    id="icon-pause"
    xmlns="http://www.w3.org/2000/svg"
    fill="currentColor"
    viewBox="0 0 24 24"
  >
    <path d="M8 7h3v10H8zm5 0h3v10h-3z" />
  </symbol>
  <symbol
    id="icon-skip-next"
    xmlns="http://www.w3.org/2000/svg"
    fill="currentColor"
    viewBox="0 0 24 24"
  >
    <path d="M7 7v10l7-5zm9 10V7h-2v10z" />
  </symbol>
  <symbol
    id="icon-skip-previous"
    xmlns="http://www.w3.org/2000/svg"
    fill="currentColor"
    viewBox="0 0 24 24"
  >
    <path d="m16 7-7 5 7 5zm-7 5V7H7v10h2z" />
  </symbol>
  <symbol
    id="icon-volume-full"
    xmlns="http://www.w3.org/2000/svg"
    fill="currentColor"
    viewBox="0 0 16 16"
  >
    <path
      d="M11.536 14.01A8.47 8.47 0 0 0 14.026 8a8.47 8.47 0 0 0-2.49-6.01l-.708.707A7.48 7.48 0 0 1 13.025 8c0 2.071-.84 3.946-2.197 5.303z"
    />
    <path
      d="M10.121 12.596A6.48 6.48 0 0 0 12.025 8a6.48 6.48 0 0 0-1.904-4.596l-.707.707A5.48 5.48 0 0 1 11.025 8a5.48 5.48 0 0 1-1.61 3.89z"
    />
    <path
      d="M8.707 11.182A4.5 4.5 0 0 0 10.025 8a4.5 4.5 0 0 0-1.318-3.182L8 5.525A3.5 3.5 0 0 1 9.025 8 3.5 3.5 0 0 1 8 10.475zM6.717 3.55A.5.5 0 0 1 7 4v8a.5.5 0 0 1-.812.39L3.825 10.5H1.5A.5.5 0 0 1 1 10V6a.5.5 0 0 1 .5-.5h2.325l2.363-1.89a.5.5 0 0 1 .529-.06"
    />
  </symbol>
  <symbol
    id="icon-volume-low"
    xmlns="http://www.w3.org/2000/svg"
    fill="currentColor"
    viewBox="0 0 16 16"
  >
    <path
      d="M9 4a.5.5 0 0 0-.812-.39L5.825 5.5H3.5A.5.5 0 0 0 3 6v4a.5.5 0 0 0 .5.5h2.325l2.363 1.89A.5.5 0 0 0 9 12zm3.025 4a4.5 4.5 0 0 1-1.318 3.182L10 10.475A3.5 3.5 0 0 0 11.025 8 3.5 3.5 0 0 0 10 5.525l.707-.707A4.5 4.5 0 0 1 12.025 8"
    />
  </symbol>
  <symbol
    id="icon-volume-mute"
    xmlns="http://www.w3.org/2000/svg"
    fill="currentColor"
    viewBox="0 0 16 16"
  >
    <path
      d="M6.717 3.55A.5.5 0 0 1 7 4v8a.5.5 0 0 1-.812.39L3.825 10.5H1.5A.5.5 0 0 1 1 10V6a.5.5 0 0 1 .5-.5h2.325l2.363-1.89a.5.5 0 0 1 .529-.06m7.137 2.096a.5.5 0 0 1 0 .708L12.207 8l1.647 1.646a.5.5 0 0 1-.708.708L11.5 8.707l-1.646 1.647a.5.5 0 0 1-.708-.708L10.793 8 9.146 6.354a.5.5 0 1 1 .708-.708L11.5 7.293l1.646-1.647a.5.5 0 0 1 .708 0"
    />
  </symbol>
  <symbol
    id="icon-repeat"
    xmlns="http://www.w3.org/2000/svg"
    fill="currentColor"
    viewBox="0 0 16 16"
  >
    <path
      d="M11.534 7h3.932a.25.25 0 0 1 .192.41l-1.966 2.36a.25.25 0 0 1-.384 0l-1.966-2.36a.25.25 0 0 1 .192-.41m-11 2h3.932a.25.25 0 0 0 .192-.41L2.692 6.23a.25.25 0 0 0-.384 0L.342 8.59A.25.25 0 0 0 .534 9"
    />
    <path
      fill-rule="evenodd"
      d="M8 3c-1.552 0-2.94.707-3.857 1.818a.5.5 0 1 1-.771-.636A6.002 6.002 0 0 1 13.917 7H12.9A5 5 0 0 0 8 3M3.1 9a5.002 5.002 0 0 0 8.757 2.182.5.5 0 1 1 .771.636A6.002 6.002 0 0 1 2.083 9z"
    />
  </symbol>
  <symbol
    id="icon-backward-15"
    xmlns="http://www.w3.org/2000/svg"
    fill="currentColor"
    viewBox="0 0.75 15.74 15.25"
  >
    <path
      d="M2.464 4.5h1.473a.75.75 0 1 1 0 1.5H0V2.063a.75.75 0 0 1 1.5 0v1.27a8.25 8.25 0 1 1 10.539 12.554.75.75 0 0 1-.828-1.25A6.75 6.75 0 1 0 2.464 4.5z"
    />
    <path
      d="M.303 8.407c.79 0 1.214-.52 1.214-.907h1.5v8h-1.5V9.907H0v-1.5h.303zm4.832-.911h4.05v1.5H6.33l-.245 1.067c.256-.071.525-.11.804-.11 1.621 0 2.954 1.3 2.954 2.924C9.843 14.5 8.51 15.8 6.89 15.8a2.945 2.945 0 0 1-2.93-2.54l1.487-.197c.092.69.696 1.237 1.443 1.237.813 0 1.454-.647 1.454-1.423s-.64-1.423-1.454-1.423c-.49 0-.92.235-1.183.594l-.01.014-.206.254-1.314-.639.96-4.181z"
    />
  </symbol>
  <symbol
    id="icon-forward-15"
    xmlns="http://www.w3.org/2000/svg"
    fill="currentColor"
    viewBox="0.25 0.75 15.75 15.28"
  >
    <path
      d="M13.536 4.5h-1.473a.75.75 0 1 0 0 1.5H16V2.063a.75.75 0 0 0-1.5 0v1.27A8.25 8.25 0 1 0 3.962 15.887a.75.75 0 1 0 .827-1.25A6.75 6.75 0 1 1 13.535 4.5z"
    />
    <path
      d="M6.303 8.407c.79 0 1.214-.52 1.214-.907h1.5v8h-1.5V9.907H6v-1.5h.303zm4.832-.911h4.05v1.5H12.33l-.245 1.067c.256-.071.525-.11.804-.11 1.621 0 2.954 1.3 2.954 2.924 0 1.624-1.333 2.923-2.954 2.923a2.945 2.945 0 0 1-2.93-2.54l1.487-.197c.092.69.696 1.237 1.443 1.237.813 0 1.454-.647 1.454-1.423s-.64-1.423-1.454-1.423c-.49 0-.92.235-1.183.594l-.01.014-.206.254-1.314-.639.96-4.181z"
    />
  </symbol>

  <!--Social -->
  <symbol
    id="icon-linkedin"
    xmlns="http://www.w3.org/2000/svg"
    viewBox="0 0 24 24"
    fill="none"
  >
    <path
      fill-rule="evenodd"
      clipRule="evenodd"
      d="M5 3H19C20.1046 3 21 3.89543 21 5V19C21 20.1046 20.1046 21 19 21H5C3.89543 21 3 20.1046 3 19V5C3 3.89543 3.89543 3 5 3ZM8 18C8.27614 18 8.5 17.7761 8.5 17.5V10.5C8.5 10.2239 8.27614 10 8 10H6.5C6.22386 10 6 10.2239 6 10.5V17.5C6 17.7761 6.22386 18 6.5 18H8ZM7.25 9C6.42157 9 5.75 8.32843 5.75 7.5C5.75 6.67157 6.42157 6 7.25 6C8.07843 6 8.75 6.67157 8.75 7.5C8.75 8.32843 8.07843 9 7.25 9ZM17.5 18C17.7761 18 18 17.7761 18 17.5V12.9C18.0325 11.3108 16.8576 9.95452 15.28 9.76C14.177 9.65925 13.1083 10.1744 12.5 11.1V10.5C12.5 10.2239 12.2761 10 12 10H10.5C10.2239 10 10 10.2239 10 10.5V17.5C10 17.7761 10.2239 18 10.5 18H12C12.2761 18 12.5 17.7761 12.5 17.5V13.75C12.5 12.9216 13.1716 12.25 14 12.25C14.8284 12.25 15.5 12.9216 15.5 13.75V17.5C15.5 17.7761 15.7239 18 16 18H17.5Z"
      fill="CurrentColor"
    />
  </symbol>
  <symbol
    id="icon-github"
    xmlns="http://www.w3.org/2000/svg"
    viewBox="0 0 24 24"
    fill="currentColor"
  >
    <path
      fillRule="evenodd"
      clipRule="evenodd"
      d="M12.026 2c-5.509 0-9.974 4.465-9.974 9.974 0 4.406 2.857 8.145 6.821 9.465.499.09.679-.217.679-.481 0-.237-.008-.865-.011-1.696-2.775.602-3.361-1.338-3.361-1.338-.452-1.152-1.107-1.459-1.107-1.459-.905-.619.069-.605.069-.605 1.002.07 1.527 1.028 1.527 1.028.89 1.524 2.336 1.084 2.902.829.091-.645.351-1.085.635-1.334-2.214-.251-4.542-1.107-4.542-4.93 0-1.087.389-1.979 1.024-2.675-.101-.253-.446-1.268.099-2.64 0 0 .837-.269 2.742 1.021a9.582 9.582 0 0 1 2.496-.336 9.554 9.554 0 0 1 2.496.336c1.906-1.291 2.742-1.021 2.742-1.021.545 1.372.203 2.387.099 2.64.64.696 1.024 1.587 1.024 2.675 0 3.833-2.33 4.675-4.552 4.922.355.308.675.916.675 1.846 0 1.334-.012 2.41-.012 2.737 0 .267.178.577.687.479C19.146 20.115 22 16.379 22 11.974 22 6.465 17.535 2 12.026 2z"
    />
  </symbol>

  <!-- Gaming Platforms -->
  <symbol
    id="icon-playstation"
    xmlns="http://www.w3.org/2000/svg"
    viewBox="0 0 21 16"
  >
    <path
      d="M11.112 16L8 14.654V0s6.764 1.147 7.695 3.987c.931 2.842-.52 4.682-1.03 4.736-1.42.15-1.96-.748-1.96-.748V3.39l-1.544-.648L11.112 16zM12 14.32V16s7.666-2.338 8.794-3.24c1.128-.9-2.641-3.142-4.666-2.704 0 0-2.152.099-4.102.901-.019.008 0 1.51 0 1.51l4.948-1.095 1.743.73L12 14.32zm-5.024-.773s-.942.476-3.041.452c-2.1-.024-3.959-.595-3.935-1.833C.024 10.928 3.476 9.571 6.952 9v1.738l-3.693.952s-.632.786.217.81A11.934 11.934 0 007 12.046l-.024 1.5z"
      fill="currentColor"
    />
  </symbol>
  <symbol id="icon-xbox" xmlns="http://www.w3.org/2000/svg" viewBox="0 0 16 16">
    <path
      fill="currentColor"
      d="M3.564 1.357l-.022.02c.046-.048.11-.1.154-.128C4.948.435 6.396 0 8 0c1.502 0 2.908.415 4.11 1.136.086.052.324.215.446.363C11.4.222 7.993 2.962 7.993 2.962c-1.177-.908-2.26-1.526-3.067-1.746-.674-.185-1.14-.03-1.362.141zm10.305 1.208c-.035-.04-.074-.076-.109-.116-.293-.322-.653-.4-.978-.378-.295.092-1.66.584-3.342 2.172 0 0 1.894 1.841 3.053 3.723 1.159 1.883 1.852 3.362 1.426 5.415A7.969 7.969 0 0016 7.999a7.968 7.968 0 00-2.13-5.434zM10.98 8.77a55.416 55.416 0 00-2.287-2.405 52.84 52.84 0 00-.7-.686l-.848.854c-.614.62-1.411 1.43-1.853 1.902-.787.84-3.043 3.479-3.17 4.958 0 0-.502-1.174.6-3.88.72-1.769 2.893-4.425 3.801-5.29 0 0-.83-.913-1.87-1.544l-.007-.002s-.011-.009-.03-.02c-.5-.3-1.047-.53-1.573-.56a1.391 1.391 0 00-.878.431A8 8 0 0013.92 13.381c0-.002-.169-1.056-1.245-2.57-.253-.354-1.178-1.46-1.696-2.04z"
    />
  </symbol>
  <symbol id="icon-pc" xmlns="http://www.w3.org/2000/svg" viewBox="0 0 16 16">
    <path
      d="M0 13.772l6.545.902V8.426H0zM0 7.62h6.545V1.296L0 2.198zm7.265 7.15l8.704 1.2V8.425H7.265zm0-13.57v6.42h8.704V0z"
      fill="currentColor"
    />
  </symbol>
  <symbol
    id="icon-nintendo"
    xmlns="http://www.w3.org/2000/svg"
    viewBox="0 0 21 16"
  >
    <path
      fill="currentColor"
      fill-rule="evenodd"
      d="M8 0h5a8 8 0 110 16H8A8 8 0 118 0zm-.135 1.935a6.065 6.065 0 000 12.13h5.12a6.065 6.065 0 000-12.13h-5.12zm-1.33 2.304h2.401l3.199 5.175V4.24h2.346v7.495H12.18L8.864 6.537v5.201H6.53l.005-7.499z"
    />
  </symbol>
  <symbol id="icon-mac" xmlns="http://www.w3.org/2000/svg" viewBox="0 0 15 18">
    <path
      d="M10.869 0h.127c.102 1.26-.379 2.202-.963 2.884-.574.677-1.359 1.334-2.629 1.234-.084-1.242.397-2.114.98-2.794C8.927.69 9.919.126 10.87 0zm3.756 13.196v.036a10.534 10.534 0 01-1.494 2.899c-.57.789-1.267 1.85-2.513 1.85-1.077 0-1.792-.696-2.896-.715-1.167-.02-1.81.583-2.877.734h-.364c-.783-.114-1.416-.74-1.877-1.302A11.452 11.452 0 010 10.134v-.808c.083-1.969 1.033-3.57 2.295-4.345.667-.413 1.583-.764 2.603-.607.437.068.884.219 1.275.368.371.144.835.398 1.275.385.298-.009.594-.165.894-.275.88-.32 1.74-.687 2.877-.514 1.365.207 2.334.818 2.933 1.76-1.155.74-2.068 1.855-1.912 3.76.138 1.73 1.137 2.742 2.385 3.338z"
      fill="currentColor"
    />
  </symbol>
  <symbol
    id="icon-platforms"
    xmlns="http://www.w3.org/2000/svg"
    viewBox="0 -960 960 960"
    fill="currentColor"
  >
    <path
      d="M182-200q-51 0-79-35.5T82-322l42-300q9-60 53.5-99T282-760h396q60 0 104.5 39t53.5 99l42 300q7 51-21 86.5T778-200q-21 0-39-7.5T706-230l-90-90H344l-90 90q-15 15-33 22.5t-39 7.5Zm16-86 114-114h336l114 114q2 2 16 6 11 0 17.5-6.5T800-304l-44-308q-4-29-26-48.5T678-680H282q-30 0-52 19.5T204-612l-44 308q-2 11 4.5 17.5T182-280q2 0 16-6Zm482-154q17 0 28.5-11.5T720-480q0-17-11.5-28.5T680-520q-17 0-28.5 11.5T640-480q0 17 11.5 28.5T680-440Zm-80-120q17 0 28.5-11.5T640-600q0-17-11.5-28.5T600-640q-17 0-28.5 11.5T560-600q0 17 11.5 28.5T600-560ZM310-440h60v-70h70v-60h-70v-70h-60v70h-70v60h70v70Zm170-40Z"
    />
  </symbol>

  <!-- Details -->
  <symbol
    id="icon-country"
    xmlns="http://www.w3.org/2000/svg"
    viewBox="0 -960 960 960"
    fill="currentColor"
  >
    <path
      d="M480-80q-83 0-156-31.5T197-197q-54-54-85.5-127T80-480q0-83 31.5-156T197-763q54-54 127-85.5T480-880q83 0 156 31.5T763-763q54 54 85.5 127T880-480q0 83-31.5 156T763-197q-54 54-127 85.5T480-80Zm0-80q134 0 227-93t93-227q0-7-.5-14.5T799-507q-5 29-27 48t-52 19h-80q-33 0-56.5-23.5T560-520v-40H400v-80q0-33 23.5-56.5T480-720h40q0-23 12.5-40.5T563-789q-20-5-40.5-8t-42.5-3q-134 0-227 93t-93 227h200q66 0 113 47t47 113v40H400v110q20 5 39.5 7.5T480-160Z"
    />
  </symbol>
  <symbol
    id="icon-money"
    xmlns="http://www.w3.org/2000/svg"
    viewBox="0 -960 960 960"
    fill="currentColor"
  >
    <path
      d="M444-200h70v-50q50-9 86-39t36-89q0-42-24-77t-96-61q-60-20-83-35t-23-41q0-26 18.5-41t53.5-15q32 0 50 15.5t26 38.5l64-26q-11-35-40.5-61T516-710v-50h-70v50q-50 11-78 44t-28 74q0 47 27.5 76t86.5 50q63 23 87.5 41t24.5 47q0 33-23.5 48.5T486-314q-33 0-58.5-20.5T390-396l-66 26q14 48 43.5 77.5T444-252v52Zm36 120q-83 0-156-31.5T197-197q-54-54-85.5-127T80-480q0-83 31.5-156T197-763q54-54 127-85.5T480-880q83 0 156 31.5T763-763q54 54 85.5 127T880-480q0 83-31.5 156T763-197q-54 54-127 85.5T480-80Zm0-80q134 0 227-93t93-227q0-134-93-227t-227-93q-134 0-227 93t-93 227q0 134 93 227t227 93Zm0-320Z"
    />
  </symbol>

  <symbol
    id="icon-awards"
    xmlns="http://www.w3.org/2000/svg"
    viewBox="0 -960 960 960"
    fill="currentColor"
  >
    <path
      d="M280-120v-80h160v-124q-49-11-87.5-41.5T296-442q-75-9-125.5-65.5T120-640v-40q0-33 23.5-56.5T200-760h80v-80h400v80h80q33 0 56.5 23.5T840-680v40q0 76-50.5 132.5T664-442q-18 46-56.5 76.5T520-324v124h160v80H280Zm0-408v-152h-80v40q0 38 22 68.5t58 43.5Zm200 128q50 0 85-35t35-85v-240H360v240q0 50 35 85t85 35Zm200-128q36-13 58-43.5t22-68.5v-40h-80v152Zm-200-52Z"
    />
  </symbol>
  <symbol
    id="icon-languages"
    xmlns="http://www.w3.org/2000/svg"
    viewBox="0 -960 960 960"
    fill="currentColor"
  >
    <path
      d="M80-80v-80q46 0 91-6t88-22q-46-23-72.5-66.5T160-349v-91h160v-120h135L324-822l72-36 131 262q20 40-3 78t-68 38h-56v40q0 33-23.5 56.5T320-360h-80v11q0 35 21.5 61.5T316-252l12 3q40 10 45 50t-31 60q-60 33-126.5 46T80-80Zm572-114-57-56q21-21 33-48.5t12-59.5q0-32-12-59.5T595-466l57-57q32 32 50 74.5t18 90.5q0 48-18 90t-50 74ZM765-80l-57-57q43-43 67.5-99.5T800-358q0-66-24.5-122T708-579l57-57q54 54 84.5 125T880-358q0 81-30.5 152.5T765-80Z"
    />
  </symbol>
  <symbol
    id="icon-calendar"
    xmlns="http://www.w3.org/2000/svg"
    viewBox="0 -960 960 960"
    fill="currentColor"
  >
    <path
      d="M580-240q-42 0-71-29t-29-71q0-42 29-71t71-29q42 0 71 29t29 71q0 42-29 71t-71 29ZM200-80q-33 0-56.5-23.5T120-160v-560q0-33 23.5-56.5T200-800h40v-80h80v80h320v-80h80v80h40q33 0 56.5 23.5T840-720v560q0 33-23.5 56.5T760-80H200Zm0-80h560v-400H200v400Zm0-480h560v-80H200v80Zm0 0v-80 80Z"
    />
  </symbol>

  <!-- Table -->
  <symbol
    id="icon-download"
    fill="currentColor"
    viewBox="0 0 24 24"
    xmlns="http://www.w3.org/2000/svg"
  >
    <path
      d="M4,20H20a1,1,0,0,1,0,2H4a1,1,0,0,1,0-2ZM12,2a1,1,0,0,0-1,1V14.586L8.707,12.293a1,1,0,1,0-1.414,1.414l4,4a1,1,0,0,0,.325.216.986.986,0,0,0,.764,0,1,1,0,0,0,.325-.216l4-4a1,1,0,0,0-1.414-1.414L13,14.586V3A1,1,0,0,0,12,2Z"
    />
  </symbol>
  <symbol
    id="icon-headphones"
    xmlns="http://www.w3.org/2000/svg"
    fill="currentColor"
    viewBox="0 0 16 16"
  >
    <path
      d="M8 3a5 5 0 0 0-5 5v1h1a1 1 0 0 1 1 1v3a1 1 0 0 1-1 1H3a1 1 0 0 1-1-1V8a6 6 0 1 1 12 0v5a1 1 0 0 1-1 1h-1a1 1 0 0 1-1-1v-3a1 1 0 0 1 1-1h1V8a5 5 0 0 0-5-5"
    />
  </symbol>
  <symbol
    id="icon-skull"
    xmlns="http://www.w3.org/2000/svg"
    viewBox="0 0 24 24"
    fill="currentColor"
  >
    <path
      d="M12 2C5.505 2 2 6.637 2 11c0 2.129 1.009 3.979 3 5.508V21h3v-3h2v3h4v-3h2v3h3v-4.493c1.991-1.528 3-3.379 3-5.507 0-4.363-3.505-9-10-9zM8 13c-1.121 0-2-1.098-2-2.5S6.879 8 8 8s2 1.098 2 2.5S9.121 13 8 13zm8 0c-1.121 0-2-1.098-2-2.5S14.879 8 16 8s2 1.098 2 2.5-.879 2.5-2 2.5z"
    />
  </symbol>
  <symbol
    id="icon-youtube"
    xmlns="http://www.w3.org/2000/svg"
    viewBox="1 4.3 21.78 15.41"
  >
    <defs>
      <radialGradient
        cx="5.4%"
        cy="7.11%"
        r="107.93%"
        fx="5.4%"
        fy="7.11%"
        gradientTransform="matrix(.70653 0 0 1 .016 0)"
      >
        <stop offset="0%" stop-color="#FFF" />
        <stop offset="100%" stop-color="#FFF" stop-opacity="0" />
      </radialGradient>
    </defs>
    <g fill="none" fill-rule="evenodd">
      <path d="M1 1h21.77v22H1z" />
      <g fill-rule="nonzero">
        <path
          fill="currentColor"
          d="M22.54 7.6s-.2-1.5-.86-2.17c-.83-.87-1.75-.88-2.18-.93-3.04-.22-7.6-.2-7.6-.2s-4.56-.02-7.6.2c-.43.05-1.35.06-2.18.93-.65.67-.86 2.18-.86 2.18S1.04 9.4 1 11.18v1.66c.04 1.78.26 3.55.26 3.55s.2 1.5.86 2.18c.83.87 1.9.84 2.4.94 1.7.15 7.2.2 7.38.2 0 0 4.57 0 7.6-.22.43-.05 1.35-.06 2.18-.93.65-.67.86-2.18.86-2.18s.22-1.77.24-3.55v-1.66c-.02-1.78-.24-3.55-.24-3.55z"
        />
        <path
          fill="var(--layout-background-color)"
          d="M9.68 8.9v6.18l5.84-3.1"
        />
        <path fill="#fff" fill-opacity=".12" d="M9.68 8.88l5.13 3.48.73-.38" />
        <path
          fill="#FFF"
          fill-opacity=".2"
          d="M22.54 7.6s-.2-1.5-.86-2.17c-.83-.87-1.75-.88-2.18-.93-3.04-.22-7.6-.2-7.6-.2s-4.56-.02-7.6.2c-.43.05-1.35.06-2.18.93-.65.67-.86 2.18-.86 2.18S1.04 9.4 1 11.18v.1c.04-1.76.26-3.54.26-3.54s.2-1.5.86-2.17c.83-.88 1.75-.88 2.18-.93 3.04-.22 7.6-.2 7.6-.2s4.56-.02 7.6.2c.43.05 1.35.05 2.18.93.65.66.86 2.17.86 2.17s.22 1.78.23 3.55v-.1c0-1.8-.23-3.56-.23-3.56z"
        />
        <path
          fill="#3E2723"
          fill-opacity=".2"
          d="M22.54 16.4s-.2 1.5-.86 2.17c-.83.87-1.75.88-2.18.93-3.04.22-7.6.2-7.6.2s-4.56.02-7.6-.2c-.43-.05-1.35-.06-2.18-.93-.65-.67-.86-2.18-.86-2.18s-.22-1.8-.26-3.57v-.1c.04 1.76.26 3.54.26 3.54s.2 1.5.86 2.17c.83.88 1.75.88 2.18.93 3.04.22 7.6.2 7.6.2s4.56.02 7.6-.2c.43-.05 1.35-.05 2.18-.93.65-.66.86-2.17.86-2.17s.22-1.78.23-3.55v.1c0 1.8-.23 3.56-.23 3.56z"
        />
        <path fill="#FFF" fill-opacity=".2" d="M9.68 15.08v.1l5.84-3.08v-.12" />
        <path fill="#3E2723" fill-opacity=".2" d="M9.68 8.9v-.13l5.84 3.1v.1" />
        <path
          fill="url(#a_yt106)"
          fill-opacity=".1"
          d="M21.54 3.4s-.2-1.5-.86-2.18C19.85.35 18.93.35 18.5.3 15.46.07 10.9.1 10.9.1S6.34.07 3.3.3c-.43.05-1.35.05-2.18.92C.47 1.9.26 3.4.26 3.4S.04 5.17 0 6.95V8.6c.04 1.8.26 3.56.26 3.56s.2 1.52.86 2.18c.83.87 1.9.85 2.4.94 1.7.16 7.2.2 7.38.2 0 0 4.57 0 7.6-.2.43-.06 1.35-.07 2.18-.94.65-.66.86-2.18.86-2.18s.22-1.77.24-3.55V6.97c-.02-1.78-.24-3.55-.24-3.55z"
          transform="translate(1 4.208)"
        />
      </g>
    </g>
  </symbol>
  <symbol
    id="icon-youtube-outline"
    viewBox="0 -0.5 25 25"
    fill="none"
    xmlns="http://www.w3.org/2000/svg"
  >
    <path
      fill-rule="evenodd"
      clip-rule="evenodd"
      d="M18.168 19.0028C20.4724 19.0867 22.41 17.29 22.5 14.9858V9.01982C22.41 6.71569 20.4724 4.91893 18.168 5.00282H6.832C4.52763 4.91893 2.58998 6.71569 2.5 9.01982V14.9858C2.58998 17.29 4.52763 19.0867 6.832 19.0028H18.168Z"
      stroke="currentColor"
      stroke-width="1.5"
      stroke-linecap="round"
      stroke-linejoin="round"
    />
    <path
      fill-rule="evenodd"
      clip-rule="evenodd"
      d="M12.008 9.17784L15.169 11.3258C15.3738 11.4454 15.4997 11.6647 15.4997 11.9018C15.4997 12.139 15.3738 12.3583 15.169 12.4778L12.008 14.8278C11.408 15.2348 10.5 14.8878 10.5 14.2518V9.75184C10.5 9.11884 11.409 8.77084 12.008 9.17784Z"
      stroke="currentColor"
      stroke-width="1.5"
      stroke-linecap="round"
      stroke-linejoin="round"
    />
  </symbol>

  <!-- TO TRIAGE -->
  <symbol
    id="icon-endurance"
    viewBox="0 0 348 348"
    fill="none"
    xmlns="http://www.w3.org/2000/svg"
  >
    <path
      d="M157 1.60001C156.6 2.53334 156.2 11.7333 156.067 22L155.667 40.5333L151.267 41.4667C147.4 42.2667 146.6 42 145.267 39.0667C143.933 36.1333 143.267 35.8667 139.133 36.6667C132.733 37.8667 132.2 38.2667 133.133 42C133.8 44.6667 133.267 45.6 130.333 46.6667C128.467 47.3333 126.067 48 125 48C124.067 48 118.867 40.5333 113.533 31.3333C106.2 18.4 103.4 14.6667 101.8 15.3333C100.6 15.7333 93.5333 19.7333 86.0667 24.1333L72.3333 32.2667L74.6 36.4C75.8 38.8 80.3333 46.5333 84.6 53.8667L92.4667 67.0667L88.0667 70.8C83.6667 74.4 83.6667 74.4 80.8667 71.8667C78.2 69.3333 78.0667 69.3333 73.8 73.7333C70.0666 77.7333 69.8 78.4 71.6667 80C72.7333 80.9333 73.6667 82.4 73.6667 83.2C73.5333 84.9333 69 90.6667 67.6666 90.6667C67.1333 90.6667 59.2666 86.4 50.2 81.2C41.1333 76 33.1333 72.1333 32.4666 72.5333C31 73.4667 14.4666 102.667 15.1333 103.2C15.4 103.333 23.2666 107.867 32.6 113.2C42.0666 118.533 49.6666 123.067 49.6666 123.2C49.6666 123.467 49 125.467 48.2 127.867C47 131.333 46.0666 132.133 43.2666 131.733C40.4666 131.333 39.6666 132.133 38.2 136.533C36.0666 142.4 36.6 144 40.6 144C43 144 43.2666 144.533 42.4666 148.133C42.0666 150.4 41.6666 152.8 41.6666 153.467C41.6666 154.133 32.3333 154.667 21 154.667H0.333313V172.667V190.667H20.8666C41 190.667 41.4 190.667 42.2 193.733C43.8 199.733 43.1333 202.4 40.0666 202.933C37 203.333 36.7333 204.267 38.3333 211.733C38.8666 214 39.9333 214.667 43 214.667C46.2 214.667 47.4 215.467 48.8666 218.933C50.2 222.267 50.3333 223.733 49.1333 224.8C48.3333 225.6 40.3333 230.533 31.2666 235.867L15 245.467L18.3333 251.067C20.2 254.133 24.2 261.067 27.2666 266.267C30.3333 271.6 33.4 276 33.9333 276C34.4666 276 42.6 271.467 51.8 266C61 260.533 69 256 69.4 256C69.9333 256 71.4 257.6 72.7333 259.467C75.1333 262.667 75.1333 262.8 72.2 265.2L69.2666 267.6L72.8667 272.4L76.6 277.333L80.4667 274.533L84.3333 271.867L89 275.333C93 278.533 93.4 279.333 92.0667 281.867C91.2667 283.333 86.7333 291.333 82.0667 299.6C77.5333 307.867 73.6667 315.2 73.6667 315.867C73.6667 317.067 77.1333 319.2 98.6 331.6L104.067 334.8L114.467 316.4C120.067 306.267 124.867 297.733 125.133 297.6C125.267 297.333 127.667 297.733 130.2 298.667C134.467 300 134.867 300.533 134.2 303.867C133.267 308.133 133.8 308.667 140.467 309.867C144.867 310.667 145.4 310.4 146.2 307.333C147 304.4 147.667 303.867 151.4 304.267L155.667 304.667L156.067 326.4L156.333 348.133L174.067 347.733L191.667 347.333L192.067 325.6C192.333 306.133 192.6 304 194.733 304C195.933 304 198.333 303.6 199.933 303.2C202.2 302.533 202.867 303.2 203.667 306.533C204.6 311.2 204.467 311.2 211.4 309.2C216.2 307.867 216.333 307.6 215.533 303.467C214.867 299.333 215.133 298.933 219.267 297.467C221.667 296.667 223.8 296.4 224.067 296.933C224.2 297.467 229 305.867 234.733 315.6L245.133 333.2L260.2 324.667C268.6 320 275.667 315.867 275.933 315.467C276.333 315.2 272.333 307.733 267.267 299.067C253.533 275.733 254.333 278 259.133 274.667L263.133 271.733L266.333 274.667L269.4 277.467L273.667 273.333L277.933 269.2L275 266L272.067 262.933L275 258.933C277.667 255.2 278.333 255.067 280.867 256.533C292.733 263.867 313.267 275.867 314.6 276.267C316.067 276.667 333.667 249.333 333.667 246.667C333.667 246.133 325.4 240.667 315.133 234.667L296.733 223.6L298.067 219.067C299.267 215.067 299.933 214.667 303.133 215.333C306.467 216.133 306.867 215.733 307.667 210.8C308.6 204.933 307.933 202.667 304.867 202.667C303.133 202.667 303.133 200.267 305 193.867C305.267 192.8 312.333 192.4 326.6 192.267H347.667V174.4V156.667L326.867 156.267C306.467 156 305.933 155.867 305.133 152.933C303.667 147.467 304.333 145.333 307.667 144.533C311.267 143.6 311.533 142.8 310.2 136C309.4 132 309 131.733 304.867 132.4C300.733 133.067 300.333 132.8 299 128.533C298.067 125.867 297.667 123.6 297.933 123.333C298.067 123.067 305.8 118.667 315 113.333C324.2 108.133 332.2 103.333 332.867 102.667C333.533 102 330.067 94.8 325 86.1333C317 72.2667 315.8 70.8 313.533 72.1333C312.067 72.8 304.2 77.3333 296.067 82.1333C287.933 86.9333 280.333 90.6667 279.133 90.4C278.067 90.1333 276.2 88.4 275 86.4C273.267 83.0667 273.267 82.5333 275.4 80.4C277.533 78.2667 277.4 77.8667 273.4 73.7333C269.267 69.3333 269.133 69.3333 266.467 71.8667C263.667 74.4 263.667 74.4 259.533 70.9333L255.267 67.3333L265.133 49.6C270.6 39.8667 275 31.4667 275 30.9333C275 30 247.8 14.4 245 13.6C244.333 13.4667 240.067 19.7333 235.8 27.6C223.8 49.3333 223.8 49.3333 218.867 47.6C215.533 46.2667 214.867 45.4667 215.267 42.1333C215.667 38.6667 215.133 38 211.4 36.9333C206.067 35.3333 203 36.5333 203 40C203 42.5333 202.467 42.8 198.733 42C196.333 41.4667 193.933 40.8 193.4 40.4C192.733 40.1333 192.333 30.9333 192.333 19.8667V1.03265e-05H175C162.333 1.03265e-05 157.4 0.40001 157 1.60001ZM174.333 72H192.333V60.6667V49.3333H196.467C200.467 49.3333 200.6 49.6 200.067 54C199.533 58.5333 199.8 58.8 204.6 60.1333C210.467 61.6 212.333 60.9333 212.333 57.2C212.333 55.6 213.267 54.6667 214.867 54.6667C219.4 54.6667 219.267 57.0667 214.2 66C211.533 70.9333 209.533 75.0667 209.8 75.3333C211.267 76.6667 239.133 92 240.2 92C241 92 243.667 88.1333 246.333 83.3333C251.133 74.8 251.267 74.8 254.467 76.8C258.2 79.3333 258.467 80.9333 255.4 84.2667C253.267 86.6667 253.4 86.9333 257.4 90.9333L261.533 95.2L264.733 92.2667L267.933 89.2L270.067 92.5333C272.2 95.7333 272.2 95.8667 263.667 100.8C258.867 103.6 255 106.4 255 107.067C255 108.667 271.533 137.2 272.6 137.333C273.133 137.333 277.133 135.067 281.667 132.4C288.467 128.4 290.067 127.867 291.133 129.467C293 132.4 291.933 135.333 288.6 135.733C285.933 136.133 285.667 136.667 286.467 141.067C287.667 147.867 288.2 148.4 292.333 147.467C296.333 146.8 297.667 148.267 297.667 153.467C297.667 155.733 296.6 156 287 156C276.467 156 276.333 156 276.333 159.333V162.667L237.533 162.4L198.733 162L198.333 156.933C198.067 152.533 198.467 152 201.133 152C205.4 152 211.133 149.6 214.733 146.4C217.267 144 217.667 142.133 217.667 134.4V125.333H175.667H133.667V134.933C133.667 144.4 133.8 144.8 138.067 147.6C140.467 149.333 145.4 151.067 149 151.6L155.533 152.4L161.267 145.867L167 139.333V143.733C167 147.733 166.467 148.4 160.333 151.067C154.467 153.733 153.667 154.4 153.667 158.267C153.667 161.867 153.133 162.533 150.067 162.933C146.467 163.333 146.333 163.6 145.933 172.267L145.533 181.333H149.667C153.4 181.333 153.667 181.733 153.667 186C153.667 190.267 154.2 190.933 160.2 194C167.8 197.867 168.2 198.267 167.133 202.533C166.333 205.6 166.067 205.6 160.867 199.6C155.8 193.867 154.867 193.333 149.267 193.333C144.333 193.333 142.2 194.133 138.333 197.467C133.8 201.467 133.667 202 133.667 210.8V220L175.4 219.733L217 219.333L217.4 209.733L217.8 200.133L211.933 196.8C208.067 194.4 204.2 193.333 200.067 193.333C194.733 193.333 193.667 193.867 189.8 198.667C184.867 204.8 183 205.333 183 200.667C183 197.867 184.333 196.667 190.333 194C197.133 190.8 197.667 190.267 197.667 186V181.333H237H276.333V186.667V192H287C296.333 192 297.667 192.267 297.667 194.267C297.667 198.933 295.533 200.4 290.6 199.467C286.067 198.667 285.933 198.667 284.6 204.267C283 210.533 283.933 212 289.4 212C291.4 212 292.333 212.8 292.333 214.667C292.333 219.067 289.133 219.067 281.8 214.667C278.067 212.267 274.2 210.667 273.133 211.067C271.667 211.733 255 238.4 255 240.267C255 240.667 258.6 243.2 263 245.867C267.4 248.667 271 251.2 271 251.733C271 252.267 269.933 253.867 268.867 255.333C266.867 258 266.867 258 264.2 254.8L261.533 251.6L257.667 255.333C253.133 259.6 252.733 261.6 255.667 264C258.333 266.267 258.2 267.333 254.6 269.733C251.533 271.733 251.4 271.6 246.333 262.933C243.533 258 241.133 253.867 241 253.6C240.733 253.2 211.133 270.133 209.933 271.333C209.667 271.6 211.533 275.467 214.2 280C219.667 289.2 219.8 290 216.867 291.2C213.4 292.533 212.6 292.133 211.8 288.667C210.867 285.2 209.133 284.8 203 286.533C200.333 287.333 199.667 288.267 199.667 292.133C199.667 296.133 199.267 296.667 196.067 297.067L192.333 297.467V286.8V276H174.333H156.333V286.667V297.333H152.333C148.467 297.333 148.333 297.2 149.133 292.133C149.933 287.2 149.8 287.067 145.667 286.133C139 284.933 137.667 285.067 137.667 287.6C137.667 291.467 135.8 293.333 132.6 292.4C128.733 291.467 128.867 290.533 134.333 281.2C136.867 276.8 139 272.933 139 272.667C139 272.4 131.933 268.133 123.4 263.2C111 256.133 107.533 254.667 106.6 256.133C106.067 257.2 103.8 261.2 101.533 264.933C99.4 268.8 97.1333 272 96.4667 272C95.8 272 93.9333 270.8 92.2 269.333L89 266.667L92.3333 264.133L95.6667 261.467L91.1333 256.8L86.4667 252L83.4 254.933C81 257.2 80.0667 257.467 78.3333 256C74.8667 253.2 76.0667 251.333 85 246.133C89.8 243.333 93.9333 240.667 94.2 240.133C94.4667 239.733 91 232.933 86.2 225.333C81.5333 217.6 77.5333 210.8 77.2667 210C77 209.333 72.4667 211.333 67.1333 214.533C59.4 219.067 57.1333 219.867 56.2 218.533C54.0666 215.067 55 212.4 58.7333 211.2C62.3333 210 62.4666 209.733 61.4 204.4C60.2 198.933 60.0666 198.8 55.2666 199.067C50.6 199.333 50.3333 199.067 49.9333 195.067L49.5333 190.8L60.6 190.4C70.7333 190 71.6667 189.733 71.5333 187.333C71.4 185.867 71.2667 177.867 71.2667 169.6L71 154.667H60.3333C49.9333 154.667 49.6666 154.533 49.6666 151.467C49.6666 147.2 51.2666 146.267 55.5333 148C58.6 149.067 59.2666 148.933 60.2 146.267C63.4 137.733 63.4 137.6 58.3333 136C53.1333 134.267 53 134 55.4 129.733L57 126.667L65.6666 132C70.4666 134.933 75 137.2 75.8 137.333C76.7333 137.333 81.2667 130.4 86.0667 122L94.8667 106.667L84.8667 100.933C75.2667 95.3333 75.1333 95.2 77.1333 92.1333L79.2667 89.2L82.4667 92L85.5333 94.9333L89.5333 91.8667C94.0667 88.2667 94.6 86.4 91.6667 84C90.6 83.0667 89.6667 81.7333 89.6667 80.9333C89.6667 79.0667 93.8 74.6667 95.5333 74.6667C96.3333 74.6667 99.4 78.9333 102.2 84C105.133 89.2 107.933 93.3333 108.467 93.3333C109.933 93.3333 137.533 77.3333 138.333 76C138.733 75.4667 136.6 70.6667 133.533 65.3333C130.467 60.1333 128.2 55.6 128.467 55.3333C128.733 55.0667 130.6 54.5333 132.733 54C135.933 53.2 136.467 53.4667 137.8 57.2C139.533 62 139.133 61.8667 145.8 59.7333C151.4 58.1333 151.667 57.7333 149.667 52.8C148.6 49.8667 148.867 49.4667 152.067 49.0667L155.667 48.6667L156.067 60.2667L156.467 72H174.333ZM191 146.667L196.6 153.333L190.867 150.933C186.2 148.933 184.867 147.6 184.2 144.267C183.667 141.867 183.8 140 184.333 140C185 140 187.933 142.933 191 146.667Z"
      fill="currentColor"
    />
  </symbol>

  <symbol
    id="icon-indiana-jones"
    viewBox="0 0 695 516"
    fill="none"
    xmlns="http://www.w3.org/2000/svg"
  >
    <path
      d="M276.667 3.19997C265.6 7.33331 259.333 10.8 249.6 18C236.4 28 229.867 37.2 226.8 50L225.2 56.6666L211.067 59.7333C101.733 83.6 17.7333 143.2 4.66663 206C3.46663 211.867 1.86663 219.6 1.06663 223.333C-2.00003 238.267 3.3333 272.4 12 293.733C24.6666 324.667 48.5333 350 75.8666 361.467C98 370.667 126.8 374.133 154.133 370.8C168.267 368.933 197.467 362 209.067 357.6L216.267 354.8L242.4 362.133C256.933 366.133 280.267 373.333 294.4 378.133C308.667 382.933 321.067 386.533 322.133 386.133C323.867 385.467 356.667 397.2 355.733 398.133C355.467 398.267 334.4 405.333 308.933 413.867L262.533 429.467L254 425.2C241.6 419.067 232.533 419.333 220.4 426.133C207.467 433.333 196.4 442 192.267 448.4C190.4 451.467 188.667 454.267 188.4 454.533C188.133 454.8 184.267 451.467 179.733 447.2C167.2 435.2 151.067 424.8 139.333 420.933C135.6 419.733 124 417.867 113.333 416.667C91.0666 414.267 85.4666 412.933 77.8666 408.533C72.4 405.467 60 392.933 60 390.533C60 388.4 51.8666 385.2 47.7333 385.6C42.4 386.133 41.3333 389.333 41.0666 406L40.8 418L47.2 427.333C56.2666 440.4 62.2666 446.4 70 450.267C75.7333 453.2 78 453.6 86.6666 453.333C92.1333 453.067 100.533 452.933 105.333 452.933C120.8 453.2 134.8 460.667 158 481.2C171.733 493.467 178.133 496.667 189.467 496.933C196.667 497.067 199.733 497.867 205.467 501.2C209.467 503.467 215.333 505.6 218.533 506.133C226.4 507.333 241.867 505.867 249.467 503.333C260.533 499.467 269.867 489.6 273.467 477.6C275.067 472.267 275.333 472 286.533 467.867C326.267 453.333 380.933 435.2 402.533 429.333L413.333 426.4L430.933 438C450.667 451.2 478.133 476.933 499.333 501.867C505.867 509.6 512 516 512.8 516C515.333 516 516.267 511.867 514.267 509.467C484.267 473.067 453.6 444.133 429.333 429.2L422.133 424.8L427.467 423.2C441.467 419.2 442.4 419.333 455.067 426.933C461.467 430.8 471.6 438.133 477.467 443.333C487.733 452.133 518.533 484.8 528.133 496.933C532.533 502.4 537.067 504 538.267 500.533C539.733 496 483.067 437.467 466.8 426.533C463.467 424.4 461.6 422.667 462.4 422.667C466.4 422.667 479.067 416.8 482.933 413.067C486.4 409.867 491.067 407.867 505.333 403.867C571.067 385.333 615.867 363.2 646.4 334.133C662.533 318.667 670.533 308 679.333 290C695.333 257.333 698.667 219.867 688.8 181.067C672 115.067 614.533 75.4666 512 59.3333C499.2 57.3333 488 55.4666 487.067 55.3333C486.267 55.0666 485.2 52.2666 484.667 49.0666C482.133 34.4 476.933 29.2 458.4 23.3333C436.933 16.5333 423.6 14.6666 392.667 13.7333C365.2 13.0666 362.667 12.8 351.867 9.19997C345.6 7.06664 336 4.66664 330.533 3.86664C325.067 3.06664 319.333 1.86664 317.6 1.19997C315.867 0.533306 307.867 -2.69115e-05 299.6 0.133306C287.733 0.26664 283.067 0.799973 276.667 3.19997ZM217.333 93.3333C217.333 98 210.133 127.333 208.667 128.8C207.6 129.867 206.4 133.6 205.867 137.067C202.933 157.067 201.867 162 199.867 161.867C198.933 161.733 192 160.267 184.667 158.667C165.867 154.533 137.067 153.6 123.467 156.533C95.7333 162.8 75.2 182 66.2666 210C62.8 221.2 62.2666 243.333 65.2 254C67.8666 263.6 75.3333 278.133 81.6 286.267C96.6666 305.733 126.933 326.8 154 336.667C157.733 338 161.2 339.6 161.867 340.133C163.6 341.733 145.867 343.333 129.333 343.067C100.4 342.667 80 334.667 61.8666 316.667C53.0666 307.867 50 303.6 44.8 293.333C35.7333 274.667 33.2 265.067 32.4 244.533C31.4666 222 33.2 212 40.6666 196.667C61.3333 153.867 121.6 116.4 203.333 95.2C217.333 91.6 217.333 91.6 217.333 93.3333ZM513.333 96C571.867 106.533 613.467 126.533 634.267 153.867C642 164.133 648.533 177.733 652.133 191.333C656.267 206.533 656.267 237.467 652.267 252.133C638.133 304 589.467 338.267 492.667 364.667C477.733 368.667 474.8 369.2 470.933 367.867C468.267 367.067 462.133 366.667 456.8 366.933C446.533 367.6 438.8 370.8 433.467 376.533C431.6 378.4 429.6 380 428.8 380C428 380 417.867 382.133 406.4 384.8L385.467 389.733L371.067 386.267C363.2 384.267 350.133 381.733 342 380.533C334 379.333 324.4 376.933 320.667 375.333C311.467 371.067 276.267 358.533 255.067 352L237.467 346.4L257.067 336.8C267.867 331.467 292.533 317.6 312 306C331.467 294.533 349.467 284 352 282.8C354.933 281.333 363.333 279.867 374.133 278.8L391.733 277.2L401.467 282.133C452.133 307.6 511.067 313.467 559.2 297.867C599.867 284.8 630.267 258 638 228.667C643.6 206.8 637.6 180.667 623.867 167.733C613.333 157.867 605.6 155.467 584.667 155.467C565.2 155.467 550.667 158.4 523.333 168.133C510.667 172.667 508.267 173.2 504.4 171.867L500 170.4V158.133C500 141.733 497.6 123.6 495.333 122.267C494.267 121.733 493.2 118.133 492.8 114C492.4 110 491.6 103.333 491.2 99.3333L490.533 92L494.267 92.6666C496.267 92.9333 504.933 94.5333 513.333 96ZM162 173.2L168.667 174.133L162.267 176.933C151.467 181.867 131.6 194.133 125.067 199.867C112 211.467 108.4 227.6 116 240.8C121.467 250.4 130.533 257.867 146 265.467C174 279.067 211.6 285.333 266.667 285.333H294L282.667 292.133C246.667 313.333 198 334.4 188.667 332.933C186.4 332.533 178.667 330 171.333 327.333C123.067 309.333 92.4 283.733 82 252.667C79.2 244.133 79.0666 226.533 81.8666 217.2C86.2666 201.733 98.8 185.733 111.2 179.467C123.867 173.067 143.6 170.667 162 173.2ZM604.133 182.133C611.867 186.667 615.2 194.533 615.733 209.733C616.267 222.267 616.133 223.067 612 231.733C606.8 242.267 592.667 256.933 581.067 263.733C548.533 283.067 507.867 289.467 466.133 282C456 280.267 431.6 273.333 432.4 272.533C432.667 272.267 440.533 270.8 450 269.333C531.067 256.533 584.667 238.267 588.8 222.267C591.333 211.6 583.867 204.267 561.333 195.467C552.133 192 544.133 188.533 543.6 188C543.067 187.467 548.667 185.467 556.267 183.6C574.4 178.933 574.8 178.8 588.133 179.2C596.667 179.333 600.667 180.133 604.133 182.133ZM363.333 390.933C372.267 392.533 374.267 393.867 368.933 394.933C367.333 395.2 362.4 393.867 358 391.733C353.6 389.6 351.067 388.267 352.4 388.667C353.733 388.933 358.667 390 363.333 390.933Z"
      fill="currentColor"
    />
  </symbol>

  <symbol
    id="icon-batman"
    viewBox="0 0 1034 350"
    fill="none"
    xmlns="http://www.w3.org/2000/svg"
  >
    <path
      d="M20 8.19998C88.8 35.9333 135.867 73.1333 155.333 115.4C163.067 132.2 164.667 140.067 164.533 161.667C164.4 178.467 164 182.467 160.933 192.333C159.067 198.6 157.733 203.8 158 204.067C158.267 204.333 165.6 203.8 174.267 202.733C195.733 200.333 279.467 200.333 299.333 202.733C317.333 205 346.267 210.2 360.667 213.8C390.8 221.4 427.467 237.533 448.667 252.467C463.467 263 481.333 280.467 490.533 293.667C499.2 305.8 510.933 329.667 514.133 341.133C515.333 345.8 516.8 349.667 517.2 349.667C517.6 349.667 519.2 345.8 520.533 341.133C523.867 329.267 535.6 305.533 544 293.8C580.267 242.733 648.933 211.267 744 202.333C770.533 199.8 839.733 200.2 863.067 203C870.267 203.933 876.4 204.333 876.667 204.067C876.933 203.933 875.6 198.6 873.733 192.333C870.667 182.467 870.267 178.467 870.133 161.667C870 139.8 871.467 132.6 880 114.333C900.267 70.8667 949.467 33.1333 1022.67 4.86665L1034 0.466646L685.733 0.333313L684.8 5.93331C680.667 32.0666 665.467 58.3333 650.133 65.5333C644.933 68.0667 607.333 77.2667 590.133 80.3333C573.867 83.1333 561.867 81.4 558 75.5333C556.8 73.6667 555.2 68.0666 554.533 63.1333C552.533 48.0666 546.4 17.6666 545.467 17.6666C544.933 17.6666 542.8 25.1333 540.8 34.3333C538.667 43.5333 536.533 51 536.133 51C535.733 51 531.333 50.3333 526.267 49.6666C520.4 48.7333 514.133 48.8666 507.733 49.6666C502.533 50.4666 498.133 50.8666 497.867 50.6C497.6 50.4666 495.733 42.8666 493.733 33.9333C491.733 25 489.733 17.6666 489.2 17.6666C488.267 17.6666 482.267 47.9333 480.133 63.1333C479.467 67.9333 478.133 73.2667 477.067 74.8667C474.133 79.6667 465.333 82.2 454.267 81.2666C439.867 80.2 389.733 68.7333 383.333 65C374.8 60.0667 366.267 49.9333 360.267 37.6666C355.2 27.2666 349.333 8.59998 349.333 2.73331C349.333 0.466646 342.4 0.333313 175.067 0.333313H0.666626L20 8.19998Z"
      fill="currentColor"
    />
  </symbol>

  <symbol
    id="icon-black-pearl"
    viewBox="0 0 661 529"
    fill="none"
    xmlns="http://www.w3.org/2000/svg"
  >
    <path
      d="M254.733 9.59996C254.333 14.6666 253.8 24.4 253.8 31.3333C253.667 38.2666 253 46.4 252.2 49.3333C249.133 61.2 239.933 88.2666 237.667 92.2666C235.267 96.4 235.267 96.5333 237.933 100.133L240.733 103.6L236.2 102.667C233.8 102.133 221.533 98.4 209 94.5333C196.6 90.6666 185.8 88 185.267 88.5333C184.6 89.2 185.933 93.3333 188.2 97.7333C198.333 117.733 203 147.333 200.333 174C199.533 181.733 198.333 190.133 197.8 192.667C197.133 195.2 196.2 199.067 195.8 201.067C195.133 203.6 194.2 204.667 193 204.133C190.467 203.2 148.6 168.667 144.067 163.867C142.067 161.733 140.2 158.4 139.667 156.533C138.6 152.133 139.933 151.733 160.6 150.533C169.267 150 175.933 149.2 175.667 148.667C175.4 148.133 171.8 147.067 167.667 146.133C159.4 144.267 159.133 142.8 166.733 141.467C169.667 141.067 172.733 139.867 173.533 138.8C174.733 137.333 173.267 136.8 164.733 136.133C159 135.6 151 135.2 146.867 135.333C141.133 135.467 139.133 134.933 138.6 133.467C136.733 128.667 135 131.733 135 139.733C135 144.267 134.2 151.067 133.133 154.667C127 177.467 123.8 187.333 122.867 187.333C122.2 187.333 117.533 181.2 112.467 173.6C107.4 166.133 100.333 156.667 96.8667 152.667C93.2667 148.533 88.2 142.4 85.6667 138.933C77.5334 128 76.4667 132.533 83.6667 148.133C86.2 153.6 88.3334 158.533 88.3334 158.8C88.3334 159.2 89.5334 162.267 91.1334 165.6C96.4667 177.467 103.267 196.267 109.133 216L115.133 236L110.333 256.667C99.8 301.867 93.2667 328.133 92.0667 330.533C90.8667 332.667 89.8 332.8 82.6 332C78.0667 331.467 70.4667 330.667 65.6667 330.133L57 329.333L55.4 322.8C53.5334 315.067 53.9334 314 58.8667 314C66.3334 314 67.9334 307.733 61.6667 303.067C56.7334 299.467 56.7334 298 61.1334 293.867C69.1334 286.667 72.0667 273.733 69.1334 259.6C66.7334 248.267 64.4667 244.533 51.2667 232.133C42.8667 224.133 41.6667 222.4 42.3334 219.333C43.2667 215.067 40.6 212.267 36.0667 212.933C32.3334 213.467 32.3334 214.933 35.4 238.667C39 266.8 39.5334 282.133 37.1334 286.667C33 294.533 35 309.067 40.8667 313.867C42.0667 314.933 43 316.533 43 317.6C43 319.2 41.8 319.467 36.7334 318.667C27 317.333 20.3334 315.333 20.3334 313.867C20.3334 313.067 22.4667 307.867 25 302.267L29.8 292L26.0667 289.333C24.0667 287.867 21.1334 285.333 19.5334 283.733L16.7334 280.8L11.5334 283.333C8.73336 284.8 5.00002 286 3.26669 286C0.0666908 286 0.0666908 286.133 1.00002 295.6C2.20002 307.2 3.53336 311.067 6.60002 312.267C7.93336 312.667 11.2667 315.067 13.9334 317.467C18.7334 321.733 29.6667 326 35.9334 326C39.8 326 40.8667 328.533 42.8667 343.333C46.3334 367.733 55.1334 397.333 62.4667 409.467C65.1334 413.867 67.8 418.8 68.4667 420.533C70.4667 425.467 73.6667 476.267 72.8667 488.667C71.6667 506.533 71 507.867 59 515.467C49 521.867 46.2 524.8 47.8 527.467C48.7334 529.067 99.4 528.933 131 527.067C145.8 526.267 205.4 525.467 269 525.333C367.933 525.2 382.733 524.8 395.667 522.8C425.4 518.133 443.133 512.667 455 504.533C471.933 493.067 487 470.8 487 457.467C487 453.333 487.667 452.533 494.467 448.667C509 440.533 515.667 432.133 522.6 413.333C524.6 407.867 526.067 406.133 530.6 404C541.267 398.8 543 394.533 537.133 387.733C534.6 384.8 533 384.133 529.133 384.4C525.8 384.667 524.333 384.133 524.333 382.933C524.333 381.733 530.333 379.733 543.4 376.8C611.8 361.333 652.6 352.667 656.2 352.667C659.4 352.667 660.333 352.133 660.333 350C660.333 348.533 660.2 347.333 659.933 347.333C659.667 347.333 644.6 350.667 626.333 354.667C607.933 358.8 584.6 363.467 574.333 365.333C538.6 371.467 516.867 375.467 499.667 379.333C481.533 383.467 458.067 387.333 457.133 386.4C456.867 386 458.333 382 460.467 377.2C462.6 372.533 465.933 363.2 467.933 356.4C471 345.6 471.267 342.8 470.6 330.133C469.8 314.133 466.333 300.4 459.8 287.467L455.533 278.8L462.067 270.133C471.533 257.733 474.067 251.333 474.733 238.267C475.4 225.467 473.933 220.533 459.933 188.533C450.067 166 442.2 151.333 439.933 151.333C439 151.333 437 152.133 435.533 153.2C432.2 155.6 419.8 159.2 413.667 159.6C405.933 160 405.533 159.333 406.467 144.933C407.133 133.6 407.667 131.467 410.733 127.467C412.733 125.067 414.867 122.267 415.533 121.333C416.333 120.4 415 113.6 411.8 102.933C408.467 91.0666 407 83.4666 407 77.2V68.2666L420.067 69.0666C427.133 69.4666 437 70.9333 442.067 72.4C447 73.8666 451 74.5333 451 74C451 72.2666 446.2 68.8 439.667 65.7333C433.8 63.0666 433.4 62.6666 436.333 62.2666C441.933 61.6 448.333 59.2 448.333 57.8666C448.333 57.2 445.133 56.6666 441.4 56.6666C436.333 56.6666 431.933 55.4666 426.067 52.6666C421.4 50.5333 415.533 48.4 413 47.8666C409.667 47.3333 408.333 46.4 408.333 44.5333C408.333 43.0666 407.533 42 406.467 42C404.333 42 403.133 50.9333 402.867 67.3333C402.733 83.3333 401.4 90.4 395.8 103.333C393 109.6 390.333 115.867 389.667 117.333C388.867 119.467 389.933 121.733 394.333 127.6L399.933 135.067L399.267 146.133C399 152.267 398.333 157.733 397.8 158.267C396.733 159.467 382.067 156.267 371.8 152.8C367.4 151.2 363.533 150 363.133 150C362.6 150 363.933 155.467 366.067 162C368.2 168.667 369.8 174.4 369.533 174.667C369.133 175.067 330.333 175.733 326.2 175.467C324.467 175.333 317.267 157.067 314.333 145.333C313.267 141.067 312.333 133.6 312.333 129.067C312.333 124.4 311.933 120.667 311.267 120.667C309.267 120.667 266.733 111.333 265.533 110.533C263.933 109.6 265.8 106.267 271 100.667C274.867 96.4 275 96.1333 272.733 94C271.4 92.8 267.667 84 264.467 74.5333C259 58.8 258.467 56 257.933 40.9333L257.4 24.6666H278.467C290.2 24.6666 301 24.2666 302.6 23.8666C306.6 22.8 305.133 20.6666 300.467 20.6666C298.467 20.6666 293.933 19.7333 290.333 18.5333C283.133 16 284.067 14.8 293.933 13.4666C301.667 12.2666 303.267 10.4 297.4 9.46663C280.333 6.66663 276.067 5.99996 268.333 5.3333C262.733 4.9333 259.4 3.99996 258.6 2.66663C256.467 -1.20004 255.4 0.799964 254.733 9.59996ZM251.533 74.9333C249.933 94.1333 249.533 95.2 245.933 92.9333C244.6 92 244.867 89.3333 247.267 79.6C248.867 72.8 250.6 67.3333 251.133 67.3333C251.667 67.3333 251.8 70.8 251.533 74.9333ZM264.867 88.9333C265.8 93.7333 265.533 94 262.333 94H259L259.133 81.6L259.267 69.3333L261.667 76.6666C262.867 80.6666 264.333 86.2666 264.867 88.9333ZM400.867 109.067C400.2 116.267 399.4 119.467 397.933 120C393.8 121.6 393.4 118.4 396.333 109.067C401.267 94.2666 402.2 94.2666 400.867 109.067ZM247.933 101.333C249 104.267 247.133 105.733 245.667 103.333C243.933 100.667 244.067 99.3333 245.667 99.3333C246.467 99.3333 247.4 100.267 247.933 101.333ZM411.8 115.6C412.467 118.667 412.2 119.333 410.067 119.333C407.667 119.333 407.267 118.133 406.6 110.4C405.4 95.2 407.667 97.4666 411.8 115.6ZM265.4 101.6C260.6 111.6 259 112.533 259 105.333C259 101.2 259.4 100.667 262.467 100.667C264.333 100.667 265.667 101.067 265.4 101.6ZM409.667 123.333C409.667 124 409.133 124.667 408.333 124.667C407.667 124.667 407 124 407 123.333C407 122.533 407.667 122 408.333 122C409.133 122 409.667 122.533 409.667 123.333ZM399 124.667C399 125.333 398.467 126 397.667 126C397 126 396.333 125.333 396.333 124.667C396.333 123.867 397 123.333 397.667 123.333C398.467 123.333 399 123.867 399 124.667ZM143.533 177.867C144.867 182.933 145.533 187.733 145 188.533C143.267 191.467 141.8 189.733 141 183.6C140.6 180.133 140.067 175.333 139.667 172.933C138.733 165.333 141.133 168.4 143.533 177.867ZM133.667 175.867C133.667 183.867 131.933 191.333 130.067 191.333C128.6 191.333 128.333 190.4 128.867 188C129.4 186.133 130.067 182 130.6 178.667C131.4 172.4 133.667 170.4 133.667 175.867ZM158.733 182.267C165.133 187.6 173 194.4 176.333 197.333C179.667 200.267 184.733 204.533 187.533 206.8L192.733 210.933L188.333 219.067C182.333 230.267 167 249.333 163.8 249.333C160.6 249.333 150.6 233.333 147.533 223.6C145 215.067 144.867 200.667 147.267 198.667C152.333 194.8 152.467 193.467 149 183.333C147.133 177.867 145.667 173.333 145.667 173.067C145.667 171.733 148.333 173.6 158.733 182.267ZM372.467 184.933C373.4 188.4 373.667 195.733 373.267 203.333C372.6 217.6 369.8 225.467 356.867 249.867C345.533 271.2 347.533 270.4 337.267 257.6L328.6 246.533L331.4 238.667C333.8 232.133 334.2 227.6 334.333 213.333C334.333 197.333 334.067 195.467 330.733 188.4L327.267 180.8L335.4 180.267C339.933 180 349.8 179.733 357.267 179.6L370.867 179.333L372.467 184.933ZM225.8 246.8C231 253.733 235 259.733 234.6 260.133C233.933 260.8 195.8 256 184.067 253.733C179.8 252.933 176.333 251.867 176.333 251.333C176.333 249.733 184.333 243.2 188.2 241.733C199.4 237.2 209.533 234 212.733 234C215.8 234 217.8 236 225.8 246.8ZM245.667 250.8C245.667 257.867 245.133 261.867 244.333 261.333C243 260.533 234.6 246 233 241.733C232.2 239.867 233.133 239.467 237.933 239.067C241 238.8 244.067 238.8 244.733 239.067C245.267 239.333 245.667 244.533 245.667 250.8ZM275.4 241.6C276.867 242.4 274.467 246.267 266.867 255.467C258.6 265.333 257 264.667 259 251.867C261.267 238.4 260.733 239.067 267.933 240.133C271.533 240.533 274.733 241.2 275.4 241.6ZM308.067 248.933L321.933 257.067L324.2 254.267C326.333 251.467 326.467 251.467 334.733 261.467C342.733 271.2 344.333 274 341.8 274C340.6 274 289.8 268.133 276.6 266.533C272.733 266 269.267 265.067 268.867 264.4C268.067 263.067 290.6 240.667 292.733 240.667C293.533 240.667 300.467 244.4 308.067 248.933ZM121 278.533C123.533 304 122.867 311.733 116.6 327.733L113 336.933L106.333 336C102.733 335.6 99.1334 334.667 98.4667 334C97.8 333.333 98.8667 326.267 100.867 317.733C102.733 309.467 105.533 296 107 288C110.2 271.467 114.733 250.267 115.933 247.333C117.133 244.4 118.6 253.2 121 278.533ZM396.333 270.667V275.333H386.733C373 275.333 355 273.733 355 272.667C355 270.267 375 266.667 390.067 266.133L396.333 266V270.667ZM429 270.667C438.067 272.667 447.667 276.4 446.6 277.467C446.2 277.867 437.133 277.867 426.467 277.333L407 276.267V272.667C407 270.667 407.267 268.8 407.667 268.4C408.733 267.467 419.4 268.533 429 270.667ZM213.533 282.133C218.2 285.6 221 286.533 229.4 287.467C235 288 239.933 288.533 240.2 288.533C240.467 288.667 240.067 289.467 239.267 290.4C238.467 291.333 236.867 295.067 235.667 298.667C234.333 302.4 229.667 313.333 225.267 323.2L217.133 341.067L214.6 337.867C213.267 336.133 210.867 333.2 209.4 331.467C201.4 322.133 193.667 312 193.667 310.933C193.667 310.267 190.733 303.733 187 296.533C183.4 289.333 180.333 283.067 180.333 282.667C180.333 282.267 183.133 282.267 186.733 282.667C191.133 283.067 195 282.533 199.667 280.8C203.4 279.467 206.6 278.267 207.133 278.133C207.533 278.133 210.333 279.867 213.533 282.133ZM278.6 292.667C283.8 292.667 285.4 293.733 305 310.8C325.133 328.4 325.8 329.067 324.867 333.2C324.333 335.467 319 352 313 370C304.2 396.133 301.667 402.667 299.667 402.667C297.133 402.667 295.267 397.867 276.333 341.6C270.333 324.133 264.067 305.867 262.333 301.067C257.667 288.667 257.667 288.533 266.067 290.8C269.8 291.733 275.533 292.667 278.6 292.667ZM299.933 292.133C305.133 294.933 307.533 295.467 312.733 294.8C316.333 294.4 321.133 292.933 323.533 291.333C329.133 288 329.533 288 334.067 292L337.8 295.333L332.733 310.667C330.067 319.067 327.4 326 327 326C326.333 326 293.933 298.533 289.667 294.4C287.933 292.667 287.933 292.267 290.2 290.533C293.4 288.267 292.333 288 299.933 292.133ZM363.667 302.133C370.333 315.067 372.867 325.067 372.6 337.333C372.467 348.533 369.8 360.933 367.667 360.8C364.867 360.533 339 337.467 339 335.067C339 332 348.467 303.333 352.333 294.8C355.133 288.533 355.4 288.267 357.267 290.8C358.333 292.133 361.267 297.333 363.667 302.133ZM10.2 290.8C11.8 291.467 12.3334 293.6 12.3334 299.467C12.3334 306.267 11.9334 307.333 9.80002 307.333C7.26669 307.333 5.66669 302.133 5.66669 293.6C5.66669 289.867 6.46669 289.333 10.2 290.8ZM22.6 296.933C21.4 304.133 19.1334 308.667 16.8667 308.667C15 308.667 14.7334 307.733 15.5334 302.533C15.9334 299.067 16.3334 295.467 16.3334 294.533C16.3334 293.467 17.8 292.667 19.8 292.667C23 292.667 23.2667 293.067 22.6 296.933ZM345 296.667C345.4 297.467 343.4 305.867 340.333 315.467C335.533 330.8 334.6 332.8 332.867 331.067C331.267 329.467 331.667 326.933 336.467 312.267C341.533 296.267 343 293.467 345 296.667ZM240.333 298.267C240.333 298.533 239.133 302.533 237.533 307.333C236.067 312.133 233.267 321.733 231.533 328.667C227 345.333 224.467 351.333 223.133 348.667C221.933 346.4 237.133 298 239.133 298C239.8 298 240.333 298.133 240.333 298.267ZM239.8 335.467C237.133 348 235 358.8 235 359.467C235 360.133 234.467 360.667 233.667 360.667C231.533 360.667 232.067 356.267 236.2 339.6C238.333 331.067 240.867 320.4 241.8 316C242.733 311.6 243.667 309.067 243.933 310.267C244.333 311.6 242.333 322.933 239.8 335.467ZM266.867 327.467C268.333 334.533 270.2 342 271 344C272.2 347.333 285.667 400.933 285.667 402.667C285.667 404.533 280.467 403.067 279.8 400.933C279.533 399.733 275.533 380 271 357.333C266.6 334.533 262.6 314.8 262.2 313.333C261.667 311.2 261.8 311.067 262.867 312.667C263.533 313.733 265.267 320.4 266.867 327.467ZM166.067 328.267C169.8 345.067 170.067 348.667 167.8 348.667C166.733 348.667 165.533 348.133 165.133 347.467C164.467 346.4 159 321.6 159 319.867C159 319.6 160.2 319.333 161.533 319.333C163.667 319.333 164.467 321.067 166.067 328.267ZM152.867 322.933C154.2 328.133 156.733 344.667 156.2 345.333C155.8 345.6 151.667 344.933 146.867 343.6L138.333 341.333L137.933 334.4L137.533 327.467L143.933 324.133C151.667 320.133 151.933 320 152.867 322.933ZM179.933 326.933C185.267 330.533 189.667 334 189.667 334.8C189.667 336.667 176.733 347.6 175.933 346.4C175.533 345.733 174.067 340.8 172.6 335.333C171.133 329.867 169.4 324.267 169 322.933C167.533 319.467 169.267 320.133 179.933 326.933ZM208.067 336.133C211.933 340.533 215 344.8 215 345.467C215 347.6 202.467 375.333 201.4 375.333C199.267 375.333 183.933 359.867 181.667 355.333L179.133 350.4L186.067 343.6C191.267 338.533 194.067 336.667 196.867 336.667C200.6 336.667 200.6 336.533 199.8 330.933C199.267 327.733 199.4 325.867 200.067 326.667C200.733 327.333 204.333 331.6 208.067 336.133ZM244.333 349.333C244.2 361.467 243.667 371.333 243.133 371.333C242.6 371.333 240.733 369.867 239.133 368.133L236.067 364.8L239.8 346.133C241.8 335.733 243.667 327.333 243.933 327.333C244.2 327.333 244.333 337.2 244.333 349.333ZM263.4 360.4C266.2 377.733 269 394.267 269.667 396.933C270.6 401.333 270.333 402 268.333 402C265.667 402 265 398.133 260.333 358.667C258.867 346.133 257.4 334.4 257.267 332.267C257 330.267 257.133 328.667 257.533 328.667C257.933 328.667 260.6 342.933 263.4 360.4ZM324.467 363.467C312.6 398.667 311 402.533 309.267 400.8C307.533 399.067 307.8 398 317 370.667C329.4 333.733 329.933 332.267 331.933 334.4C333.4 335.867 332.333 340.4 324.467 363.467ZM129.667 336C129.667 338.133 126.067 340.267 124.733 338.8C123.8 337.867 126.867 334 128.467 334C129.133 334 129.667 334.933 129.667 336ZM364.733 362.267L367.533 364.4L363.8 369.2C356.733 378.533 352.067 382.533 333 395.6C320.333 404.133 317.667 405.467 317.667 402.533C317.667 399.867 328.467 364.133 333 352C334.867 346.8 336.733 341.867 337 340.933C337.4 339.733 341.933 342.8 349.8 349.6C356.467 355.333 363.267 360.933 364.733 362.267ZM223 356.533C223 359.467 216.2 380.667 215.267 380.667C214.733 380.667 213.533 380.133 212.6 379.6C211.267 378.667 211.667 376.133 214.467 367.2C219 352.8 220.2 350.4 221.8 352.8C222.467 353.867 223 355.467 223 356.533ZM260.867 386.667C261.8 394 262.467 400.4 262.067 401.067C261.8 401.6 260.333 401.333 258.867 400.667C256.467 399.333 256.333 397.733 256.467 379.6C256.733 358.533 257 359.067 260.867 386.667ZM231.8 372.8C230.867 381.867 230.067 384.267 228.067 382.267C227.267 381.467 227.4 378 228.467 372.8C230.467 362 233 362 231.8 372.8ZM243 382.933C243 387.467 240.867 388.933 239.533 385.333C239 384.267 237.667 383.333 236.333 383.333C232.733 383.333 232.333 381.867 233.933 375.333L235.4 369.6L239.133 374.133C241.533 377.067 243 380.267 243 382.933ZM436.867 379.2C439.933 380.533 443.4 382.8 444.6 384.133C446.733 386.667 446.467 386.667 429.933 386.267C420.6 386 412.467 385.333 411.8 384.667C411.267 384.133 411.133 381.6 411.667 379.333L412.6 374.933L422.067 375.867C427.133 376.267 433.933 377.867 436.867 379.2ZM515 389.6C515 392.133 500.2 399.067 488.6 402.133C475.267 405.467 468.467 405.467 463 401.6C454.067 395.6 454.333 395.467 490.2 388C509.8 384 511.8 383.733 513.4 385.733C514.2 386.933 515 388.667 515 389.6ZM376.333 386C376.333 386.667 375 387.333 373.4 387.333C370.867 387.333 370.733 387.067 372.333 386C374.867 384.267 376.333 384.267 376.333 386ZM358.467 395.2C357.133 396.667 354.2 398.667 351.933 399.733C347.133 402 331.133 404.267 332.733 402.533C334.2 400.933 359.533 391.467 360.2 392.133C360.467 392.4 359.667 393.867 358.467 395.2Z"
      fill="currentColor"
    />
  </symbol>

  <symbol
    id="icon-robin-hood"
    viewBox="0 0 1105 1676"
    fill="none"
    xmlns="http://www.w3.org/2000/svg"
  >
    <path
      d="M708.267 7.66655C708.667 12.5999 710.133 16.8665 712.8 21.2665C717.6 28.9999 718.4 25.2665 702.133 70.3332C658.267 191.133 587.733 384.333 557.333 466.333C553.867 475.8 548.133 491.8 544.533 501.667C541.067 511.533 537.733 520.2 537.2 520.733C536.8 521.4 532.8 521 528.533 519.933C524.133 518.733 516.267 516.867 510.933 515.667C505.467 514.467 498 511.933 494.267 510.2C490.4 508.467 486 507 484.4 507C482.667 507 477.6 509.8 473.067 513.133C459.733 522.867 458.667 523.267 451.867 520.733C444.533 517.933 444.533 517.933 446.4 516.067C447.2 515.267 447.467 512.867 447.067 510.867C446.4 507.4 446.667 507 449.733 507C455.467 507 460 504.6 460 501.667C460 500.067 459.067 494.6 457.867 489.4C456.267 482.6 454.533 478.733 451.333 475.133C446.667 469.8 446.667 467.4 451.467 465.667C453.333 464.867 454.667 463.267 454.667 461.8C454.667 457.4 450.933 440.067 448.133 431C446.533 425.933 446 422.2 446.667 421.933C447.467 421.667 448 419.933 448 418.2V415L456.4 419.267C463.6 423 465.867 423.533 474.533 423.533C482.4 423.4 484.8 422.867 486.133 421C490.267 415.4 478.933 403.533 458.533 391.8C434.267 377.933 423.733 370.467 409.6 357.267C399.867 348.2 393.067 343.133 386.933 340.067C382 337.8 375.333 333.667 372 331C352.8 315.4 345.2 311.133 328.667 306.333C316.4 302.867 308 302.067 308 304.467C308 305.267 310.133 309.267 312.667 313.4C316.267 319.4 317.467 322.867 318.133 330.333C318.933 339.267 318.667 340.467 312.933 355C304.667 376.067 300 391.533 300 397.667C300 403.4 303.867 407.533 310.667 409C316 410.2 316.133 410.867 314 418.067C312.933 421.4 311.2 433.933 310 445.933C308.667 457.933 307.6 467.8 307.333 468.067C307.2 468.2 303.2 469 298.533 469.8C293.6 470.733 288.8 472.467 287.067 473.933C285.467 475.4 282.533 481.667 280.533 487.8L276.933 499H267.467C246.133 499.133 236.133 502.067 221.467 512.467C217.467 515.4 213.867 517.667 213.333 517.667C212.8 517.667 211.867 511.267 211.333 503.267C210.8 495.4 209.067 471.667 207.333 450.6C204.533 414.733 204.4 411.667 206.4 405.933C208.133 401 208.533 394.067 208.533 372.467V345.4L202.933 340.067C198.533 335.933 197.333 333.8 197.333 330.2C197.333 326.2 196.933 325.667 194 325.667C190.933 325.667 190.667 326.067 190.667 332.067C190.667 336.867 190 338.733 188 340.067C185.333 341.667 185.333 341.4 185.333 327.133V312.6L178.8 309.933L172.4 307.133L171.467 298.867C171.067 294.333 170.667 287.667 170.667 284.2C170.667 277.8 170.533 277.667 166.533 277.667C162.933 277.667 162.533 278.067 163.067 280.6C163.467 282.333 164 289.267 164.133 296.2C164.4 308.067 164.133 309 161.2 311.267C159.467 312.6 157.333 314.2 156.4 314.867C155.333 315.933 155.733 320.067 158 331.267C159.733 339.533 162.133 351.667 163.333 358.333C164.533 364.867 168 376.067 170.933 383L176.133 395.667L184.8 465C189.6 503.133 193.2 537.267 193.067 540.867L192.667 547.4L183.333 550.333C178.267 552.067 173.867 553.267 173.6 553.133C173.467 552.867 171.2 539.933 168.533 524.2C163.867 496.733 163.733 495.267 165.467 485C166.4 479.133 167.2 470.733 167.067 466.333C166.933 458.067 159.733 413.533 157.333 406.2C155.867 401.8 152.667 399.667 145.867 398.333C140.8 397.4 140 394.333 140 375.667C140 360.467 137.733 333.4 136 327.133C134.533 321.8 129.067 315.8 124.267 314.333C120.667 313.267 118 308.333 116.8 300.333C114.933 288.067 114.533 287 111.867 287C108 287 107.6 289.533 110 300.467C111.2 305.933 112.4 311.933 112.933 313.933C113.467 317 113.2 317.667 111.067 317.667C108.667 317.667 108.4 318.6 108.533 329.267C108.667 344.067 106.4 345.267 104.267 331.4C103.333 325.8 102.4 321 102.133 320.6C101.867 320.333 100.267 320.867 98.6666 321.667C95.8666 323.133 95.7332 323.8 96.5332 333.533L97.4666 343.667L93.4666 346.067L89.4666 348.333L92.7999 357.667C94.5332 362.733 98.1332 375.8 100.8 386.6C106.667 410.6 111.067 422.067 116 426.067C119.067 428.6 120.133 431.133 122.667 443C126.8 462.867 146 550.867 147.467 557.267C148.267 560.333 148.267 560.467 132.8 562.333L126.267 563.267L127.2 579.4C128.133 597.933 130.133 612.2 132.133 614.6C132.933 615.4 135.467 616.333 137.733 616.6C142.267 617 141.333 615.133 148.533 641C150.267 646.733 152.267 666.067 152.4 676.333C152.4 678.2 149.6 687.133 146.267 696.333C142.933 705.533 137.2 725.667 133.333 741C129.6 756.467 123.6 779 120 791.133C116.267 803.4 110.933 823.133 108.133 835.133C101.333 863.267 96.6666 876.333 77.8666 920.6C43.3332 1001.93 39.7332 1014.07 31.3332 1077C29.4666 1090.87 27.0666 1112.87 25.9999 1125.67C24.7999 1138.47 23.0666 1154.73 21.9999 1161.67C21.0666 1168.6 20.2666 1185.4 20.2666 1199C20.1332 1225.8 18.1332 1271.27 16.9332 1273.27C16.1332 1274.6 13.1999 1301.13 10.6666 1330.47C9.86657 1340.47 7.46657 1354.07 4.53324 1365.67C1.9999 1376.07 -9.62126e-05 1384.73 0.26657 1384.87C0.533237 1385.13 9.33324 1386.87 19.9999 1388.73C30.6666 1390.73 44.2666 1393.8 50.1332 1395.67L61.0666 1399L59.8666 1404.07C59.1999 1406.73 58.6666 1413.8 58.6666 1419.67V1430.33L51.1999 1438.6C46.3999 1444.07 42.2666 1447.4 39.5999 1448.07C35.5999 1449.13 35.3332 1449.53 34.9332 1455.93C34.5332 1461.93 33.9999 1463.27 29.9999 1466.2C27.5999 1468.07 25.0666 1471 24.6666 1472.6C24.1332 1474.33 22.3999 1476.73 20.7999 1477.93L17.9999 1480.2L24.9332 1486.73C28.7999 1490.33 32.5332 1495 33.3332 1496.87C33.9999 1498.87 34.6666 1507 34.6666 1514.87C34.6666 1523.67 35.1999 1529.67 36.1332 1530.6C37.0666 1531.53 38.7999 1535.4 40.1332 1539.27L42.5332 1546.33L37.8666 1560.6C34.5332 1571.27 33.3332 1577 33.5999 1582.6C33.8666 1589.67 31.7332 1599.67 23.8666 1628.73C23.1999 1631.4 22.9332 1634.33 23.3332 1635C24.9332 1637.53 33.9999 1640.6 43.3332 1641.67C48.5332 1642.33 58.1332 1643.53 64.9332 1644.33C79.5999 1646.07 87.4666 1644.6 89.3332 1639.8C89.8666 1638.2 91.7332 1631 93.1999 1623.8C95.8666 1611.4 97.7332 1606.73 104.267 1596.6C106.4 1593.13 107.333 1588.87 108 1578.6C108.8 1565.67 109.2 1564.47 114.4 1556.07C124 1540.47 125.333 1537 124.533 1530.73C123.867 1525.27 124.133 1524.87 129.2 1521.27C135.333 1517.13 136.133 1514.07 133.733 1505.67C131.333 1497.4 131.467 1496.47 135.333 1495.53C139.6 1494.47 142.667 1490.2 142.667 1485.4C142.667 1482.6 143.6 1481.13 146 1480.07C150.4 1478.07 150.4 1473.4 145.867 1462.6C143.867 1457.93 142.267 1451.67 142.267 1448.2C142.133 1442.6 142.933 1441.13 148.8 1433.93C152.4 1429.4 157.2 1422.33 159.467 1418.07L163.6 1410.33L173.2 1410.07C179.333 1409.8 186.133 1408.47 191.733 1406.47C231.867 1392.07 240.4 1388.07 246 1381.4C248 1379 252.133 1375 255.2 1372.47L260.667 1368.07L271.333 1369C277.2 1369.53 283.067 1370.07 284.267 1370.07C285.467 1370.2 286.267 1370.47 286 1370.87C284.8 1371.93 302.533 1384.33 311.067 1388.33C323.867 1394.33 327.467 1398.2 328.667 1407C329.2 1411 330.533 1415.93 331.467 1417.93C333.067 1420.87 333.067 1424.73 332.133 1438.6L330.8 1455.53L334.933 1464.87C339.2 1474.73 339.333 1480.6 335.333 1488.47C331.467 1495.8 334 1501.53 343.6 1507.93C345.333 1509.13 346.667 1511 346.667 1512.33C346.667 1513.67 347.6 1515.53 348.8 1516.47C350.533 1517.8 350.8 1520.2 350.4 1527.13C350 1534.87 349.467 1536.6 346.267 1539.53C344.267 1541.4 343.067 1543.67 343.467 1544.73C344.667 1547.8 352.133 1552.6 354.667 1551.93C357.333 1551.27 357.6 1551.93 359.333 1563C359.733 1565.53 360.533 1575.13 361.2 1584.33C362.267 1599.27 362.8 1601.8 366.533 1609C371.333 1617.93 371.333 1619.27 365.067 1632.07C361.333 1639.8 361.067 1641.4 361.867 1649C362.933 1659.53 364.8 1665.13 367.733 1666.33C368.933 1666.87 377.867 1667.53 387.333 1667.8C404.933 1668.33 417.467 1669.4 445.333 1673.13C453.733 1674.2 465.067 1675.13 470.4 1675.13C479.2 1675.13 481.067 1674.73 487.6 1670.73C497.467 1664.87 502.667 1658.73 502.667 1653.27C502.667 1650.87 502.133 1648.33 501.6 1647.53C499.733 1644.73 491.467 1643 479.867 1643H468.267L462.8 1636.2C459.333 1631.8 457.333 1627.93 457.333 1625.53C457.333 1622.73 456.667 1621.8 454.4 1621.4C452 1621.13 451.2 1619.93 450.933 1616.73C450.667 1613.93 449.467 1611.8 447.733 1610.87C445.6 1609.67 445.2 1608.6 446 1604.87C446.533 1601.93 446 1598.73 444.8 1595.93C443.6 1593.4 442.533 1585.27 442 1575.67C441.6 1566.87 440.533 1554.2 439.867 1547.4C438.667 1537.13 438.8 1534.6 440.533 1531.13C441.733 1529 442.667 1524.87 442.667 1522.2C442.667 1518.47 443.733 1516.07 447.333 1512.2C454.667 1503.93 453.733 1499.8 441.733 1486.73C438.533 1483.27 436 1479.53 436 1478.47C436 1477.4 433.6 1473.4 430.667 1469.53C427.733 1465.53 425.333 1461.67 425.333 1460.87C425.333 1460.07 427.333 1455.93 429.867 1451.8C434.8 1443.67 438.133 1429.67 436.667 1423.27C436 1419.67 436.267 1419.27 440.133 1418.47C442.4 1418.07 450.133 1417.67 457.2 1417.67C464.267 1417.53 472.667 1417 476 1416.2C479.333 1415.53 485.867 1414.47 490.667 1413.8C495.467 1413.13 501.733 1412.07 504.667 1411.27C507.6 1410.47 513.333 1409.53 517.333 1409C521.333 1408.47 528.133 1407.27 532.4 1406.2C538.8 1404.6 542.933 1404.47 555.067 1405.53C563.333 1406.33 573.467 1407 577.733 1407H585.333V1373.8V1340.6L601.867 1334.47C616.933 1329 677.067 1313 710 1305.67C717.333 1304.07 724.267 1302.47 725.467 1302.2C727.333 1301.67 727.467 1300.87 725.733 1294.6C724.667 1290.87 723.333 1278.6 722.667 1267.67C722 1256.6 721.2 1246.07 720.8 1244.33C720.4 1242.47 719.733 1238.6 719.467 1235.67C719.2 1232.73 717.333 1227 715.467 1223C713.6 1219 712 1214.33 712 1212.6C712 1210.87 710.533 1205.13 708.8 1199.93C707.067 1194.6 704.933 1184.33 704.133 1177C702.933 1167 700.533 1157.53 694 1138.2C689.2 1124.07 685.333 1111.8 685.333 1110.73C685.333 1109.8 688.933 1105.4 693.467 1101C709.733 1085.13 738.133 1044.47 758.4 1008.2C796.267 940.467 835.2 842.733 846.533 786.333C850.667 765.8 860.4 680.867 862 651C863.333 624.467 863.467 623.667 868.667 621.8C874.933 619.533 876.8 617 874.933 613C873.733 610.333 873.867 609.533 876.533 607.8C880.267 605.4 882.133 599.533 880 597C878.8 595.667 879.2 594.467 881.333 592.333C883.733 589.933 884.133 588.333 883.6 584.2C883.2 581.267 883.467 579 884.133 579C884.8 579 885.333 577 885.333 574.467C885.333 572.067 886 568.2 886.8 565.8C888.667 560.333 886.933 558.2 879.6 557C873.867 556.067 870.667 554.333 870.667 552.067C870.667 551.267 914.133 551.133 985.733 551.667C1092.53 552.333 1106.8 552.067 1103.87 549.133C1101.47 546.733 1080.4 546.067 981.333 545.8C920.933 545.667 871.067 545.267 870.8 544.867C870.4 544.6 870.4 536.6 870.8 527.267C871.867 495.8 870.933 389.133 869.467 369.4C868.667 358.6 866.533 341.8 864.667 332.067C858.8 301.4 857.333 293.533 854.667 275.667C847.2 227 824.267 162.733 797.733 115.667C774.933 75.3999 761.333 56.5999 735.333 29.6665C724.667 18.7332 716.933 9.39988 715.467 5.93321C713.733 2.06655 712.133 0.333213 710.267 0.333213C707.867 0.333213 707.733 0.99988 708.267 7.66655ZM731.6 39.9332C755.867 68.3332 789.733 123.933 802.8 156.6C815.733 189.133 828.4 232.467 834.667 265.667C836.267 274.067 839.867 293 842.8 307.667C848.267 335.933 850.933 360.867 853.467 406.6C855.067 438.333 853.733 473.933 849.333 517.133C847.867 531 846.667 542.6 846.667 543C846.667 543.4 779.467 543.8 697.333 543.8C553.067 544.067 548.133 543.933 549.333 541.667C552.133 536.467 550.933 529.667 546.4 525.267L542.267 521L546 510.333C551.467 494.333 593.733 378.2 622 301C635.733 263.533 648.4 229.133 650 224.333C651.733 219.533 654.933 210.867 657.067 205C659.2 199.133 667.733 175.667 676 153C684.133 130.2 694.133 103 698 92.3332C701.867 81.6666 708.533 63.2666 712.8 51.3999C721.733 26.8665 720.8 27.3999 731.6 39.9332ZM192 401.133C195.333 410.867 196.4 417.267 198 436.333C199.067 449.133 200.267 462.6 200.533 466.333C200.933 469.933 202.133 484.6 203.467 498.6L205.6 524.333L201.467 528.2C199.2 530.333 197.333 531.667 197.333 531.133C197.333 528.467 185.2 421.933 184.667 419.267C183.867 416.333 186.667 387.933 187.6 388.867C187.867 389 189.867 394.6 192 401.133ZM137.733 416.467C141.333 447.4 147.6 476.867 152.533 486.867C156.133 493.8 167.6 553.267 165.733 555C165.2 555.533 162.267 556.467 159.333 556.867L154 557.8L147.6 512.733C144.133 487.933 139.467 455.667 137.333 441C132.8 411 132.533 406.467 135.067 407.267C136 407.667 137.067 411.533 137.733 416.467ZM128 417.533C128 417.933 131.333 436.867 135.333 459.533C139.467 482.2 142.533 501.4 142.4 501.933C142.133 502.6 138.8 487.4 134.8 468.2C130.933 448.867 126.933 430.867 125.867 427.933C123.333 420.733 123.333 414.867 126 415.8C127.067 416.333 128 417 128 417.533ZM143.6 507.267C143.2 508.333 142.8 507.933 142.8 506.467C142.667 505 143.067 504.2 143.467 504.733C143.867 505.133 144 506.333 143.6 507.267ZM735.733 550.867C803.733 551 844 551.533 844 552.333C844 553 841.2 555.267 837.733 557.267C834.133 559.267 830.4 562.067 829.333 563.4C828.133 564.733 823.067 568.467 818 571.533C810.933 575.8 808 578.467 806.267 582.467C801.867 591.667 792 600.067 792 594.467C792 593.4 790.8 592.2 789.467 591.667C788.133 591.267 786.667 589.667 786.267 588.333C785.467 585.133 781.067 584.867 778.667 587.667C777.733 588.733 775.333 589.667 773.333 589.667C771.333 589.667 768.667 590.867 767.333 592.333C765.467 594.467 763.867 594.867 761.067 594.333C755.6 593.133 749.333 594.867 745.867 598.6C742.933 601.667 742.667 601.8 739.733 599.8C735.6 596.867 732.133 597.133 724.667 600.867C719.067 603.8 718 603.933 715.467 602.333C711.2 599.667 689.067 599.4 679.333 602.067C669.067 604.867 661.467 604.867 651.6 602.067C644.267 600.067 643.467 600.067 640 602.067C637.867 603.4 633.333 604.333 629.733 604.333C626.267 604.333 620.4 605.267 616.8 606.333C613.2 607.4 607.6 608.333 604.267 608.333C600.667 608.333 596.667 609.4 594 611L589.733 613.667L580.133 610.6C573.067 608.2 569.6 606.2 566.8 602.867C563.067 598.467 562.667 598.333 551.6 597.933C540.267 597.4 540.267 597.4 536.267 592.467C534.133 589.8 529.867 586.467 526.8 585C522.533 583.133 521.333 581.933 521.6 579.8C522 577 523.2 576.733 534.8 577.8C543.2 578.467 550.667 570.2 546.8 564.067C545.467 561.8 545.467 561.133 546.8 560.333C547.733 559.667 548.4 557.4 548.4 555.133V551L573.867 550.733C587.867 550.467 605.6 550.467 613.333 550.6C621.067 550.733 676.133 550.867 735.733 550.867ZM842.267 650.6C839.867 713.8 829.2 788.733 817.333 825.533C815.467 831.667 815.067 834.467 816 835.8C817.067 837 816.933 837.667 815.867 838.467C814.8 839 814.667 838.867 815.2 837.933C815.733 837 815.733 836.333 815.067 836.333C814.533 836.333 812.933 839.8 811.467 844.067C807.333 856.733 785.6 914.467 777.733 933.667C762 971.8 738.4 1016.47 715.733 1051.13C702.133 1071.93 683.067 1097.93 682.267 1096.73C681.067 1094.87 671.067 1056.87 663.467 1025.67C652 978.2 650.267 969.933 630.533 860.867C623.467 821.267 607.733 702.733 609.467 701.133C609.867 700.733 613.867 701 618.533 701.8C625.733 702.867 627.6 702.733 631.733 700.733C635.867 698.733 641.467 692.6 642.933 688.333C643.2 687.667 649.067 686.867 656 686.6C667.2 686.067 671.6 685.133 695.333 677.267C710 672.467 729.867 666.067 739.333 663.133C748.933 660.333 762.4 655.8 769.333 653.267C776.267 650.733 786.133 647.933 791.067 647C800.4 645.267 800.933 644.867 801.733 639C802.4 634.733 806.4 634.067 813.467 636.867C819.467 639.267 823.467 638.2 831.867 631.8C834.4 629.933 838 628.333 839.867 628.333H843.067L842.267 650.6Z"
      fill="currentColor"
    />
  </symbol>
</svg>
