<svg>
    <symbol id="icon-chevron-right"
            xmlns="http://www.w3.org/2000/svg"
            viewBox="0 0 320 512"
            fill="currentColor">
        <path d="M310.6 233.4c12.5 12.5 12.5 32.8 0 45.3l-192 192c-12.5 12.5-32.8 12.5-45.3 0s-12.5-32.8 0-45.3L242.7 256 73.4 86.6c-12.5-12.5-12.5-32.8 0-45.3s32.8-12.5 45.3 0l192 192z" />
    </symbol>
    <symbol id="icon-chevron-left"
            xmlns="http://www.w3.org/2000/svg"
            viewBox="0 0 320 512"
            fill="currentColor">
        <path d="M9.4 233.4c-12.5 12.5-12.5 32.8 0 45.3l192 192c12.5 12.5 32.8 12.5 45.3 0s12.5-32.8 0-45.3L77.3 256 246.6 86.6c12.5-12.5 12.5-32.8 0-45.3s-32.8-12.5-45.3 0l-192 192z" />
    </symbol>
    <symbol id="icon-chevron-down"
            xmlns="http://www.w3.org/2000/svg"
            viewBox="0 0 24 24"
            fill="none"
            stroke="currentColor"
            stroke-width="2"
            stroke-linecap="round"
            stroke-linejoin="round">
        <polyline points="6 9 12 15 18 9" />
    </symbol>
    <symbol id="icon-chevron-up"
            xmlns="http://www.w3.org/2000/svg"
            viewBox="0 -960 960 960"
            fill="currentColor">
        <path d="M480-528 296-344l-56-56 240-240 240 240-56 56-184-184Z" />
    </symbol>
    <symbol id="icon-double-chevron-left"
            xmlns="http://www.w3.org/2000/svg"
            viewBox="0 0 24 24"
            fill="none"
            stroke="currentColor"
            stroke-width="2"
            stroke-linecap="round"
            stroke-linejoin="round">
        <polyline points="11 17 6 12 11 7" />
        <polyline points="18 17 13 12 18 7" />
    </symbol>
    <symbol id="icon-double-chevron-right"
            xmlns="http://www.w3.org/2000/svg"
            viewBox="0 0 24 24"
            fill="none"
            stroke="currentColor"
            stroke-width="2"
            stroke-linecap="round"
            stroke-linejoin="round">
        <polyline points="13 17 18 12 13 7" />
        <polyline points="6 17 11 12 6 7" />
    </symbol>
    <symbol id="icon-close"
            xmlns="http://www.w3.org/2000/svg"
            viewBox="0 0 24 24"
            fill="none"
            stroke="currentColor"
            stroke-width="2"
            stroke-linecap="round"
            stroke-linejoin="round">
        <line x1="18"
              y1="6"
              x2="6"
              y2="18" />
        <line x1="6"
              y1="6"
              x2="18"
              y2="18" />
    </symbol>
    <symbol id="icon-search"
            xmlns="http://www.w3.org/2000/svg"
            viewBox="0 0 24 24"
            fill="none"
            stroke="currentColor"
            strokeWidth="2"
            strokeLinecap="round"
            strokeLinejoin="round">
        <circle cx="11"
                cy="11"
                r="8" />
        <line x1="21"
              y1="21"
              x2="16.65"
              y2="16.65" />
    </symbol>
    <symbol id="icon-info"
            xmlns="http://www.w3.org/2000/svg"
            viewBox="0 0 24 24"
            fill="currentColor">
        <path d="M12 2C6.486 2 2 6.486 2 12s4.486 10 10 10 10-4.486 10-10S17.514 2 12 2zm0 18c-4.411 0-8-3.589-8-8s3.589-8 8-8 8 3.589 8 8-3.589 8-8 8z" />
        <path d="M11 11h2v6h-2zm0-4h2v2h-2z" />
    </symbol>
    <symbol id="icon-skull"
            xmlns="http://www.w3.org/2000/svg"
            viewBox="0 0 24 24"
            fill="currentColor">
        <path d="M12 2C5.505 2 2 6.637 2 11c0 2.129 1.009 3.979 3 5.508V21h3v-3h2v3h4v-3h2v3h3v-4.493c1.991-1.528 3-3.379 3-5.507 0-4.363-3.505-9-10-9zM8 13c-1.121 0-2-1.098-2-2.5S6.879 8 8 8s2 1.098 2 2.5S9.121 13 8 13zm8 0c-1.121 0-2-1.098-2-2.5S14.879 8 16 8s2 1.098 2 2.5-.879 2.5-2 2.5z" />
    </symbol>
    <symbol id="icon-menu"
            xmlns="http://www.w3.org/2000/svg"
            viewBox="0 0 24 24"
            fill="none"
            stroke="currentColor"
            strokeWidth="2"
            strokeLinecap="round"
            strokeLinejoin="round">
        <line x1="3"
              y1="12"
              x2="21"
              y2="12" />
        <line x1="3"
              y1="6"
              x2="21"
              y2="6" />
        <line x1="3"
              y1="18"
              x2="21"
              y2="18" />
    </symbol>
    <symbol id="icon-more-vertical"
            xmlns="http://www.w3.org/2000/svg"
            viewBox="0 0 24 24"
            fill="none"
            stroke="currentColor"
            strokeWidth="2"
            strokeLinecap="round"
            strokeLinejoin="round">
        <circle cx="12"
                cy="12"
                r="1" />
        <circle cx="12"
                cy="5"
                r="1" />
        <circle cx="12"
                cy="19"
                r="1" />
    </symbol>
    <symbol id="icon-eye"
            xmlns="http://www.w3.org/2000/svg"
            fill="currentColor"
            viewBox="0 0 16 16">
        <path d="M16 8s-3-5.5-8-5.5S0 8 0 8s3 5.5 8 5.5S16 8 16 8M1.173 8a13 13 0 0 1 1.66-2.043C4.12 4.668 5.88 3.5 8 3.5s3.879 1.168 5.168 2.457A13 13 0 0 1 14.828 8q-.086.13-.195.288c-.335.48-.83 1.12-1.465 1.755C11.879 11.332 10.119 12.5 8 12.5s-3.879-1.168-5.168-2.457A13 13 0 0 1 1.172 8z" />
        <path d="M8 5.5a2.5 2.5 0 1 0 0 5 2.5 2.5 0 0 0 0-5M4.5 8a3.5 3.5 0 1 1 7 0 3.5 3.5 0 0 1-7 0" />
    </symbol>
    <symbol id="icon-eye-slash"
            xmlns="http://www.w3.org/2000/svg"
            fill="currentColor"
            viewBox="0 0 16 16">
        <path d="M13.359 11.238C15.06 9.72 16 8 16 8s-3-5.5-8-5.5a7 7 0 0 0-2.79.588l.77.771A6 6 0 0 1 8 3.5c2.12 0 3.879 1.168 5.168 2.457A13 13 0 0 1 14.828 8q-.086.13-.195.288c-.335.48-.83 1.12-1.465 1.755q-.247.248-.517.486z" />
        <path d="M11.297 9.176a3.5 3.5 0 0 0-4.474-4.474l.823.823a2.5 2.5 0 0 1 2.829 2.829zm-2.943 1.299.822.822a3.5 3.5 0 0 1-4.474-4.474l.823.823a2.5 2.5 0 0 0 2.829 2.829" />
        <path d="M3.35 5.47q-.27.24-.518.487A13 13 0 0 0 1.172 8l.195.288c.335.48.83 1.12 1.465 1.755C4.121 11.332 5.881 12.5 8 12.5c.716 0 1.39-.133 2.02-.36l.77.772A7 7 0 0 1 8 13.5C3 13.5 0 8 0 8s.939-1.721 2.641-3.238l.708.709zm10.296 8.884-12-12 .708-.708 12 12z" />
    </symbol>
    <symbol id="icon-add-image"
            xmlns="http://www.w3.org/2000/svg"
            viewBox="0 0 24 24"
            fill="none"
            stroke="currentColor"
            stroke-width="2"
            stroke-linecap="round"
            stroke-linejoin="round"
            class="feather feather-image">
        <rect x="3"
              y="3"
              width="18"
              height="18"
              rx="2"
              ry="2" />
        <circle cx="8.5"
                cy="8.5"
                r="1.5" />
        <polyline points="21 15 16 10 5 21" />
    </symbol>
    <symbol id="icon-sun"
            xmlns="http://www.w3.org/2000/svg"
            viewBox="0 0 24 24"
            fill="none"
            stroke="currentColor"
            stroke-width="2"
            stroke-linecap="round"
            stroke-linejoin="round">
        <circle cx="12"
                cy="12"
                r="5" />
        <line x1="12"
              y1="1"
              x2="12"
              y2="3" />
        <line x1="12"
              y1="21"
              x2="12"
              y2="23" />
        <line x1="4.22"
              y1="4.22"
              x2="5.64"
              y2="5.64" />
        <line x1="18.36"
              y1="18.36"
              x2="19.78"
              y2="19.78" />
        <line x1="1"
              y1="12"
              x2="3"
              y2="12" />
        <line x1="21"
              y1="12"
              x2="23"
              y2="12" />
        <line x1="4.22"
              y1="19.78"
              x2="5.64"
              y2="18.36" />
        <line x1="18.36"
              y1="5.64"
              x2="19.78"
              y2="4.22" />
    </symbol>
    <symbol id="icon-moon"
            xmlns="http://www.w3.org/2000/svg"
            viewBox="0 0 24 24"
            fill="none"
            stroke="currentColor"
            stroke-width="2"
            stroke-linecap="round"
            stroke-linejoin="round"
            class="feather feather-moon">
        <path d="M21 12.79A9 9 0 1 1 11.21 3 7 7 0 0 0 21 12.79z" />
    </symbol>
    <symbol id="icon-external-link"
            xmlns="http://www.w3.org/2000/svg"
            viewBox="0 0 24 24"
            fill="currentColor"
            role="presentation">
        <path d="M21.6 21.6H2.4V2.4h7.2V0H0v24h24v-9.6h-2.4v7.2zM14.4 0v2.4h4.8L7.195 14.49l2.4 2.4L21.6 4.8v4.8H24V0h-9.6z" />
    </symbol>
    <symbol id="icon-quote"
            xmlns="http://www.w3.org/2000/svg"
            viewBox="0 0 24 24"
            fill="currentColor">
        <path d="M9.983 3v7.391c0 5.704-3.731 9.57-8.983 10.609l-.995-2.151c2.432-.917 3.995-3.638 3.995-5.849h-4v-10h9.983zm14.017 0v7.391c0 5.704-3.748 9.571-9 10.609l-.996-2.151c2.433-.917 3.996-3.638 3.996-5.849h-3.983v-10h9.983z" />
    </symbol>
    <symbol id="icon-imdb"
            xmlns="http://www.w3.org/2000/svg"
            viewBox="0 0 64 32"
            version="1.1">
        <g fill="#F5C518">
            <rect x="0"
                  y="0"
                  width="100%"
                  height="100%"
                  rx="4" />
        </g>
        <g transform="translate(8.000000, 7.000000)"
           fill="#000000"
           fillRule="nonzero">
            <polygon points="0 18 5 18 5 0 0 0" />
            <path d="M15.6725178,0 L14.5534833,8.40846934 L13.8582008,3.83502426 C13.65661,2.37009263 13.4632474,1.09175121 13.278113,0 L7,0 L7,18 L11.2416347,18 L11.2580911,6.11380679 L13.0436094,18 L16.0633571,18 L17.7583653,5.8517865 L17.7707076,18 L22,18 L22,0 L15.6725178,0 Z" />
            <path d="M24,18 L24,0 L31.8045586,0 C33.5693522,0 35,1.41994415 35,3.17660424 L35,14.8233958 C35,16.5777858 33.5716617,18 31.8045586,18 L24,18 Z M29.8322479,3.2395236 C29.6339219,3.13233348 29.2545158,3.08072342 28.7026524,3.08072342 L28.7026524,14.8914865 C29.4312846,14.8914865 29.8796736,14.7604764 30.0478195,14.4865461 C30.2159654,14.2165858 30.3021941,13.486105 30.3021941,12.2871637 L30.3021941,5.3078959 C30.3021941,4.49404499 30.272014,3.97397442 30.2159654,3.74371416 C30.1599168,3.5134539 30.0348852,3.34671372 29.8322479,3.2395236 Z" />
            <path d="M44.4299079,4.50685823 L44.749518,4.50685823 C46.5447098,4.50685823 48,5.91267586 48,7.64486762 L48,14.8619906 C48,16.5950653 46.5451816,18 44.749518,18 L44.4299079,18 C43.3314617,18 42.3602746,17.4736618 41.7718697,16.6682739 L41.4838962,17.7687785 L37,17.7687785 L37,0 L41.7843263,0 L41.7843263,5.78053556 C42.4024982,5.01015739 43.3551514,4.50685823 44.4299079,4.50685823 Z M43.4055679,13.2842155 L43.4055679,9.01907814 C43.4055679,8.31433946 43.3603268,7.85185468 43.2660746,7.63896485 C43.1718224,7.42607505 42.7955881,7.2893916 42.5316822,7.2893916 C42.267776,7.2893916 41.8607934,7.40047379 41.7816216,7.58767002 L41.7816216,9.01907814 L41.7816216,13.4207851 L41.7816216,14.8074788 C41.8721037,15.0130276 42.2602358,15.1274059 42.5316822,15.1274059 C42.8031285,15.1274059 43.1982131,15.0166981 43.281155,14.8074788 C43.3640968,14.5982595 43.4055679,14.0880581 43.4055679,13.2842155 Z" />
        </g>
    </symbol>
    <symbol id="icon-home"
            xmlns="http://www.w3.org/2000/svg"
            fill="none"
            viewBox="0 0 16 16">
        <path d="M8.707 1.5a1 1 0 0 0-1.414 0L.646 8.146a.5.5 0 0 0 .708.708L2 8.207V13.5A1.5 1.5 0 0 0 3.5 15h9a1.5 1.5 0 0 0 1.5-1.5V8.207l.646.647a.5.5 0 0 0 .708-.708L13 5.793V2.5a.5.5 0 0 0-.5-.5h-1a.5.5 0 0 0-.5.5v1.293zM13 7.207V13.5a.5.5 0 0 1-.5.5h-9a.5.5 0 0 1-.5-.5V7.207l5-5z"
              stroke="currentColor"
              stroke-width="1"
              stroke-linecap="round"
              stroke-linejoin="round" />
    </symbol>
    <symbol id="icon-cinema"
            xmlns="http://www.w3.org/2000/svg"
            viewBox="0 0 24 24"
            fill="none">
        <path d="M20 20H4C2.9 20 2 19.1 2 18V6C2 4.9 2.9 4 4 4H20C21.1 4 22 4.9 22 6V18C22 19.1 21.1 20 20 20Z"
              stroke="currentColor"
              stroke-width="2"
              stroke-miterlimit="10"
              stroke-linecap="round"
              stroke-linejoin="round" />
        <path d="M2 9H22"
              stroke="currentColor"
              stroke-width="2"
              stroke-miterlimit="10"
              stroke-linecap="round"
              stroke-linejoin="round" />
        <path d="M11 9L6 4"
              stroke="currentColor"
              stroke-width="2"
              stroke-miterlimit="10"
              stroke-linecap="round"
              stroke-linejoin="round" />
        <path d="M18 9L13 4"
              stroke="currentColor"
              stroke-width="2"
              stroke-miterlimit="10"
              stroke-linecap="round"
              stroke-linejoin="round" />
    </symbol>
    <symbol id="icon-tv"
            viewBox="0 0 24 24"
            fill="none"
            xmlns="http://www.w3.org/2000/svg">
        <path d="M4 20H20C21.1 20 22 19.1 22 18V8C22 6.9 21.1 6 20 6H4C2.9 6 2 6.9 2 8V18C2 19.1 2.9 20 4 20Z"
              stroke="currentColor"
              stroke-width="2"
              stroke-miterlimit="10"
              stroke-linecap="round"
              stroke-linejoin="round" />
        <path d="M12 6L16 2"
              stroke="currentColor"
              stroke-width="2"
              stroke-miterlimit="10"
              stroke-linecap="round"
              stroke-linejoin="round" />
        <path d="M12 6L8 2"
              stroke="currentColor"
              stroke-width="2"
              stroke-miterlimit="10"
              stroke-linecap="round"
              stroke-linejoin="round" />
        <path d="M17 11H18"
              stroke="currentColor"
              stroke-width="2"
              stroke-miterlimit="10"
              stroke-linecap="round"
              stroke-linejoin="round" />
        <path d="M17 15H18"
              stroke="currentColor"
              stroke-width="2"
              stroke-miterlimit="10"
              stroke-linecap="round"
              stroke-linejoin="round" />
    </symbol>
    <symbol id="icon-video-games"
            xmlns="http://www.w3.org/2000/svg"
            viewBox="0 0 24 24"
            fill="none">
        <path d="M7 15V11"
              stroke="currentColor"
              stroke-width="2"
              stroke-miterlimit="10"
              stroke-linecap="round"
              stroke-linejoin="round" />
        <path d="M5 13H9"
              stroke="currentColor"
              stroke-width="2"
              stroke-miterlimit="10"
              stroke-linecap="round"
              stroke-linejoin="round" />
        <path d="M17 15C18.1046 15 19 14.1046 19 13C19 11.8954 18.1046 11 17 11C15.8954 11 15 11.8954 15 13C15 14.1046 15.8954 15 17 15Z"
              stroke="currentColor"
              stroke-width="2"
              stroke-miterlimit="10"
              stroke-linecap="round"
              stroke-linejoin="round" />
        <path d="M12 6V2"
              stroke="currentColor"
              stroke-width="2"
              stroke-miterlimit="10"
              stroke-linecap="round"
              stroke-linejoin="round" />
        <path d="M23 8V15.17C23 15.7 22.79 16.21 22.41 16.58L19.58 19.41C19.21 19.79 18.7 20 18.17 20H5.83C5.3 20 4.79 19.79 4.42 19.41L1.59 16.58C1.21 16.21 1 15.7 1 15.17V8C1 6.9 1.9 6 3 6H21C22.1 6 23 6.9 23 8Z"
              stroke="currentColor"
              stroke-width="2"
              stroke-miterlimit="10"
              stroke-linecap="round"
              stroke-linejoin="round" />
    </symbol>
    <symbol id="icon-classical"
            xmlns="http://www.w3.org/2000/svg"
            fill="currentColor"
            viewBox="0 0 16 16">
        <path d="M11 6.64a1 1 0 0 0-1.243-.97l-1 .25A1 1 0 0 0 8 6.89v4.306A2.572 2.572 0 0 0 7 11c-.5 0-.974.134-1.338.377-.36.24-.662.628-.662 1.123s.301.883.662 1.123c.364.243.839.377 1.338.377.5 0 .974-.134 1.338-.377.36-.24.662-.628.662-1.123V8.89l2-.5V6.64z" />
        <path d="M14 14V4.5L9.5 0H4a2 2 0 0 0-2 2v12a2 2 0 0 0 2 2h8a2 2 0 0 0 2-2M9.5 3A1.5 1.5 0 0 0 11 4.5h2V14a1 1 0 0 1-1 1H4a1 1 0 0 1-1-1V2a1 1 0 0 1 1-1h5.5z" />
    </symbol>
    <symbol id="icon-user"
            xmlns="http://www.w3.org/2000/svg"
            fill="currentColor"
            viewBox="0 0 24 24">
        <path d="M12 2A10.13 10.13 0 0 0 2 12a10 10 0 0 0 4 7.92V20h.1a9.7 9.7 0 0 0 11.8 0h.1v-.08A10 10 0 0 0 22 12 10.13 10.13 0 0 0 12 2zM8.07 18.93A3 3 0 0 1 11 16.57h2a3 3 0 0 1 2.93 2.36 7.75 7.75 0 0 1-7.86 0zm9.54-1.29A5 5 0 0 0 13 14.57h-2a5 5 0 0 0-4.61 3.07A8 8 0 0 1 4 12a8.1 8.1 0 0 1 8-8 8.1 8.1 0 0 1 8 8 8 8 0 0 1-2.39 5.64z" />
        <path d="M12 6a3.91 3.91 0 0 0-4 4 3.91 3.91 0 0 0 4 4 3.91 3.91 0 0 0 4-4 3.91 3.91 0 0 0-4-4zm0 6a1.91 1.91 0 0 1-2-2 1.91 1.91 0 0 1 2-2 1.91 1.91 0 0 1 2 2 1.91 1.91 0 0 1-2 2z" />
    </symbol>
    <symbol id="icon-logout"
            xmlns="http://www.w3.org/2000/svg"
            viewBox="0 0 24 24"
            fill="none"
            stroke="currentColor"
            stroke-width="2"
            stroke-linecap="round"
            stroke-linejoin="round">
        <path d="M9 21H5a2 2 0 0 1-2-2V5a2 2 0 0 1 2-2h4" />
        <polyline points="16 17 21 12 16 7" />
        <line x1="21"
              y1="12"
              x2="9"
              y2="12" />
    </symbol>
    <symbol id="icon-imdb-star"
            xmlns="http://www.w3.org/2000/svg"
            viewBox="0 0 24 24"
            fill="currentColor"
            role="presentation">
        <path d="M12 17.27l4.15 2.51c.76.46 1.69-.22 1.49-1.08l-1.1-4.72 3.67-3.18c.67-.58.31-1.68-.57-1.75l-4.83-.41-1.89-4.46c-.34-.81-1.5-.81-1.84 0L9.19 8.63l-4.83.41c-.88.07-1.24 1.17-.57 1.75l3.67 3.18-1.1 4.72c-.2.86.73 1.54 1.49 1.08l4.15-2.5z" />
    </symbol>
    <symbol id="icon-save"
            xmlns="http://www.w3.org/2000/svg"
            viewBox="0 0 24 24"
            fill="none"
            stroke="currentColor"
            strokeWidth="2"
            strokeLinecap="round"
            strokeLinejoin="round">
        <path d="M19 21H5a2 2 0 0 1-2-2V5a2 2 0 0 1 2-2h11l5 5v11a2 2 0 0 1-2 2z" />
        <polyline points="17 21 17 13 7 13 7 21" />
        <polyline points="7 3 7 8 15 8" />
    </symbol>
    <symbol id="icon-download"
            fill="currentColor"
            viewBox="0 0 24 24"
            xmlns="http://www.w3.org/2000/svg">
        <path d="M4,20H20a1,1,0,0,1,0,2H4a1,1,0,0,1,0-2ZM12,2a1,1,0,0,0-1,1V14.586L8.707,12.293a1,1,0,1,0-1.414,1.414l4,4a1,1,0,0,0,.325.216.986.986,0,0,0,.764,0,1,1,0,0,0,.325-.216l4-4a1,1,0,0,0-1.414-1.414L13,14.586V3A1,1,0,0,0,12,2Z" />
    </symbol>
    <symbol id="icon-headphones"
            xmlns="http://www.w3.org/2000/svg"
            fill="currentColor"
            viewBox="0 0 16 16">
        <path d="M8 3a5 5 0 0 0-5 5v1h1a1 1 0 0 1 1 1v3a1 1 0 0 1-1 1H3a1 1 0 0 1-1-1V8a6 6 0 1 1 12 0v5a1 1 0 0 1-1 1h-1a1 1 0 0 1-1-1v-3a1 1 0 0 1 1-1h1V8a5 5 0 0 0-5-5" />
    </symbol>
    <symbol id="icon-file"
            xmlns="http://www.w3.org/2000/svg"
            viewBox="0 0 24 24"
            fill="none"
            stroke="currentColor"
            strokeWidth="2"
            strokeLinecap="round"
            strokeLinejoin="round">
        <path d="M13 2H6a2 2 0 0 0-2 2v16a2 2 0 0 0 2 2h12a2 2 0 0 0 2-2V9z" />
        <polyline points="13 2 13 9 20 9" />
    </symbol>
    <symbol id="icon-sheet-file"
            xmlns="http://www.w3.org/2000/svg"
            viewBox="0 0 24 24"
            fill="none"
            stroke="currentColor"
            strokeWidth="2"
            strokeLinecap="round"
            strokeLinejoin="round">
        <path d="M14 2H6a2 2 0 0 0-2 2v16a2 2 0 0 0 2 2h12a2 2 0 0 0 2-2V8z" />
        <polyline points="14 2 14 8 20 8" />
        <line x1="16"
              y1="13"
              x2="8"
              y2="13" />
        <line x1="16"
              y1="17"
              x2="8"
              y2="17" />
        <polyline points="10 9 9 9 8 9" />
    </symbol>
    <symbol id="icon-share"
            xmlns="http://www.w3.org/2000/svg"
            viewBox="0 0 24 24"
            fill="none"
            stroke="currentColor"
            strokeWidth="2"
            strokeLinecap="round"
            strokeLinejoin="round">
        <circle cx="18"
                cy="5"
                r="3" />
        <circle cx="6"
                cy="12"
                r="3" />
        <circle cx="18"
                cy="19"
                r="3" />
        <line x1="8.59"
              y1="13.51"
              x2="15.42"
              y2="17.49" />
        <line x1="15.41"
              y1="6.51"
              x2="8.59"
              y2="10.49" />
    </symbol>
    <symbol id="icon-print"
            xmlns="http://www.w3.org/2000/svg"
            viewBox="0 0 24 24"
            fill="none"
            stroke="currentColor"
            strokeWidth="2"
            strokeLinecap="round"
            strokeLinejoin="round">
        <polyline points="6 9 6 2 18 2 18 9" />
        <path d="M6 18H4a2 2 0 0 1-2-2v-5a2 2 0 0 1 2-2h16a2 2 0 0 1 2 2v5a2 2 0 0 1-2 2h-2" />
        <rect x="6"
              y="14"
              width="12"
              height="8" />
    </symbol>
    <symbol id="icon-midi"
            xmlns="http://www.w3.org/2000/svg"
            xmlns:xlink="http://www.w3.org/1999/xlink"
            fill="currentColor"
            version="1.1"
            xml:space="preserve"
            viewBox="31.36 0 485.57 548.29">
        <g>
            <path d="M486.201,196.116h-13.166V132.59c0-0.399-0.062-0.795-0.115-1.2c-0.021-2.522-0.825-5-2.552-6.96L364.657,3.677   c-0.033-0.034-0.064-0.044-0.085-0.075c-0.63-0.704-1.364-1.292-2.143-1.796c-0.229-0.157-0.461-0.286-0.702-0.419   c-0.672-0.365-1.387-0.672-2.121-0.893c-0.2-0.052-0.379-0.134-0.577-0.188C358.23,0.118,357.401,0,356.562,0H96.757   C84.894,0,75.256,9.649,75.256,21.502v174.613H62.092c-16.971,0-30.732,13.756-30.732,30.73v159.81   c0,16.966,13.761,30.736,30.732,30.736h13.164V526.79c0,11.854,9.638,21.501,21.501,21.501h354.776   c11.853,0,21.501-9.647,21.501-21.501V417.392h13.166c16.966,0,30.729-13.764,30.729-30.731V226.854   C516.93,209.872,503.167,196.116,486.201,196.116z M96.757,21.502h249.054v110.006c0,5.94,4.817,10.751,10.751,10.751h94.972   v53.861H96.757V21.502z M310.14,237.605v141.036h-32.016V237.605H310.14z M253.667,378.652h-31.184l-2.097-53.985   c-0.622-16.946-1.252-37.466-1.252-57.967h-0.622c-4.394,17.998-10.257,38.082-15.704,54.617l-17.147,55.029h-24.903   l-15.074-54.608c-4.602-16.526-9.413-36.632-12.756-55.038H132.5c-0.829,19.037-1.456,40.812-2.506,58.386l-2.509,53.566H97.978   l9-141.042h42.481l13.798,47.087c4.391,16.314,8.795,33.9,11.934,50.425h0.628c3.979-16.314,8.795-34.939,13.391-50.636   l15.066-46.876h41.643L253.667,378.652z M451.534,520.962H96.757v-103.57h354.776V520.962z M439.041,361.894   c-14.873,12.363-37.461,18.222-65.082,18.222c-16.531,0-28.254-1.046-36.206-2.095V239.484c11.733-1.879,26.998-2.919,43.114-2.919   c26.776,0,44.152,4.811,57.753,15.069c14.657,10.874,23.858,28.245,23.858,53.148C462.467,331.78,452.63,350.398,439.041,361.894z" />
            <path d="M384.214,261.051c-7.118,0-11.732,0.627-14.446,1.247v92.286c2.714,0.629,7.112,0.629,11.088,0.629   c28.87,0.199,47.706-15.696,47.706-49.392C428.783,276.528,411.623,261.051,384.214,261.051z" />
        </g>
    </symbol>
    <symbol id="icon-midi-text"
            xmlns="http://www.w3.org/2000/svg"
            viewBox="0 0 24 24">
        <path fill="currentColor"
              d="M20.15 8.26H22v7.48h-1.85M13 8.26h5.43c.57 0 .87.48.87 1.04v5.51c0 .69-.3.93-.92.93H13V11h1.87v2.91h2.63V9.95H13m-2.68-1.69h1.82v7.48h-1.82M2 8.26h6.55c.55 0 .86.48.86 1.04v6.44H7.59v-5.59H6.5v5.59H4.87v-5.59H3.83v5.59H2Z" />
    </symbol>
    <symbol id="icon-pdf"
            xmlns="http://www.w3.org/2000/svg"
            viewBox="0 0 512 512">
        <path fill="currentColor"
              d="M64 464h48v48H64c-35.3 0-64-28.7-64-64V64C0 28.7 28.7 0 64 0h165.5c17 0 33.3 6.7 45.3 18.7l90.5 90.5c12 12 18.7 28.3 18.7 45.3V304h-48V160h-80c-17.7 0-32-14.3-32-32V48H64c-8.8 0-16 7.2-16 16v384c0 8.8 7.2 16 16 16zm112-112h32c30.9 0 56 25.1 56 56s-25.1 56-56 56h-16v32c0 8.8-7.2 16-16 16s-16-7.2-16-16V368c0-8.8 7.2-16 16-16zm32 80c13.3 0 24-10.7 24-24s-10.7-24-24-24h-16v48h16zm96-80h32c26.5 0 48 21.5 48 48v64c0 26.5-21.5 48-48 48h-32c-8.8 0-16-7.2-16-16V368c0-8.8 7.2-16 16-16zm32 128c8.8 0 16-7.2 16-16v-64c0-8.8-7.2-16-16-16h-16v96h16zm80-112c0-8.8 7.2-16 16-16h48c8.8 0 16 7.2 16 16s-7.2 16-16 16h-32v32h32c8.8 0 16 7.2 16 16s-7.2 16-16 16h-32v48c0 8.8-7.2 16-16 16s-16-7.2-16-16V368z" />
    </symbol>
    <symbol id="icon-pdf-text"
            xmlns="http://www.w3.org/2000/svg"
            xmlns:xlink="http://www.w3.org/1999/xlink"
            version="1.1"
            x="0px"
            y="0px"
            enable-background="new 0 0 256 256"
            xml:space="preserve"
            viewBox="10 85.2 236 85.71">
        <g>
            <g>
                <path fill="currentColor"
                      d="M26.6,136.3V163c0,1.2-0.5,2.7-1.6,4.5c-1.1,1.8-3.2,2.7-6.3,2.8c-3.2,0-5.4-0.8-6.7-2.5c-1.3-1.7-2-3.3-2-4.8v-62.7c0-2.5,0.3-4.6,0.9-6.6c0.6-2,1.6-3.5,3-4.8c1.3-1.3,3.2-2.2,5.4-2.8s4.6-0.9,7-0.9h27.8c2,0,5,0.3,8.9,0.8c3.9,0.5,7.2,1.4,9.9,2.7c2.7,1.3,5.2,3.7,7.6,7c2.4,3.4,3.7,7.2,3.9,11.7c0.3,4.4,0,8.2-0.9,11.4c-1.3,5-3.5,8.7-6.3,11.3c-2.9,2.5-6.2,4.2-10,5.1c-3.8,0.8-8.2,1.3-13.2,1.3L26.6,136.3L26.6,136.3z M26.6,121.7h30.8c2.9,0,5-0.5,6.5-1.6c1.4-1.1,2.5-2.5,3-4.3c0.6-1.8,0.9-3.6,0.9-5.3c-0.1-2.6-0.7-4.7-1.8-6.4c-1.1-1.7-2.5-2.9-4.1-3.6c-1.6-0.6-3.2-1-4.7-1.1H32.4c-1.5,0-2.7,0.2-3.5,0.6s-1.4,0.8-1.8,1.3c-0.3,0.5-0.5,1.5-0.5,3V121.7L26.6,121.7z" />
                <path fill="currentColor"
                      d="M91.1,151.3v-48.6c0-3.2,0.4-5.8,1.1-7.9c0.7-2,2-3.7,3.7-5.1c1.8-1.3,3.8-2.2,6-2.5c2.2-0.3,4.6-0.4,7-0.4h13.5c3.5,0,7.2,0.3,11.3,0.9c4,0.6,8.4,1.9,13.1,3.9c4.7,2,8.7,4.8,12,8.6c3.3,3.8,5.8,8,7.3,12.7s2.3,9.4,2.3,14.2c0,4.8-0.7,9.6-2.1,14.5c-1.7,5.6-3.9,10-6.7,13.2c-2.8,3.3-6.1,6-10,8.4c-3.9,2.3-7.6,3.8-11,4.6c-3.5,0.7-6.6,1.2-9.3,1.5c-2.7,0.3-5,0.4-6.9,0.4h-16.1c-1.3,0-3.4-0.3-6.2-0.8c-2.8-0.5-4.9-1.5-6.2-3.1s-2.2-3.7-2.5-6.5C91.3,156.7,91.1,154,91.1,151.3z M118.5,100.6h-6.3c-0.7,0-1.4,0-2.1,0.1c-0.7,0-1.3,0.3-1.8,0.9c-0.5,0.6-0.8,1.3-0.8,2.3v48.7c0,1.2,0.2,2.2,0.7,3c0.5,0.8,1.5,1.2,3.2,1.1l5.9-0.1c5.6-0.1,9.4-0.2,11.4-0.4c2-0.2,4.6-0.9,7.6-2s5.9-3.1,8.5-5.8c2.6-2.7,4.5-5.8,5.5-9.3c1.1-3.5,1.5-7.5,1.4-12c-0.3-6.2-1.4-11-3.5-14.4c-2.1-3.5-4.6-6-7.5-7.6c-2.9-1.6-5.8-2.7-8.9-3.4C128.9,100.9,124.4,100.6,118.5,100.6z" />
                <path fill="currentColor"
                      d="M191.6,135.1v27.3c0,1.5-0.6,3.3-1.6,5.3c-1.1,2-3.3,3-6.5,3.2c-3.3,0.1-5.4-0.9-6.5-3c-1.1-2.1-1.6-4-1.6-5.6v-60.5c0-2.1,0.3-4.2,0.8-6.3c0.5-2.1,1.4-3.7,2.7-5s3-2.2,5.2-2.9c2.1-0.7,4.5-1,6.9-1h47.5c1.8,0,3.5,0.6,5.1,1.9c1.6,1.3,2.4,3,2.4,5.3c-0.1,3-1,4.9-2.8,5.9c-1.8,1-3.3,1.5-4.6,1.5H197c-2,0-3.3,0.2-3.9,0.7c-0.6,0.5-0.9,0.9-1.1,1.4c-0.2,0.5-0.3,1.5-0.3,3v13.9h46.2c1.6,0,3.3,0.5,5.1,1.6c1.8,1.1,2.7,2.9,2.7,5.5c0,2.6-0.8,4.5-2.6,5.8c-1.8,1.2-3.5,1.8-5.2,1.8L191.6,135.1L191.6,135.1z" />
            </g>
        </g>
    </symbol>
    <symbol id="icon-movie"
            xmlns="http://www.w3.org/2000/svg"
            width="24"
            height="24"
            viewBox="0 0 24 24"
            fill="none"
            stroke="currentColor"
            strokeWidth="2"
            strokeLinecap="round"
            strokeLinejoin="round">
        <rect x="2"
              y="2"
              width="20"
              height="20"
              rx="2.18"
              ry="2.18" />
        <line x1="7"
              y1="2"
              x2="7"
              y2="22" />
        <line x1="17"
              y1="2"
              x2="17"
              y2="22" />
        <line x1="2"
              y1="12"
              x2="22"
              y2="12" />
        <line x1="2"
              y1="7"
              x2="7"
              y2="7" />
        <line x1="2"
              y1="17"
              x2="7"
              y2="17" />
        <line x1="17"
              y1="17"
              x2="22"
              y2="17" />
        <line x1="17"
              y1="7"
              x2="22"
              y2="7" />
    </symbol>
    <symbol id="icon-headphones"
            xmlns="http://www.w3.org/2000/svg"
            viewBox="0 0 24 24"
            fill="none"
            stroke="currentColor"
            strokeWidth="2"
            strokeLinecap="round"
            strokeLinejoin="round">
        <path d="M3 18v-6a9 9 0 0 1 18 0v6" />
        <path d="M21 19a2 2 0 0 1-2 2h-1a2 2 0 0 1-2-2v-3a2 2 0 0 1 2-2h3zM3 19a2 2 0 0 0 2 2h1a2 2 0 0 0 2-2v-3a2 2 0 0 0-2-2H3z" />
    </symbol>
    <symbol id="icon-play"
            fill="currentColor"
            xmlns="http://www.w3.org/2000/svg"
            viewBox="0 0 24 24">
        <path d="M7 6v12l10-6z" />
    </symbol>
    <symbol id="icon-play-circle"
            xmlns="http://www.w3.org/2000/svg"
            viewBox="0 0 24 24"
            fill="none"
            stroke="currentColor"
            strokeWidth="2"
            strokeLinecap="round"
            strokeLinejoin="round">
        <circle cx="12"
                cy="12"
                r="10" />
        <polygon points="10 8 16 12 10 16 10 8" />
    </symbol>
    <symbol id="icon-pause"
            xmlns="http://www.w3.org/2000/svg"
            fill="currentColor"
            viewBox="0 0 24 24">
        <path d="M8 7h3v10H8zm5 0h3v10h-3z" />
    </symbol>
    <symbol id="icon-stop"
            xmlns="http://www.w3.org/2000/svg"
            viewBox="0 0 24 24"
            fill="currentColor"
            stroke="currentColor"
            strokeWidth="2"
            strokeLinecap="round"
            strokeLinejoin="round">
        <rect x="3"
              y="3"
              width="18"
              height="18"
              rx="2"
              ry="2" />
    </symbol>
    <symbol id="icon-stop-circle"
            xmlns="http://www.w3.org/2000/svg"
            viewBox="0 0 24 24"
            fill="none"
            stroke="currentColor"
            strokeWidth="2"
            strokeLinecap="round"
            strokeLinejoin="round">
        <circle cx="12"
                cy="12"
                r="10" />
        <rect x="9"
              y="9"
              width="6"
              height="6" />
    </symbol>
    <symbol id="icon-skip-next"
            xmlns="http://www.w3.org/2000/svg"
            fill="currentColor"
            viewBox="0 0 24 24">
        <path d="M7 7v10l7-5zm9 10V7h-2v10z" />
    </symbol>
    <symbol id="icon-skip-previous"
            xmlns="http://www.w3.org/2000/svg"
            fill="currentColor"
            viewBox="0 0 24 24">
        <path d="m16 7-7 5 7 5zm-7 5V7H7v10h2z" />
    </symbol>
    <symbol id="icon-volume-full"
            xmlns="http://www.w3.org/2000/svg"
            fill="currentColor"
            viewBox="0 0 16 16">
        <path d="M11.536 14.01A8.47 8.47 0 0 0 14.026 8a8.47 8.47 0 0 0-2.49-6.01l-.708.707A7.48 7.48 0 0 1 13.025 8c0 2.071-.84 3.946-2.197 5.303z" />
        <path d="M10.121 12.596A6.48 6.48 0 0 0 12.025 8a6.48 6.48 0 0 0-1.904-4.596l-.707.707A5.48 5.48 0 0 1 11.025 8a5.48 5.48 0 0 1-1.61 3.89z" />
        <path d="M8.707 11.182A4.5 4.5 0 0 0 10.025 8a4.5 4.5 0 0 0-1.318-3.182L8 5.525A3.5 3.5 0 0 1 9.025 8 3.5 3.5 0 0 1 8 10.475zM6.717 3.55A.5.5 0 0 1 7 4v8a.5.5 0 0 1-.812.39L3.825 10.5H1.5A.5.5 0 0 1 1 10V6a.5.5 0 0 1 .5-.5h2.325l2.363-1.89a.5.5 0 0 1 .529-.06" />
    </symbol>
    <symbol id="icon-volume-low"
            xmlns="http://www.w3.org/2000/svg"
            fill="currentColor"
            viewBox="0 0 16 16">
        <path d="M9 4a.5.5 0 0 0-.812-.39L5.825 5.5H3.5A.5.5 0 0 0 3 6v4a.5.5 0 0 0 .5.5h2.325l2.363 1.89A.5.5 0 0 0 9 12zm3.025 4a4.5 4.5 0 0 1-1.318 3.182L10 10.475A3.5 3.5 0 0 0 11.025 8 3.5 3.5 0 0 0 10 5.525l.707-.707A4.5 4.5 0 0 1 12.025 8" />
    </symbol>
    <symbol id="icon-volume-mute"
            xmlns="http://www.w3.org/2000/svg"
            fill="currentColor"
            viewBox="0 0 16 16">
        <path d="M6.717 3.55A.5.5 0 0 1 7 4v8a.5.5 0 0 1-.812.39L3.825 10.5H1.5A.5.5 0 0 1 1 10V6a.5.5 0 0 1 .5-.5h2.325l2.363-1.89a.5.5 0 0 1 .529-.06m7.137 2.096a.5.5 0 0 1 0 .708L12.207 8l1.647 1.646a.5.5 0 0 1-.708.708L11.5 8.707l-1.646 1.647a.5.5 0 0 1-.708-.708L10.793 8 9.146 6.354a.5.5 0 1 1 .708-.708L11.5 7.293l1.646-1.647a.5.5 0 0 1 .708 0" />
    </symbol>
    <symbol id="icon-repeat"
            xmlns="http://www.w3.org/2000/svg"
            fill="currentColor"
            viewBox="0 0 16 16">
        <path d="M11.534 7h3.932a.25.25 0 0 1 .192.41l-1.966 2.36a.25.25 0 0 1-.384 0l-1.966-2.36a.25.25 0 0 1 .192-.41m-11 2h3.932a.25.25 0 0 0 .192-.41L2.692 6.23a.25.25 0 0 0-.384 0L.342 8.59A.25.25 0 0 0 .534 9" />
        <path fill-rule="evenodd"
              d="M8 3c-1.552 0-2.94.707-3.857 1.818a.5.5 0 1 1-.771-.636A6.002 6.002 0 0 1 13.917 7H12.9A5 5 0 0 0 8 3M3.1 9a5.002 5.002 0 0 0 8.757 2.182.5.5 0 1 1 .771.636A6.002 6.002 0 0 1 2.083 9z" />
    </symbol>
    <symbol id="icon-backward-5"
            xmlns="http://www.w3.org/2000/svg"
            fill="currentColor"
            viewBox="0 -960 960 960">
        <path d="M480-80q-75 0-140.5-28.5t-114-77q-48.5-48.5-77-114T120-440h80q0 117 81.5 198.5T480-160q117 0 198.5-81.5T760-440q0-117-81.5-198.5T480-720h-6l62 62-56 58-160-160 160-160 56 58-62 62h6q75 0 140.5 28.5t114 77q48.5 48.5 77 114T840-440q0 75-28.5 140.5t-77 114q-48.5 48.5-114 77T480-80ZM380-320v-60h120v-40H380v-140h180v60H440v40h80q17 0 28.5 11.5T560-420v60q0 17-11.5 28.5T520-320H380Z" />
    </symbol>
    <symbol id="icon-backward-15"
            xmlns="http://www.w3.org/2000/svg"
            fill="currentColor"
            viewBox="0 0.75 15.74 15.25">
        <path d="M2.464 4.5h1.473a.75.75 0 1 1 0 1.5H0V2.063a.75.75 0 0 1 1.5 0v1.27a8.25 8.25 0 1 1 10.539 12.554.75.75 0 0 1-.828-1.25A6.75 6.75 0 1 0 2.464 4.5z" />
        <path d="M.303 8.407c.79 0 1.214-.52 1.214-.907h1.5v8h-1.5V9.907H0v-1.5h.303zm4.832-.911h4.05v1.5H6.33l-.245 1.067c.256-.071.525-.11.804-.11 1.621 0 2.954 1.3 2.954 2.924C9.843 14.5 8.51 15.8 6.89 15.8a2.945 2.945 0 0 1-2.93-2.54l1.487-.197c.092.69.696 1.237 1.443 1.237.813 0 1.454-.647 1.454-1.423s-.64-1.423-1.454-1.423c-.49 0-.92.235-1.183.594l-.01.014-.206.254-1.314-.639.96-4.181z" />
    </symbol>
    <symbol id="icon-forward-5"
            xmlns="http://www.w3.org/2000/svg"
            fill="currentColor"
            viewBox="0 -960 960 960">
        <path d="M480-80q-75 0-140.5-28.5t-114-77q-48.5-48.5-77-114T120-440q0-75 28.5-140.5t77-114q48.5-48.5 114-77T480-800h6l-62-62 56-58 160 160-160 160-56-58 62-62h-6q-117 0-198.5 81.5T200-440q0 117 81.5 198.5T480-160q117 0 198.5-81.5T760-440h80q0 75-28.5 140.5t-77 114q-48.5 48.5-114 77T480-80ZM380-320v-60h120v-40H380v-140h180v60H440v40h80q17 0 28.5 11.5T560-420v60q0 17-11.5 28.5T520-320H380Z" />
    </symbol>
    <symbol id="icon-forward-15"
            xmlns="http://www.w3.org/2000/svg"
            fill="currentColor"
            viewBox="0.25 0.75 15.75 15.28">
        <path d="M13.536 4.5h-1.473a.75.75 0 1 0 0 1.5H16V2.063a.75.75 0 0 0-1.5 0v1.27A8.25 8.25 0 1 0 3.962 15.887a.75.75 0 1 0 .827-1.25A6.75 6.75 0 1 1 13.535 4.5z" />
        <path d="M6.303 8.407c.79 0 1.214-.52 1.214-.907h1.5v8h-1.5V9.907H6v-1.5h.303zm4.832-.911h4.05v1.5H12.33l-.245 1.067c.256-.071.525-.11.804-.11 1.621 0 2.954 1.3 2.954 2.924 0 1.624-1.333 2.923-2.954 2.923a2.945 2.945 0 0 1-2.93-2.54l1.487-.197c.092.69.696 1.237 1.443 1.237.813 0 1.454-.647 1.454-1.423s-.64-1.423-1.454-1.423c-.49 0-.92.235-1.183.594l-.01.014-.206.254-1.314-.639.96-4.181z" />
    </symbol>
    <symbol id="icon-star"
            xmlns="http://www.w3.org/2000/svg"
            viewBox="0 0 24 24"
            fill="none"
            stroke="currentColor"
            strokeWidth="2"
            strokeLinecap="round"
            strokeLinejoin="round">
        <polygon points="12 2 15.09 8.26 22 9.27 17 14.14 18.18 21.02 12 17.77 5.82 21.02 7 14.14 2 9.27 8.91 8.26 12 2" />
    </symbol>
    <symbol id="icon-youtube"
            xmlns="http://www.w3.org/2000/svg"
            viewBox="1 4.3 21.78 15.41">
        <defs>
            <radialGradient cx="5.4%"
                            cy="7.11%"
                            r="107.93%"
                            fx="5.4%"
                            fy="7.11%"
                            gradientTransform="matrix(.70653 0 0 1 .016 0)">
                <stop offset="0%"
                      stop-color="#FFF" />
                <stop offset="100%"
                      stop-color="#FFF"
                      stop-opacity="0" />
            </radialGradient>
        </defs>
        <g fill="none"
           fill-rule="evenodd">
            <path d="M1 1h21.77v22H1z" />
            <g fill-rule="nonzero">
                <path fill="#F00"
                      d="M22.54 7.6s-.2-1.5-.86-2.17c-.83-.87-1.75-.88-2.18-.93-3.04-.22-7.6-.2-7.6-.2s-4.56-.02-7.6.2c-.43.05-1.35.06-2.18.93-.65.67-.86 2.18-.86 2.18S1.04 9.4 1 11.18v1.66c.04 1.78.26 3.55.26 3.55s.2 1.5.86 2.18c.83.87 1.9.84 2.4.94 1.7.15 7.2.2 7.38.2 0 0 4.57 0 7.6-.22.43-.05 1.35-.06 2.18-.93.65-.67.86-2.18.86-2.18s.22-1.77.24-3.55v-1.66c-.02-1.78-.24-3.55-.24-3.55z" />
                <path fill="#FAFAFA"
                      d="M9.68 8.9v6.18l5.84-3.1" />
                <path fill="#000"
                      fill-opacity=".12"
                      d="M9.68 8.88l5.13 3.48.73-.38" />
                <path fill="#FFF"
                      fill-opacity=".2"
                      d="M22.54 7.6s-.2-1.5-.86-2.17c-.83-.87-1.75-.88-2.18-.93-3.04-.22-7.6-.2-7.6-.2s-4.56-.02-7.6.2c-.43.05-1.35.06-2.18.93-.65.67-.86 2.18-.86 2.18S1.04 9.4 1 11.18v.1c.04-1.76.26-3.54.26-3.54s.2-1.5.86-2.17c.83-.88 1.75-.88 2.18-.93 3.04-.22 7.6-.2 7.6-.2s4.56-.02 7.6.2c.43.05 1.35.05 2.18.93.65.66.86 2.17.86 2.17s.22 1.78.23 3.55v-.1c0-1.8-.23-3.56-.23-3.56z" />
                <path fill="#3E2723"
                      fill-opacity=".2"
                      d="M22.54 16.4s-.2 1.5-.86 2.17c-.83.87-1.75.88-2.18.93-3.04.22-7.6.2-7.6.2s-4.56.02-7.6-.2c-.43-.05-1.35-.06-2.18-.93-.65-.67-.86-2.18-.86-2.18s-.22-1.8-.26-3.57v-.1c.04 1.76.26 3.54.26 3.54s.2 1.5.86 2.17c.83.88 1.75.88 2.18.93 3.04.22 7.6.2 7.6.2s4.56.02 7.6-.2c.43-.05 1.35-.05 2.18-.93.65-.66.86-2.17.86-2.17s.22-1.78.23-3.55v.1c0 1.8-.23 3.56-.23 3.56z" />
                <path fill="#FFF"
                      fill-opacity=".2"
                      d="M9.68 15.08v.1l5.84-3.08v-.12" />
                <path fill="#3E2723"
                      fill-opacity=".2"
                      d="M9.68 8.9v-.13l5.84 3.1v.1" />
                <path fill="url(#a_yt106)"
                      fill-opacity=".1"
                      d="M21.54 3.4s-.2-1.5-.86-2.18C19.85.35 18.93.35 18.5.3 15.46.07 10.9.1 10.9.1S6.34.07 3.3.3c-.43.05-1.35.05-2.18.92C.47 1.9.26 3.4.26 3.4S.04 5.17 0 6.95V8.6c.04 1.8.26 3.56.26 3.56s.2 1.52.86 2.18c.83.87 1.9.85 2.4.94 1.7.16 7.2.2 7.38.2 0 0 4.57 0 7.6-.2.43-.06 1.35-.07 2.18-.94.65-.66.86-2.18.86-2.18s.22-1.77.24-3.55V6.97c-.02-1.78-.24-3.55-.24-3.55z"
                      transform="translate(1 4.208)" />
            </g>
        </g>
    </symbol>
    <symbol id="icon-linkedin"
            xmlns="http://www.w3.org/2000/svg"
            viewBox="0 0 24 24"
            fill="none">
        <path fill-rule="evenodd"
              clipRule="evenodd"
              d="M5 3H19C20.1046 3 21 3.89543 21 5V19C21 20.1046 20.1046 21 19 21H5C3.89543 21 3 20.1046 3 19V5C3 3.89543 3.89543 3 5 3ZM8 18C8.27614 18 8.5 17.7761 8.5 17.5V10.5C8.5 10.2239 8.27614 10 8 10H6.5C6.22386 10 6 10.2239 6 10.5V17.5C6 17.7761 6.22386 18 6.5 18H8ZM7.25 9C6.42157 9 5.75 8.32843 5.75 7.5C5.75 6.67157 6.42157 6 7.25 6C8.07843 6 8.75 6.67157 8.75 7.5C8.75 8.32843 8.07843 9 7.25 9ZM17.5 18C17.7761 18 18 17.7761 18 17.5V12.9C18.0325 11.3108 16.8576 9.95452 15.28 9.76C14.177 9.65925 13.1083 10.1744 12.5 11.1V10.5C12.5 10.2239 12.2761 10 12 10H10.5C10.2239 10 10 10.2239 10 10.5V17.5C10 17.7761 10.2239 18 10.5 18H12C12.2761 18 12.5 17.7761 12.5 17.5V13.75C12.5 12.9216 13.1716 12.25 14 12.25C14.8284 12.25 15.5 12.9216 15.5 13.75V17.5C15.5 17.7761 15.7239 18 16 18H17.5Z"
              fill="CurrentColor" />
    </symbol>
    <symbol id="icon-github"
            xmlns="http://www.w3.org/2000/svg"
            viewBox="0 0 24 24"
            fill="currentColor">
        <path fillRule="evenodd"
              clipRule="evenodd"
              d="M12.026 2c-5.509 0-9.974 4.465-9.974 9.974 0 4.406 2.857 8.145 6.821 9.465.499.09.679-.217.679-.481 0-.237-.008-.865-.011-1.696-2.775.602-3.361-1.338-3.361-1.338-.452-1.152-1.107-1.459-1.107-1.459-.905-.619.069-.605.069-.605 1.002.07 1.527 1.028 1.527 1.028.89 1.524 2.336 1.084 2.902.829.091-.645.351-1.085.635-1.334-2.214-.251-4.542-1.107-4.542-4.93 0-1.087.389-1.979 1.024-2.675-.101-.253-.446-1.268.099-2.64 0 0 .837-.269 2.742 1.021a9.582 9.582 0 0 1 2.496-.336 9.554 9.554 0 0 1 2.496.336c1.906-1.291 2.742-1.021 2.742-1.021.545 1.372.203 2.387.099 2.64.64.696 1.024 1.587 1.024 2.675 0 3.833-2.33 4.675-4.552 4.922.355.308.675.916.675 1.846 0 1.334-.012 2.41-.012 2.737 0 .267.178.577.687.479C19.146 20.115 22 16.379 22 11.974 22 6.465 17.535 2 12.026 2z" />
    </symbol>
    <symbol id="icon-playstation"
            xmlns="http://www.w3.org/2000/svg"
            viewBox="0 0 21 16">
        <path d="M11.112 16L8 14.654V0s6.764 1.147 7.695 3.987c.931 2.842-.52 4.682-1.03 4.736-1.42.15-1.96-.748-1.96-.748V3.39l-1.544-.648L11.112 16zM12 14.32V16s7.666-2.338 8.794-3.24c1.128-.9-2.641-3.142-4.666-2.704 0 0-2.152.099-4.102.901-.019.008 0 1.51 0 1.51l4.948-1.095 1.743.73L12 14.32zm-5.024-.773s-.942.476-3.041.452c-2.1-.024-3.959-.595-3.935-1.833C.024 10.928 3.476 9.571 6.952 9v1.738l-3.693.952s-.632.786.217.81A11.934 11.934 0 007 12.046l-.024 1.5z"
              fill="currentColor" />
    </symbol>
    <symbol id="icon-xbox"
            xmlns="http://www.w3.org/2000/svg"
            viewBox="0 0 16 16">
        <path fill="currentColor"
              d="M3.564 1.357l-.022.02c.046-.048.11-.1.154-.128C4.948.435 6.396 0 8 0c1.502 0 2.908.415 4.11 1.136.086.052.324.215.446.363C11.4.222 7.993 2.962 7.993 2.962c-1.177-.908-2.26-1.526-3.067-1.746-.674-.185-1.14-.03-1.362.141zm10.305 1.208c-.035-.04-.074-.076-.109-.116-.293-.322-.653-.4-.978-.378-.295.092-1.66.584-3.342 2.172 0 0 1.894 1.841 3.053 3.723 1.159 1.883 1.852 3.362 1.426 5.415A7.969 7.969 0 0016 7.999a7.968 7.968 0 00-2.13-5.434zM10.98 8.77a55.416 55.416 0 00-2.287-2.405 52.84 52.84 0 00-.7-.686l-.848.854c-.614.62-1.411 1.43-1.853 1.902-.787.84-3.043 3.479-3.17 4.958 0 0-.502-1.174.6-3.88.72-1.769 2.893-4.425 3.801-5.29 0 0-.83-.913-1.87-1.544l-.007-.002s-.011-.009-.03-.02c-.5-.3-1.047-.53-1.573-.56a1.391 1.391 0 00-.878.431A8 8 0 0013.92 13.381c0-.002-.169-1.056-1.245-2.57-.253-.354-1.178-1.46-1.696-2.04z" />
    </symbol>
    <symbol id="icon-pc"
            xmlns="http://www.w3.org/2000/svg"
            viewBox="0 0 16 16">
        <path d="M0 13.772l6.545.902V8.426H0zM0 7.62h6.545V1.296L0 2.198zm7.265 7.15l8.704 1.2V8.425H7.265zm0-13.57v6.42h8.704V0z"
              fill="currentColor" />
    </symbol>
    <symbol id="icon-nintendo"
            xmlns="http://www.w3.org/2000/svg"
            viewBox="0 0 21 16">
        <path fill="currentColor"
              fill-rule="evenodd"
              d="M8 0h5a8 8 0 110 16H8A8 8 0 118 0zm-.135 1.935a6.065 6.065 0 000 12.13h5.12a6.065 6.065 0 000-12.13h-5.12zm-1.33 2.304h2.401l3.199 5.175V4.24h2.346v7.495H12.18L8.864 6.537v5.201H6.53l.005-7.499z" />
    </symbol>
    <symbol id="icon-mac"
            xmlns="http://www.w3.org/2000/svg"
            viewBox="0 0 15 18">
        <path d="M10.869 0h.127c.102 1.26-.379 2.202-.963 2.884-.574.677-1.359 1.334-2.629 1.234-.084-1.242.397-2.114.98-2.794C8.927.69 9.919.126 10.87 0zm3.756 13.196v.036a10.534 10.534 0 01-1.494 2.899c-.57.789-1.267 1.85-2.513 1.85-1.077 0-1.792-.696-2.896-.715-1.167-.02-1.81.583-2.877.734h-.364c-.783-.114-1.416-.74-1.877-1.302A11.452 11.452 0 010 10.134v-.808c.083-1.969 1.033-3.57 2.295-4.345.667-.413 1.583-.764 2.603-.607.437.068.884.219 1.275.368.371.144.835.398 1.275.385.298-.009.594-.165.894-.275.88-.32 1.74-.687 2.877-.514 1.365.207 2.334.818 2.933 1.76-1.155.74-2.068 1.855-1.912 3.76.138 1.73 1.137 2.742 2.385 3.338z"
              fill="currentColor" />
    </symbol>
</svg>