<svg>
    <symbol id="imdb-icon"
            className="imdb-logo"
            xmlns="http://www.w3.org/2000/svg"
            viewBox="0 0 64 32"
            version="1.1">
        <g fill="#F5C518">
            <rect x="0"
                  y="0"
                  rx="4" />
        </g>
        <g transform="translate(8.000000, 7.000000)"
           fill="#000000"
           fillRule="nonzero">
            <polygon points="0 18 5 18 5 0 0 0" />
            <path d="M15.6725178,0 L14.5534833,8.40846934 L13.8582008,3.83502426 C13.65661,2.37009263 13.4632474,1.09175121 13.278113,0 L7,0 L7,18 L11.2416347,18 L11.2580911,6.11380679 L13.0436094,18 L16.0633571,18 L17.7583653,5.8517865 L17.7707076,18 L22,18 L22,0 L15.6725178,0 Z" />
            <path d="M24,18 L24,0 L31.8045586,0 C33.5693522,0 35,1.41994415 35,3.17660424 L35,14.8233958 C35,16.5777858 33.5716617,18 31.8045586,18 L24,18 Z M29.8322479,3.2395236 C29.6339219,3.13233348 29.2545158,3.08072342 28.7026524,3.08072342 L28.7026524,14.8914865 C29.4312846,14.8914865 29.8796736,14.7604764 30.0478195,14.4865461 C30.2159654,14.2165858 30.3021941,13.486105 30.3021941,12.2871637 L30.3021941,5.3078959 C30.3021941,4.49404499 30.272014,3.97397442 30.2159654,3.74371416 C30.1599168,3.5134539 30.0348852,3.34671372 29.8322479,3.2395236 Z" />
            <path d="M44.4299079,4.50685823 L44.749518,4.50685823 C46.5447098,4.50685823 48,5.91267586 48,7.64486762 L48,14.8619906 C48,16.5950653 46.5451816,18 44.749518,18 L44.4299079,18 C43.3314617,18 42.3602746,17.4736618 41.7718697,16.6682739 L41.4838962,17.7687785 L37,17.7687785 L37,0 L41.7843263,0 L41.7843263,5.78053556 C42.4024982,5.01015739 43.3551514,4.50685823 44.4299079,4.50685823 Z M43.4055679,13.2842155 L43.4055679,9.01907814 C43.4055679,8.31433946 43.3603268,7.85185468 43.2660746,7.63896485 C43.1718224,7.42607505 42.7955881,7.2893916 42.5316822,7.2893916 C42.267776,7.2893916 41.8607934,7.40047379 41.7816216,7.58767002 L41.7816216,9.01907814 L41.7816216,13.4207851 L41.7816216,14.8074788 C41.8721037,15.0130276 42.2602358,15.1274059 42.5316822,15.1274059 C42.8031285,15.1274059 43.1982131,15.0166981 43.281155,14.8074788 C43.3640968,14.5982595 43.4055679,14.0880581 43.4055679,13.2842155 Z" />
        </g>
    </symbol>
    <symbol id="download-icon"
            xmlns="http://www.w3.org/2000/svg"
            viewBox="0 0 24 24"
            fill="none"
            stroke="currentColor"
            strokeWidth="2"
            strokeLinecap="round"
            strokeLinejoin="round">
        <path d="M21 15v4a2 2 0 0 1-2 2H5a2 2 0 0 1-2-2v-4" />
        <polyline points="7 10 12 15 17 10" />
        <line x1="12"
              y1="15"
              x2="12"
              y2="3" />
    </symbol>
    <symbol xmlns="http://www.w3.org/2000/svg"
            id="pdf-icon"
            viewBox="0 0 24 24"
            fill="none"
            stroke="currentColor"
            strokeWidth="2"
            strokeLinecap="round"
            strokeLinejoin="round">
        <path d="M14 2H6a2 2 0 0 0-2 2v16a2 2 0 0 0 2 2h12a2 2 0 0 0 2-2V8z" />
        <polyline points="14 2 14 8 20 8" />
        <line x1="16"
              y1="13"
              x2="8"
              y2="13" />
        <line x1="16"
              y1="17"
              x2="8"
              y2="17" />
        <polyline points="10 9 9 9 8 9" />
    </symbol>
    <symbol xmlns="http://www.w3.org/2000/svg"
            id="star-icon"
            viewBox="0 0 24 24"
            fill="none"
            stroke="currentColor"
            strokeWidth="2"
            strokeLinecap="round"
            strokeLinejoin="round">
        <polygon points="12 2 15.09 8.26 22 9.27 17 14.14 18.18 21.02 12 17.77 5.82 21.02 7 14.14 2 9.27 8.91 8.26 12 2" />
    </symbol>
    <symbol xmlns="http://www.w3.org/2000/svg"
            id="music-icon"
            viewBox="0 0 24 24"
            fill="none"
            stroke="currentColor"
            strokeWidth="2"
            strokeLinecap="round"
            strokeLinejoin="round">
        <path d="M9 18V5l12-2v13" />
        <circle cx="6"
                cy="18"
                r="3" />
        <circle cx="18"
                cy="16"
                r="3" />
    </symbol>
    <symbol xmlns="http://www.w3.org/2000/svg"
            id="quote-icon"
            viewBox="0 0 24 24">
        <path d="M9.983 3v7.391c0 5.704-3.731 9.57-8.983 10.609l-.995-2.151c2.432-.917 3.995-3.638 3.995-5.849h-4v-10h9.983zm14.017 0v7.391c0 5.704-3.748 9.571-9 10.609l-.996-2.151c2.433-.917 3.996-3.638 3.996-5.849h-3.983v-10h9.983z" />
    </symbol>
    <symbol xmlns="http://www.w3.org/2000/svg"
            id="imdb-star-icon"
            viewBox="0 0 24 24"
            fill="currentColor"
            role="presentation">
        <path d="M12 17.27l4.15 2.51c.76.46 1.69-.22 1.49-1.08l-1.1-4.72 3.67-3.18c.67-.58.31-1.68-.57-1.75l-4.83-.41-1.89-4.46c-.34-.81-1.5-.81-1.84 0L9.19 8.63l-4.83.41c-.88.07-1.24 1.17-.57 1.75l3.67 3.18-1.1 4.72c-.2.86.73 1.54 1.49 1.08l4.15-2.5z" />
    </symbol>
</svg>