<svg>
    <symbol id="pianotheus-logo"
            xmlns="http://www.w3.org/2000/svg"
            xmlnsXlink="http://www.w3.org/1999/xlink"
            zoomAndPan="magnify"
            viewBox="0 0 375 374.999991"
            preserveAspectRatio="xMidYMid meet"
            version="1.0">
        <defs>
            <g />
            <clipPath id="e94d720c73">
                <path d="M 134 127.40625 L 216 127.40625 L 216 192 L 134 192 Z M 134 127.40625 "
                      clipRule="nonzero" />
            </clipPath>
            <clipPath id="e3b775af5e">
                <path d="M 127.332031 188 L 222.582031 188 L 222.582031 200 L 127.332031 200 Z M 127.332031 188 "
                      clipRule="nonzero" />
            </clipPath>
        </defs>
        <path fill="#b60303"
              d="M 165.054688 183.046875 C 165.054688 183.046875 156.191406 179.542969 156.265625 171.167969 C 156.265625 171.167969 159.0625 174.960938 161.265625 175.542969 C 163.472656 176.128906 156.621094 169.15625 161.164062 159.207031 C 161.164062 159.207031 160.484375 165.941406 162.589844 168.101562 C 162.589844 168.101562 171.117188 142.855469 163.914062 136.285156 C 163.914062 136.285156 178.324219 139.207031 180.234375 156.425781 C 180.234375 156.425781 183.15625 148.835938 178.976562 141.976562 C 178.976562 141.976562 190.234375 151.757812 186.703125 171.605469 C 186.703125 171.605469 192.585938 165.390625 191.558594 159.667969 C 191.558594 159.667969 197.734375 175.664062 188.910156 183.046875 C 188.910156 183.046875 192.652344 176.964844 189.269531 172.441406 C 189.269531 172.441406 186.832031 177.996094 181.265625 181.527344 C 181.265625 181.527344 185.835938 159.667969 171.855469 147.816406 C 171.855469 147.816406 173.472656 156.425781 171.117188 164.308594 C 168.765625 172.1875 168.617188 176.566406 173.617188 179.339844 C 173.617188 179.339844 166.265625 179.628906 165.382812 172.1875 C 165.382812 172.1875 163.289062 174.351562 165.054688 183.046875 "
              fillOpacity="1"
              fillRule="nonzero" />
        <g clip-path="url(#e94d720c73)">
            <path fill="#b60303"
                  d="M 144.347656 190.988281 C 139.285156 184.496094 136.273438 176.355469 136.273438 167.515625 C 136.273438 146.308594 153.59375 129.117188 174.960938 129.117188 C 196.328125 129.117188 213.652344 146.308594 213.652344 167.515625 C 213.652344 176.355469 210.636719 184.496094 205.578125 190.988281 C 206.199219 191.15625 206.804688 191.300781 207.398438 191.433594 C 212.40625 184.757812 215.371094 176.480469 215.371094 167.515625 C 215.371094 145.367188 197.277344 127.410156 174.960938 127.410156 C 152.644531 127.410156 134.554688 145.367188 134.554688 167.515625 C 134.554688 176.480469 137.519531 184.757812 142.527344 191.433594 C 143.121094 191.300781 143.726562 191.15625 144.347656 190.988281 "
                  fillOpacity="1"
                  fillRule="nonzero" />
        </g>
        <g clip-path="url(#e3b775af5e)">
            <path fill="#b60303"
                  d="M 194.511719 191.445312 C 187.96875 188.015625 180.894531 188.4375 174.960938 190.03125 C 169.027344 188.4375 161.957031 188.015625 155.414062 191.445312 C 140.230469 199.40625 127.335938 196.277344 127.335938 196.277344 C 127.335938 196.277344 147.785156 203.152344 159.101562 197.273438 C 159.898438 196.859375 160.648438 196.550781 161.363281 196.328125 C 167.484375 200.242188 171.585938 200.402344 174.960938 199.460938 C 178.339844 200.402344 182.441406 200.242188 188.5625 196.328125 C 189.277344 196.550781 190.027344 196.859375 190.824219 197.273438 C 202.136719 203.152344 222.589844 196.277344 222.589844 196.277344 C 222.589844 196.277344 209.695312 199.40625 194.511719 191.445312 "
                  fillOpacity="1"
                  fillRule="nonzero" />
        </g>
        <g fill="#b60303"
           fillOpacity="1">
            <g transform="translate(75.832031, 234.486107)">
                <g>
                    <path d="M 12.460938 -26.597656 L 2.46875 -26.597656 L 2.46875 0 L 5.242188 0 L 5.242188 -10.105469 L 12.460938 -10.105469 C 17.289062 -10.105469 20.785156 -13.867188 20.785156 -18.351562 C 20.785156 -22.835938 17.441406 -26.597656 12.460938 -26.597656 Z M 12.460938 -12.84375 L 5.242188 -12.84375 L 5.242188 -23.859375 L 12.460938 -23.859375 C 15.84375 -23.859375 17.933594 -21.316406 17.933594 -18.351562 C 17.933594 -15.386719 15.804688 -12.84375 12.460938 -12.84375 Z M 12.460938 -12.84375 " />
                </g>
            </g>
        </g>
        <g fill="#b60303"
           fillOpacity="1">
            <g transform="translate(98.133474, 234.486107)">
                <g>
                    <path d="M 2.46875 -26.597656 L 2.46875 0 L 5.207031 0 L 5.207031 -26.597656 Z M 2.46875 -26.597656 " />
                </g>
            </g>
        </g>
        <g fill="#b60303"
           fillOpacity="1">
            <g transform="translate(105.807905, 234.486107)">
                <g>
                    <path d="M 20.707031 0 L 23.746094 0 L 13.679688 -26.597656 L 11.171875 -26.597656 L 1.140625 0 L 4.179688 0 L 7.066406 -7.714844 L 17.820312 -7.714844 Z M 8.09375 -10.449219 L 12.425781 -22.226562 L 16.792969 -10.449219 Z M 8.09375 -10.449219 " />
                </g>
            </g>
        </g>
        <g fill="#b60303"
           fillOpacity="1">
            <g transform="translate(130.692818, 234.486107)">
                <g>
                    <path d="M 19.949219 -26.597656 L 19.949219 -5.089844 L 4.976562 -26.597656 L 2.46875 -26.597656 L 2.46875 0 L 5.207031 0 L 5.207031 -21.582031 L 20.175781 0 L 22.683594 0 L 22.683594 -26.597656 Z M 19.949219 -26.597656 " />
                </g>
            </g>
        </g>
        <g fill="#b60303"
           fillOpacity="1">
            <g transform="translate(155.84368, 234.486107)">
                <g>
                    <path d="M 14.628906 -26.824219 C 7.144531 -26.824219 1.710938 -20.746094 1.710938 -13.261719 C 1.710938 -5.773438 7.144531 0.304688 14.628906 0.304688 C 22.113281 0.304688 27.507812 -5.773438 27.507812 -13.261719 C 27.507812 -20.746094 22.113281 -26.824219 14.628906 -26.824219 Z M 14.628906 -2.394531 C 8.625 -2.394531 4.519531 -7.257812 4.519531 -13.261719 C 4.519531 -19.261719 8.625 -24.125 14.628906 -24.125 C 20.59375 -24.125 24.695312 -19.261719 24.695312 -13.261719 C 24.695312 -7.257812 20.59375 -2.394531 14.628906 -2.394531 Z M 14.628906 -2.394531 " />
                </g>
            </g>
        </g>
        <g fill="#000000"
           fillOpacity="1">
            <g transform="translate(185.050777, 234.486107)">
                <g>
                    <path d="M 20.480469 -26.597656 L 1.140625 -26.597656 L 1.140625 -21.734375 L 8.28125 -21.734375 L 8.28125 0 L 13.335938 0 L 13.335938 -21.734375 L 20.480469 -21.734375 Z M 20.480469 -26.597656 " />
                </g>
            </g>
        </g>
        <g fill="#000000"
           fillOpacity="1">
            <g transform="translate(206.668357, 234.486107)">
                <g>
                    <path d="M 17.859375 -26.597656 L 17.859375 -15.691406 L 7.144531 -15.691406 L 7.144531 -26.597656 L 2.089844 -26.597656 L 2.089844 0 L 7.144531 0 L 7.144531 -10.867188 L 17.859375 -10.867188 L 17.859375 0 L 22.910156 0 L 22.910156 -26.597656 Z M 17.859375 -26.597656 " />
                </g>
            </g>
        </g>
        <g fill="#000000"
           fillOpacity="1">
            <g transform="translate(231.667252, 234.486107)">
                <g>
                    <path d="M 7.144531 -4.824219 L 7.144531 -10.867188 L 18.351562 -10.867188 L 18.351562 -15.691406 L 7.144531 -15.691406 L 7.144531 -21.734375 L 19.53125 -21.734375 L 19.53125 -26.597656 L 2.089844 -26.597656 L 2.089844 0 L 19.757812 0 L 19.757812 -4.824219 Z M 7.144531 -4.824219 " />
                </g>
            </g>
        </g>
        <g fill="#000000"
           fillOpacity="1">
            <g transform="translate(252.942904, 234.486107)">
                <g>
                    <path d="M 17.210938 -26.597656 L 17.210938 -10.5625 C 17.210938 -6.992188 15.234375 -4.789062 12.082031 -4.789062 C 8.890625 -4.789062 6.953125 -6.992188 6.953125 -10.5625 L 6.953125 -26.597656 L 1.898438 -26.597656 L 1.898438 -10.449219 C 1.898438 -3.800781 5.890625 0.304688 12.082031 0.304688 C 18.238281 0.304688 22.265625 -3.800781 22.265625 -10.449219 L 22.265625 -26.597656 Z M 17.210938 -26.597656 " />
                </g>
            </g>
        </g>
        <g fill="#000000"
           fillOpacity="1">
            <g transform="translate(277.105969, 234.486107)">
                <g>
                    <path d="M 12.007812 -15.996094 C 7.828125 -17.289062 6.839844 -18.085938 6.839844 -19.339844 C 6.839844 -21.085938 8.777344 -21.847656 10.90625 -21.808594 C 12.84375 -21.769531 15.007812 -20.859375 15.351562 -19.1875 L 19.832031 -20.859375 C 19.074219 -24.660156 14.933594 -26.824219 10.867188 -26.824219 C 4.027344 -26.824219 1.480469 -22.644531 1.480469 -19.148438 C 1.480469 -15.234375 3.988281 -12.917969 10.105469 -11.09375 C 14.4375 -9.800781 15.730469 -9.117188 15.730469 -7.523438 C 15.730469 -5.890625 14.058594 -4.671875 10.980469 -4.671875 C 8.207031 -4.671875 5.890625 -5.925781 5.394531 -7.941406 L 0.761719 -6.15625 C 1.519531 -2.316406 6.230469 0.457031 11.4375 0.457031 C 18.046875 0.457031 21.125 -3.304688 21.125 -7.714844 C 21.125 -12.652344 17.25 -14.398438 12.007812 -15.996094 Z M 12.007812 -15.996094 " />
                </g>
            </g>
        </g>
    </symbol>
    <symbol id="imdb-icon"
            xmlns="http://www.w3.org/2000/svg"
            viewBox="0 0 64 32"
            version="1.1">
        <g fill="#F5C518">
            <rect x="0"
                  y="0"
                  width="100%"
                  height="100%"
                  rx="4" />
        </g>
        <g transform="translate(8.000000, 7.000000)"
           fill="#000000"
           fillRule="nonzero">
            <polygon points="0 18 5 18 5 0 0 0" />
            <path d="M15.6725178,0 L14.5534833,8.40846934 L13.8582008,3.83502426 C13.65661,2.37009263 13.4632474,1.09175121 13.278113,0 L7,0 L7,18 L11.2416347,18 L11.2580911,6.11380679 L13.0436094,18 L16.0633571,18 L17.7583653,5.8517865 L17.7707076,18 L22,18 L22,0 L15.6725178,0 Z" />
            <path d="M24,18 L24,0 L31.8045586,0 C33.5693522,0 35,1.41994415 35,3.17660424 L35,14.8233958 C35,16.5777858 33.5716617,18 31.8045586,18 L24,18 Z M29.8322479,3.2395236 C29.6339219,3.13233348 29.2545158,3.08072342 28.7026524,3.08072342 L28.7026524,14.8914865 C29.4312846,14.8914865 29.8796736,14.7604764 30.0478195,14.4865461 C30.2159654,14.2165858 30.3021941,13.486105 30.3021941,12.2871637 L30.3021941,5.3078959 C30.3021941,4.49404499 30.272014,3.97397442 30.2159654,3.74371416 C30.1599168,3.5134539 30.0348852,3.34671372 29.8322479,3.2395236 Z" />
            <path d="M44.4299079,4.50685823 L44.749518,4.50685823 C46.5447098,4.50685823 48,5.91267586 48,7.64486762 L48,14.8619906 C48,16.5950653 46.5451816,18 44.749518,18 L44.4299079,18 C43.3314617,18 42.3602746,17.4736618 41.7718697,16.6682739 L41.4838962,17.7687785 L37,17.7687785 L37,0 L41.7843263,0 L41.7843263,5.78053556 C42.4024982,5.01015739 43.3551514,4.50685823 44.4299079,4.50685823 Z M43.4055679,13.2842155 L43.4055679,9.01907814 C43.4055679,8.31433946 43.3603268,7.85185468 43.2660746,7.63896485 C43.1718224,7.42607505 42.7955881,7.2893916 42.5316822,7.2893916 C42.267776,7.2893916 41.8607934,7.40047379 41.7816216,7.58767002 L41.7816216,9.01907814 L41.7816216,13.4207851 L41.7816216,14.8074788 C41.8721037,15.0130276 42.2602358,15.1274059 42.5316822,15.1274059 C42.8031285,15.1274059 43.1982131,15.0166981 43.281155,14.8074788 C43.3640968,14.5982595 43.4055679,14.0880581 43.4055679,13.2842155 Z" />
        </g>
    </symbol>
    <symbol id="download-icon"
            xmlns="http://www.w3.org/2000/svg"
            width="24"
            height="24"
            viewBox="0 0 24 24"
            fill="none"
            stroke="currentColor"
            strokeWidth="2"
            strokeLinecap="round"
            strokeLinejoin="round"
            className="feather feather-download">
        <path d="M21 15v4a2 2 0 0 1-2 2H5a2 2 0 0 1-2-2v-4" />
        <polyline points="7 10 12 15 17 10" />
        <line x1="12"
              y1="15"
              x2="12"
              y2="3" />
    </symbol>
</svg>