<svg>
    <symbol id="icon-close"
            xmlns="http://www.w3.org/2000/svg"
            viewBox="0 0 24 24"
            fill="none"
            stroke="currentColor"
            stroke-width="2"
            stroke-linecap="round"
            stroke-linejoin="round">
        <line x1="18"
              y1="6"
              x2="6"
              y2="18" />
        <line x1="6"
              y1="6"
              x2="18"
              y2="18" />
    </symbol>
    <symbol id="icon-search"
            xmlns="http://www.w3.org/2000/svg"
            viewBox="0 0 24 24"
            fill="none"
            stroke="currentColor"
            strokeWidth="2"
            strokeLinecap="round"
            strokeLinejoin="round">
        <circle cx="11"
                cy="11"
                r="8" />
        <line x1="21"
              y1="21"
              x2="16.65"
              y2="16.65" />
    </symbol>
    <symbol id="icon-more-vertical"
            xmlns="http://www.w3.org/2000/svg"
            viewBox="0 0 24 24"
            fill="none"
            stroke="currentColor"
            strokeWidth="2"
            strokeLinecap="round"
            strokeLinejoin="round">
        <circle cx="12"
                cy="12"
                r="1" />
        <circle cx="12"
                cy="5"
                r="1" />
        <circle cx="12"
                cy="19"
                r="1" />
    </symbol>
    <symbol id="icon-sun"
            xmlns="http://www.w3.org/2000/svg"
            viewBox="0 0 24 24"
            fill="none"
            stroke="currentColor"
            stroke-width="2"
            stroke-linecap="round"
            stroke-linejoin="round">
        <circle cx="12"
                cy="12"
                r="5" />
        <line x1="12"
              y1="1"
              x2="12"
              y2="3" />
        <line x1="12"
              y1="21"
              x2="12"
              y2="23" />
        <line x1="4.22"
              y1="4.22"
              x2="5.64"
              y2="5.64" />
        <line x1="18.36"
              y1="18.36"
              x2="19.78"
              y2="19.78" />
        <line x1="1"
              y1="12"
              x2="3"
              y2="12" />
        <line x1="21"
              y1="12"
              x2="23"
              y2="12" />
        <line x1="4.22"
              y1="19.78"
              x2="5.64"
              y2="18.36" />
        <line x1="18.36"
              y1="5.64"
              x2="19.78"
              y2="4.22" />
    </symbol>
    <symbol id="icon-moon"
            xmlns="http://www.w3.org/2000/svg"
            viewBox="0 0 24 24"
            fill="none"
            stroke="currentColor"
            stroke-width="2"
            stroke-linecap="round"
            stroke-linejoin="round"
            class="feather feather-moon">
        <path d="M21 12.79A9 9 0 1 1 11.21 3 7 7 0 0 0 21 12.79z" />
    </symbol>
    <symbol id="icon-quote"
            xmlns="http://www.w3.org/2000/svg"
            viewBox="0 0 24 24"
            fill="currentColor">
        <path d="M9.983 3v7.391c0 5.704-3.731 9.57-8.983 10.609l-.995-2.151c2.432-.917 3.995-3.638 3.995-5.849h-4v-10h9.983zm14.017 0v7.391c0 5.704-3.748 9.571-9 10.609l-.996-2.151c2.433-.917 3.996-3.638 3.996-5.849h-3.983v-10h9.983z" />
    </symbol>
    <symbol id="icon-imdb"
            xmlns="http://www.w3.org/2000/svg"
            viewBox="0 0 64 32"
            version="1.1">
        <g fill="#F5C518">
            <rect x="0"
                  y="0"
                  width="100%"
                  height="100%"
                  rx="4" />
        </g>
        <g transform="translate(8.000000, 7.000000)"
           fill="#000000"
           fillRule="nonzero">
            <polygon points="0 18 5 18 5 0 0 0" />
            <path d="M15.6725178,0 L14.5534833,8.40846934 L13.8582008,3.83502426 C13.65661,2.37009263 13.4632474,1.09175121 13.278113,0 L7,0 L7,18 L11.2416347,18 L11.2580911,6.11380679 L13.0436094,18 L16.0633571,18 L17.7583653,5.8517865 L17.7707076,18 L22,18 L22,0 L15.6725178,0 Z" />
            <path d="M24,18 L24,0 L31.8045586,0 C33.5693522,0 35,1.41994415 35,3.17660424 L35,14.8233958 C35,16.5777858 33.5716617,18 31.8045586,18 L24,18 Z M29.8322479,3.2395236 C29.6339219,3.13233348 29.2545158,3.08072342 28.7026524,3.08072342 L28.7026524,14.8914865 C29.4312846,14.8914865 29.8796736,14.7604764 30.0478195,14.4865461 C30.2159654,14.2165858 30.3021941,13.486105 30.3021941,12.2871637 L30.3021941,5.3078959 C30.3021941,4.49404499 30.272014,3.97397442 30.2159654,3.74371416 C30.1599168,3.5134539 30.0348852,3.34671372 29.8322479,3.2395236 Z" />
            <path d="M44.4299079,4.50685823 L44.749518,4.50685823 C46.5447098,4.50685823 48,5.91267586 48,7.64486762 L48,14.8619906 C48,16.5950653 46.5451816,18 44.749518,18 L44.4299079,18 C43.3314617,18 42.3602746,17.4736618 41.7718697,16.6682739 L41.4838962,17.7687785 L37,17.7687785 L37,0 L41.7843263,0 L41.7843263,5.78053556 C42.4024982,5.01015739 43.3551514,4.50685823 44.4299079,4.50685823 Z M43.4055679,13.2842155 L43.4055679,9.01907814 C43.4055679,8.31433946 43.3603268,7.85185468 43.2660746,7.63896485 C43.1718224,7.42607505 42.7955881,7.2893916 42.5316822,7.2893916 C42.267776,7.2893916 41.8607934,7.40047379 41.7816216,7.58767002 L41.7816216,9.01907814 L41.7816216,13.4207851 L41.7816216,14.8074788 C41.8721037,15.0130276 42.2602358,15.1274059 42.5316822,15.1274059 C42.8031285,15.1274059 43.1982131,15.0166981 43.281155,14.8074788 C43.3640968,14.5982595 43.4055679,14.0880581 43.4055679,13.2842155 Z" />
        </g>
    </symbol>
    <symbol id="icon-imdb-star"
            xmlns="http://www.w3.org/2000/svg"
            viewBox="0 0 24 24"
            fill="currentColor"
            role="presentation">
        <path d="M12 17.27l4.15 2.51c.76.46 1.69-.22 1.49-1.08l-1.1-4.72 3.67-3.18c.67-.58.31-1.68-.57-1.75l-4.83-.41-1.89-4.46c-.34-.81-1.5-.81-1.84 0L9.19 8.63l-4.83.41c-.88.07-1.24 1.17-.57 1.75l3.67 3.18-1.1 4.72c-.2.86.73 1.54 1.49 1.08l4.15-2.5z" />
    </symbol>
    <symbol id="icon-save"
            xmlns="http://www.w3.org/2000/svg"
            viewBox="0 0 24 24"
            fill="none"
            stroke="currentColor"
            strokeWidth="2"
            strokeLinecap="round"
            strokeLinejoin="round">
        <path d="M19 21H5a2 2 0 0 1-2-2V5a2 2 0 0 1 2-2h11l5 5v11a2 2 0 0 1-2 2z" />
        <polyline points="17 21 17 13 7 13 7 21" />
        <polyline points="7 3 7 8 15 8" />
    </symbol>
    <symbol id="icon-download"
            xmlns="http://www.w3.org/2000/svg"
            viewBox="0 0 24 24"
            fill="none"
            stroke="currentColor"
            strokeWidth="2"
            strokeLinecap="round"
            strokeLinejoin="round">
        <path d="M21 15v4a2 2 0 0 1-2 2H5a2 2 0 0 1-2-2v-4" />
        <polyline points="7 10 12 15 17 10" />
        <line x1="12"
              y1="15"
              x2="12"
              y2="3" />
    </symbol>
    <symbol id="icon-file"
            xmlns="http://www.w3.org/2000/svg"
            viewBox="0 0 24 24"
            fill="none"
            stroke="currentColor"
            strokeWidth="2"
            strokeLinecap="round"
            strokeLinejoin="round">
        <path d="M13 2H6a2 2 0 0 0-2 2v16a2 2 0 0 0 2 2h12a2 2 0 0 0 2-2V9z" />
        <polyline points="13 2 13 9 20 9" />
    </symbol>
    <symbol id="icon-sheet-file"
            xmlns="http://www.w3.org/2000/svg"
            viewBox="0 0 24 24"
            fill="none"
            stroke="currentColor"
            strokeWidth="2"
            strokeLinecap="round"
            strokeLinejoin="round">
        <path d="M14 2H6a2 2 0 0 0-2 2v16a2 2 0 0 0 2 2h12a2 2 0 0 0 2-2V8z" />
        <polyline points="14 2 14 8 20 8" />
        <line x1="16"
              y1="13"
              x2="8"
              y2="13" />
        <line x1="16"
              y1="17"
              x2="8"
              y2="17" />
        <polyline points="10 9 9 9 8 9" />
    </symbol>
    <symbol id="icon-share"
            xmlns="http://www.w3.org/2000/svg"
            viewBox="0 0 24 24"
            fill="none"
            stroke="currentColor"
            strokeWidth="2"
            strokeLinecap="round"
            strokeLinejoin="round">
        <circle cx="18"
                cy="5"
                r="3" />
        <circle cx="6"
                cy="12"
                r="3" />
        <circle cx="18"
                cy="19"
                r="3" />
        <line x1="8.59"
              y1="13.51"
              x2="15.42"
              y2="17.49" />
        <line x1="15.41"
              y1="6.51"
              x2="8.59"
              y2="10.49" />
    </symbol>
    <symbol id="icon-print"
            xmlns="http://www.w3.org/2000/svg"
            viewBox="0 0 24 24"
            fill="none"
            stroke="currentColor"
            strokeWidth="2"
            strokeLinecap="round"
            strokeLinejoin="round">
        <polyline points="6 9 6 2 18 2 18 9" />
        <path d="M6 18H4a2 2 0 0 1-2-2v-5a2 2 0 0 1 2-2h16a2 2 0 0 1 2 2v5a2 2 0 0 1-2 2h-2" />
        <rect x="6"
              y="14"
              width="12"
              height="8" />
    </symbol>
    <symbol id="icon-pdf"
            xmlns="http://www.w3.org/2000/svg"
            fill="currentColor"
            viewBox="0 -960 960 960">
        <path d="M331-431h37v-83h48q15.725 0 26.362-10.638Q453-535.275 453-551v-48q0-15.725-10.638-26.362Q431.725-636 416-636h-85v205Zm37-120v-48h48v48h-48Zm129 120h84q15 0 26-10.638 11-10.637 11-26.362v-131q0-15.725-11-26.362Q596-636 581-636h-84v205Zm37-37v-131h47v131h-47Zm133 37h37v-83h50v-37h-50v-48h50v-37h-87v205ZM260-200q-24 0-42-18t-18-42v-560q0-24 18-42t42-18h560q24 0 42 18t18 42v560q0 24-18 42t-42 18H260Zm0-60h560v-560H260v560ZM140-80q-24 0-42-18t-18-42v-620h60v620h620v60H140Zm120-740v560-560Z" />
    </symbol>
    <symbol id="icon-movie"
            xmlns="http://www.w3.org/2000/svg"
            width="24"
            height="24"
            viewBox="0 0 24 24"
            fill="none"
            stroke="currentColor"
            strokeWidth="2"
            strokeLinecap="round"
            strokeLinejoin="round">
        <rect x="2"
              y="2"
              width="20"
              height="20"
              rx="2.18"
              ry="2.18" />
        <line x1="7"
              y1="2"
              x2="7"
              y2="22" />
        <line x1="17"
              y1="2"
              x2="17"
              y2="22" />
        <line x1="2"
              y1="12"
              x2="22"
              y2="12" />
        <line x1="2"
              y1="7"
              x2="7"
              y2="7" />
        <line x1="2"
              y1="17"
              x2="7"
              y2="17" />
        <line x1="17"
              y1="17"
              x2="22"
              y2="17" />
        <line x1="17"
              y1="7"
              x2="22"
              y2="7" />
    </symbol>
    <symbol id="icon-speaker"
            xmlns="http://www.w3.org/2000/svg"
            viewBox="0 0 24 24"
            fill="none"
            stroke="currentColor"
            strokeWidth="2"
            strokeLinecap="round"
            strokeLinejoin="round">
        <rect x="4"
              y="2"
              width="16"
              height="20"
              rx="2"
              ry="2" />
        <circle cx="12"
                cy="14"
                r="4" />
        <line x1="12"
              y1="6"
              x2="12.01"
              y2="6" />
    </symbol>
    <symbol id="icon-radio"
            xmlns="http://www.w3.org/2000/svg"
            viewBox="0 0 24 24"
            fill="none"
            stroke="currentColor"
            strokeWidth="2"
            strokeLinecap="round"
            strokeLinejoin="round">
        <circle cx="12"
                cy="12"
                r="2" />
        <path d="M16.24 7.76a6 6 0 0 1 0 8.49m-8.48-.01a6 6 0 0 1 0-8.49m11.31-2.82a10 10 0 0 1 0 14.14m-14.14 0a10 10 0 0 1 0-14.14" />
    </symbol>
    <symbol id="icon-headphones"
            xmlns="http://www.w3.org/2000/svg"
            viewBox="0 0 24 24"
            fill="none"
            stroke="currentColor"
            strokeWidth="2"
            strokeLinecap="round"
            strokeLinejoin="round">
        <path d="M3 18v-6a9 9 0 0 1 18 0v6" />
        <path d="M21 19a2 2 0 0 1-2 2h-1a2 2 0 0 1-2-2v-3a2 2 0 0 1 2-2h3zM3 19a2 2 0 0 0 2 2h1a2 2 0 0 0 2-2v-3a2 2 0 0 0-2-2H3z" />
    </symbol>
    <symbol id="icon-play"
            xmlns="http://www.w3.org/2000/svg"
            viewBox="0 0 24 24"
            fill="none"
            stroke="currentColor"
            strokeWidth="2"
            strokeLinecap="round"
            strokeLinejoin="round">
        <polygon points="5 3 19 12 5 21 5 3" />
    </symbol>
    <symbol id="icon-play-circle"
            xmlns="http://www.w3.org/2000/svg"
            viewBox="0 0 24 24"
            fill="none"
            stroke="currentColor"
            strokeWidth="2"
            strokeLinecap="round"
            strokeLinejoin="round">
        <circle cx="12"
                cy="12"
                r="10" />
        <polygon points="10 8 16 12 10 16 10 8" />
    </symbol>
    <symbol id="icon-pause"
            xmlns="http://www.w3.org/2000/svg"
            viewBox="0 0 24 24"
            fill="none"
            stroke="currentColor"
            strokeWidth="2"
            strokeLinecap="round"
            strokeLinejoin="round">
        <rect x="6"
              y="4"
              width="4"
              height="16" />
        <rect x="14"
              y="4"
              width="4"
              height="16" />
    </symbol>
    <symbol id="icon-pause-circle"
            xmlns="http://www.w3.org/2000/svg"
            viewBox="0 0 24 24"
            fill="none"
            stroke="currentColor"
            strokeWidth="2"
            strokeLinecap="round"
            strokeLinejoin="round">
        <circle cx="12"
                cy="12"
                r="10" />
        <line x1="10"
              y1="15"
              x2="10"
              y2="9" />
        <line x1="14"
              y1="15"
              x2="14"
              y2="9" />
    </symbol>
    <symbol id="icon-stop"
            xmlns="http://www.w3.org/2000/svg"
            viewBox="0 0 24 24"
            fill="currentColor"
            stroke="currentColor"
            strokeWidth="2"
            strokeLinecap="round"
            strokeLinejoin="round">
        <rect x="3"
              y="3"
              width="18"
              height="18"
              rx="2"
              ry="2" />
    </symbol>
    <symbol id="icon-stop-circle"
            xmlns="http://www.w3.org/2000/svg"
            viewBox="0 0 24 24"
            fill="none"
            stroke="currentColor"
            strokeWidth="2"
            strokeLinecap="round"
            strokeLinejoin="round">
        <circle cx="12"
                cy="12"
                r="10" />
        <rect x="9"
              y="9"
              width="6"
              height="6" />
    </symbol>
    <symbol id="icon-star"
            xmlns="http://www.w3.org/2000/svg"
            viewBox="0 0 24 24"
            fill="none"
            stroke="currentColor"
            strokeWidth="2"
            strokeLinecap="round"
            strokeLinejoin="round">
        <polygon points="12 2 15.09 8.26 22 9.27 17 14.14 18.18 21.02 12 17.77 5.82 21.02 7 14.14 2 9.27 8.91 8.26 12 2" />
    </symbol>
    <symbol id="icon-music"
            xmlns="http://www.w3.org/2000/svg"
            viewBox="0 0 24 24"
            fill="none"
            stroke="currentColor"
            strokeWidth="2"
            strokeLinecap="round"
            strokeLinejoin="round">
        <path d="M9 18V5l12-2v13" />
        <circle cx="6"
                cy="18"
                r="3" />
        <circle cx="18"
                cy="16"
                r="3" />
    </symbol>
    <symbol id="icon-linkedin"
            xmlns="http://www.w3.org/2000/svg"
            fill="currentColor"
            viewBox="0 0 24 24">
        <path d="M20 3H4a1 1 0 0 0-1 1v16a1 1 0 0 0 1 1h16a1 1 0 0 0 1-1V4a1 1 0 0 0-1-1zM8.339 18.337H5.667v-8.59h2.672v8.59zM7.003 8.574a1.548 1.548 0 1 1 0-3.096 1.548 1.548 0 0 1 0 3.096zm11.335 9.763h-2.669V14.16c0-.996-.018-2.277-1.388-2.277-1.39 0-1.601 1.086-1.601 2.207v4.248h-2.667v-8.59h2.56v1.174h.037c.355-.675 1.227-1.387 2.524-1.387 2.704 0 3.203 1.778 3.203 4.092v4.71z" />
    </symbol>
    <symbol id="icon-github"
            xmlns="http://www.w3.org/2000/svg"
            viewBox="0 0 24 24"
            fill="currentColor">
        <path fill-rule="evenodd"
              clip-rule="evenodd"
              d="M12.026 2c-5.509 0-9.974 4.465-9.974 9.974 0 4.406 2.857 8.145 6.821 9.465.499.09.679-.217.679-.481 0-.237-.008-.865-.011-1.696-2.775.602-3.361-1.338-3.361-1.338-.452-1.152-1.107-1.459-1.107-1.459-.905-.619.069-.605.069-.605 1.002.07 1.527 1.028 1.527 1.028.89 1.524 2.336 1.084 2.902.829.091-.645.351-1.085.635-1.334-2.214-.251-4.542-1.107-4.542-4.93 0-1.087.389-1.979 1.024-2.675-.101-.253-.446-1.268.099-2.64 0 0 .837-.269 2.742 1.021a9.582 9.582 0 0 1 2.496-.336 9.554 9.554 0 0 1 2.496.336c1.906-1.291 2.742-1.021 2.742-1.021.545 1.372.203 2.387.099 2.64.64.696 1.024 1.587 1.024 2.675 0 3.833-2.33 4.675-4.552 4.922.355.308.675.916.675 1.846 0 1.334-.012 2.41-.012 2.737 0 .267.178.577.687.479C19.146 20.115 22 16.379 22 11.974 22 6.465 17.535 2 12.026 2z" />
    </symbol>
</svg>